<?xml version="1.0" encoding="UTF-8" standalone="no"?>
<!-- Created with Inkscape (http://www.inkscape.org/) -->

<svg
   xmlns:dc="http://purl.org/dc/elements/1.1/"
   xmlns:cc="http://creativecommons.org/ns#"
   xmlns:rdf="http://www.w3.org/1999/02/22-rdf-syntax-ns#"
   xmlns:svg="http://www.w3.org/2000/svg"
   xmlns="http://www.w3.org/2000/svg"
   xmlns:sodipodi="http://sodipodi.sourceforge.net/DTD/sodipodi-0.dtd"
   xmlns:inkscape="http://www.inkscape.org/namespaces/inkscape"
   width="6in"
   height="6in"
   viewBox="0 0 539.99998 540.00001"
   id="svg2"
   version="1.1"
   inkscape:version="0.91 r13725"
   sodipodi:docname="status_panel.svg">
  <defs
     id="defs4" />
  <sodipodi:namedview
     id="base"
     pagecolor="#ffffff"
     bordercolor="#666666"
     borderopacity="1.0"
     inkscape:pageopacity="0.0"
     inkscape:pageshadow="2"
     inkscape:zoom="1.4142136"
     inkscape:cx="128.25166"
     inkscape:cy="279.85741"
     inkscape:document-units="px"
     inkscape:current-layer="surface23196"
     showgrid="false"
     inkscape:window-width="1920"
     inkscape:window-height="1018"
     inkscape:window-x="-8"
     inkscape:window-y="-8"
     inkscape:window-maximized="1"
     units="in" />
  <metadata
     id="metadata7">
    <rdf:RDF>
      <cc:Work
         rdf:about="">
        <dc:format>image/svg+xml</dc:format>
        <dc:type
           rdf:resource="http://purl.org/dc/dcmitype/StillImage" />
        <dc:title />
      </cc:Work>
    </rdf:RDF>
  </metadata>
  <g
     inkscape:label="Layer 1"
     inkscape:groupmode="layer"
     id="layer1"
     transform="translate(0,-512.36215)">
    <g
       id="surface23196"
       transform="matrix(1.25,0,0,1.25,-30.417037,52.326467)"
       style="stroke:#0000ff;stroke-width:0.28346458;stroke-miterlimit:4;stroke-dasharray:none;stroke-opacity:1">
      <path
         id="path4344"
         d="m 371.58335,554.6012 3.75,-4.57812"
         style="fill:none;stroke:#0000ff;stroke-width:0.28346458;stroke-linecap:butt;stroke-linejoin:miter;stroke-miterlimit:4;stroke-dasharray:none;stroke-opacity:1"
         inkscape:connector-curvature="0" />
      <path
         id="path4346"
         d="m 375.33335,550.02308 2.4336,-5.39453"
         style="fill:none;stroke:#0000ff;stroke-width:0.28346458;stroke-linecap:butt;stroke-linejoin:miter;stroke-miterlimit:4;stroke-dasharray:none;stroke-opacity:1"
         inkscape:connector-curvature="0" />
      <path
         id="path4348"
         d="m 377.76695,544.62855 0.95703,-5.84375"
         style="fill:none;stroke:#0000ff;stroke-width:0.28346458;stroke-linecap:butt;stroke-linejoin:miter;stroke-miterlimit:4;stroke-dasharray:none;stroke-opacity:1"
         inkscape:connector-curvature="0" />
      <path
         style="fill:none;stroke:#0000ff;stroke-width:0.28346458;stroke-linecap:butt;stroke-linejoin:miter;stroke-miterlimit:4;stroke-dasharray:none;stroke-opacity:1"
         d="m 378.72398,538.7848 -0.58594,-5.89063"
         id="path4350" />
      <path
         style="fill:none;stroke:#0000ff;stroke-width:0.28346458;stroke-linecap:butt;stroke-linejoin:miter;stroke-miterlimit:4;stroke-dasharray:none;stroke-opacity:1"
         d="m 378.13804,532.89417 -2.08984,-5.53906"
         id="path4352"
         inkscape:connector-curvature="0" />
      <path
         id="path4354"
         d="m 376.0482,527.35511 -3.45313,-4.8086"
         style="fill:none;stroke:#0000ff;stroke-width:0.28346458;stroke-linecap:butt;stroke-linejoin:miter;stroke-miterlimit:4;stroke-dasharray:none;stroke-opacity:1"
         inkscape:connector-curvature="0" />
      <path
         id="path4356"
         d="m 372.59507,522.54651 -4.58203,-3.75"
         style="fill:none;stroke:#0000ff;stroke-width:0.28346458;stroke-linecap:butt;stroke-linejoin:miter;stroke-miterlimit:4;stroke-dasharray:none;stroke-opacity:1"
         inkscape:connector-curvature="0" />
      <path
         id="path4358"
         d="m 368.01304,518.79651 -5.39453,-2.43359"
         style="fill:none;stroke:#0000ff;stroke-width:0.28346458;stroke-linecap:butt;stroke-linejoin:miter;stroke-miterlimit:4;stroke-dasharray:none;stroke-opacity:1"
         inkscape:connector-curvature="0" />
      <path
         id="path4360"
         d="m 362.61851,516.36292 -5.84375,-0.96094"
         style="fill:none;stroke:#0000ff;stroke-width:0.28346458;stroke-linecap:butt;stroke-linejoin:miter;stroke-miterlimit:4;stroke-dasharray:none;stroke-opacity:1"
         inkscape:connector-curvature="0" />
      <path
         id="path4362"
         d="m 356.77476,515.40198 -5.89063,0.58985"
         style="fill:none;stroke:#0000ff;stroke-width:0.28346458;stroke-linecap:butt;stroke-linejoin:miter;stroke-miterlimit:4;stroke-dasharray:none;stroke-opacity:1"
         inkscape:connector-curvature="0" />
      <path
         id="path4364"
         d="m 350.88413,515.99183 -5.53906,2.08984"
         style="fill:none;stroke:#0000ff;stroke-width:0.28346458;stroke-linecap:butt;stroke-linejoin:miter;stroke-miterlimit:4;stroke-dasharray:none;stroke-opacity:1"
         inkscape:connector-curvature="0" />
      <path
         id="path4366"
         d="m 345.34507,518.08167 -4.80469,3.45313"
         style="fill:none;stroke:#0000ff;stroke-width:0.28346458;stroke-linecap:butt;stroke-linejoin:miter;stroke-miterlimit:4;stroke-dasharray:none;stroke-opacity:1"
         inkscape:connector-curvature="0" />
      <path
         id="path4368"
         d="m 340.54038,521.5348 -3.75,4.58203"
         style="fill:none;stroke:#0000ff;stroke-width:0.28346458;stroke-linecap:butt;stroke-linejoin:miter;stroke-miterlimit:4;stroke-dasharray:none;stroke-opacity:1"
         inkscape:connector-curvature="0" />
      <path
         id="path4370"
         d="m 336.79038,526.11683 -2.4375,5.39453"
         style="fill:none;stroke:#0000ff;stroke-width:0.28346458;stroke-linecap:butt;stroke-linejoin:miter;stroke-miterlimit:4;stroke-dasharray:none;stroke-opacity:1"
         inkscape:connector-curvature="0" />
      <path
         id="path4372"
         d="m 334.35288,531.51136 -0.95703,5.84375"
         style="fill:none;stroke:#0000ff;stroke-width:0.28346458;stroke-linecap:butt;stroke-linejoin:miter;stroke-miterlimit:4;stroke-dasharray:none;stroke-opacity:1"
         inkscape:connector-curvature="0" />
      <path
         id="path4374"
         d="m 333.39585,537.35511 0.58594,5.89062"
         style="fill:none;stroke:#0000ff;stroke-width:0.28346458;stroke-linecap:butt;stroke-linejoin:miter;stroke-miterlimit:4;stroke-dasharray:none;stroke-opacity:1"
         inkscape:connector-curvature="0" />
      <path
         style="fill:none;stroke:#0000ff;stroke-width:0.28346458;stroke-linecap:butt;stroke-linejoin:miter;stroke-miterlimit:4;stroke-dasharray:none;stroke-opacity:1"
         d="m 333.98179,543.24573 2.08984,5.53516"
         id="path4376" />
      <path
         id="path4378"
         d="m 336.07163,548.78089 3.45313,4.80859"
         style="fill:none;stroke:#0000ff;stroke-width:0.28346458;stroke-linecap:butt;stroke-linejoin:miter;stroke-miterlimit:4;stroke-dasharray:none;stroke-opacity:1"
         inkscape:connector-curvature="0" />
      <path
         id="path4380"
         d="m 339.52476,553.58948 4.58203,3.75"
         style="fill:none;stroke:#0000ff;stroke-width:0.28346458;stroke-linecap:butt;stroke-linejoin:miter;stroke-miterlimit:4;stroke-dasharray:none;stroke-opacity:1"
         inkscape:connector-curvature="0" />
      <path
         id="path4382"
         d="m 344.10679,557.33948 5.39453,2.4375"
         style="fill:none;stroke:#0000ff;stroke-width:0.28346458;stroke-linecap:butt;stroke-linejoin:miter;stroke-miterlimit:4;stroke-dasharray:none;stroke-opacity:1"
         inkscape:connector-curvature="0" />
      <path
         id="path4384"
         d="m 349.50132,559.77698 5.84375,0.95703"
         style="fill:none;stroke:#0000ff;stroke-width:0.28346458;stroke-linecap:butt;stroke-linejoin:miter;stroke-miterlimit:4;stroke-dasharray:none;stroke-opacity:1"
         inkscape:connector-curvature="0" />
      <path
         id="path4386"
         d="m 355.34507,560.73401 5.89063,-0.58593"
         style="fill:none;stroke:#0000ff;stroke-width:0.28346458;stroke-linecap:butt;stroke-linejoin:miter;stroke-miterlimit:4;stroke-dasharray:none;stroke-opacity:1"
         inkscape:connector-curvature="0" />
      <path
         id="path4388"
         d="m 361.2357,560.14808 5.53906,-2.08985"
         style="fill:none;stroke:#0000ff;stroke-width:0.28346458;stroke-linecap:butt;stroke-linejoin:miter;stroke-miterlimit:4;stroke-dasharray:none;stroke-opacity:1"
         inkscape:connector-curvature="0" />
      <path
         id="path4390"
         d="m 366.77476,558.05823 4.80859,-3.45703"
         style="fill:none;stroke:#0000ff;stroke-width:0.28346458;stroke-linecap:butt;stroke-linejoin:miter;stroke-miterlimit:4;stroke-dasharray:none;stroke-opacity:1"
         inkscape:connector-curvature="0" />
      <path
         style="fill:none;stroke:#0000ff;stroke-width:0.28346458;stroke-linecap:butt;stroke-linejoin:miter;stroke-miterlimit:4;stroke-dasharray:none;stroke-opacity:1"
         d="m 290.00913,498.91917 -197.007808,0"
         id="path4361" />
      <path
         style="fill:none;stroke:#0000ff;stroke-width:0.28346458;stroke-linecap:butt;stroke-linejoin:miter;stroke-miterlimit:4;stroke-dasharray:none;stroke-opacity:1"
         d="m 290.00913,568.36839 -197.007808,0"
         id="path4359" />
      <path
         style="fill:none;stroke:#0000ff;stroke-width:0.28346458;stroke-linecap:butt;stroke-linejoin:miter;stroke-miterlimit:4;stroke-dasharray:none;stroke-opacity:1"
         d="m 290.00913,498.91917 0,69.44922"
         id="path4357" />
      <path
         style="fill:none;stroke:#0000ff;stroke-width:0.28346458;stroke-linecap:butt;stroke-linejoin:miter;stroke-miterlimit:4;stroke-dasharray:none;stroke-opacity:1"
         d="m 93.001322,498.91917 0,69.44922"
         id="path4400" />
      <rect
         style="fill:none;fill-opacity:1;stroke:#00ff00;stroke-width:0.28368083;stroke-linecap:round;stroke-linejoin:miter;stroke-miterlimit:4;stroke-dasharray:none;stroke-dashoffset:0;stroke-opacity:1"
         id="rect4950"
         width="386.92862"
         height="221.18277"
         x="46.86932"
         y="473.43713"
         ry="52.043007" />
      <circle
         style="fill:none;fill-opacity:1;stroke:#00ffff;stroke-width:0.2832;stroke-linecap:round;stroke-linejoin:miter;stroke-miterlimit:4;stroke-dasharray:none;stroke-dashoffset:0;stroke-opacity:1"
         id="path4224"
         cx="65.253998"
         cy="584.02856"
         r="3.3941123" />
      <circle
         style="fill:none;fill-opacity:1;stroke:#00ffff;stroke-width:0.2832;stroke-linecap:round;stroke-linejoin:miter;stroke-miterlimit:4;stroke-dasharray:none;stroke-dashoffset:0;stroke-opacity:1"
         id="path4224-7"
         cx="415.41327"
         cy="584.02856"
         r="3.3941123" />
      <rect
         style="fill:none;fill-opacity:1;stroke:#ffff00;stroke-width:0.2832;stroke-linecap:round;stroke-linejoin:miter;stroke-miterlimit:4;stroke-dasharray:none;stroke-dashoffset:0;stroke-opacity:1"
         id="rect4259"
         width="334.32007"
         height="196.29283"
         x="73.173592"
         y="485.88214" />
    </g>
    <g
       style="font-style:normal;font-weight:normal;font-size:15px;line-height:125%;font-family:sans-serif;text-align:center;letter-spacing:0px;word-spacing:0px;text-anchor:middle;fill:#000000;fill-opacity:1;stroke:#ff0000;stroke-width:0.354;stroke-linecap:round;stroke-linejoin:miter;stroke-miterlimit:4;stroke-dasharray:none;stroke-opacity:1"
       id="text4469"
       transform="translate(0.08754568,-0.22781332)">
      <path
         style="font-style:normal;font-variant:normal;font-weight:normal;font-stretch:normal;font-family:FREEDOM;-inkscape-font-specification:FREEDOM;stroke:#ff0000;stroke-width:0.354;stroke-miterlimit:4;stroke-dasharray:none;stroke-opacity:1"
         d="m 128.34063,826.58554 0,-0.105 q 0,-0.12 0.12,-0.18 0.12,-0.075 0.285,-0.105 0.165,-0.045 0.315,-0.06 0.15,-0.015 0.225,-0.015 0.57,0 1.02,0.33 0.465,0.33 0.735,0.855 l 2.07,3.945 2.055,-3.945 q 0.27,-0.525 0.72,-0.855 0.465,-0.33 1.05,-0.33 0.075,0 0.24,0.03 0.18,0.015 0.345,0.06 0.18,0.045 0.315,0.12 0.135,0.075 0.135,0.195 l 0,0.06 -3.93,7.035 -1.83,0 -3.87,-7.035 z"
         id="path4284"
         inkscape:connector-curvature="0" />
      <path
         style="font-style:normal;font-variant:normal;font-weight:normal;font-stretch:normal;font-family:FREEDOM;-inkscape-font-specification:FREEDOM;stroke:#ff0000;stroke-width:0.354;stroke-miterlimit:4;stroke-dasharray:none;stroke-opacity:1"
         d="m 121.09827,832.37543 5.16357,0 0,1.24511 -6.94336,0 0,-1.24511 q 0.84229,-0.87158 2.29248,-2.33643 1.45752,-1.47217 1.83106,-1.89697 0.71045,-0.79834 0.98877,-1.34766 0.28564,-0.55664 0.28564,-1.09131 0,-0.87158 -0.61523,-1.42089 -0.60791,-0.54932 -1.58936,-0.54932 -0.6958,0 -1.47217,0.2417 -0.76904,0.2417 -1.64795,0.73242 l 0,-1.49414 q 0.89356,-0.35889 1.66993,-0.54199 0.77636,-0.18311 1.42089,-0.18311 1.69922,0 2.70996,0.84961 1.01075,0.84961 1.01075,2.27051 0,0.67383 -0.25635,1.28174 -0.24902,0.60058 -0.91553,1.4209 -0.1831,0.2124 -1.16455,1.23046 -0.98144,1.01075 -2.76855,2.83448 z"
         id="path4282"
         inkscape:connector-curvature="0" />
      <path
         style="font-style:normal;font-variant:normal;font-weight:normal;font-stretch:normal;font-family:FREEDOM;-inkscape-font-specification:FREEDOM;stroke:#ff0000;stroke-width:0.354;stroke-miterlimit:4;stroke-dasharray:none;stroke-opacity:1"
         d="m 110.52942,832.37543 2.41699,0 0,-8.34229 -2.62939,0.52735 0,-1.34766 2.61474,-0.52734 1.47949,0 0,9.68994 2.417,0 0,1.24511 -6.29883,0 0,-1.24511 z"
         id="path4280"
         inkscape:connector-curvature="0" />
      <path
         style="font-style:normal;font-variant:normal;font-weight:normal;font-stretch:normal;font-family:FREEDOM;-inkscape-font-specification:FREEDOM;stroke:#0000ff;stroke-width:0.354;stroke-miterlimit:4;stroke-dasharray:none;stroke-opacity:1"
         d="m 85.56929,838.30792 0,50.49316 0.354005,0 0,-50.49316 -0.354005,0 z"
         id="path4278"
         inkscape:connector-curvature="0" />
      <path
         style="font-style:normal;font-variant:normal;font-weight:normal;font-stretch:normal;font-family:FREEDOM;-inkscape-font-specification:FREEDOM;stroke:#0000ff;stroke-width:0.354;stroke-miterlimit:4;stroke-dasharray:none;stroke-opacity:1"
         d="m 85.747514,888.62285 0,0.354 80.610346,0 0,-0.354 -80.610346,0 z"
         id="path4276"
         inkscape:connector-curvature="0" />
      <path
         style="font-style:normal;font-variant:normal;font-weight:normal;font-stretch:normal;font-family:FREEDOM;-inkscape-font-specification:FREEDOM;stroke:#0000ff;stroke-width:0.354;stroke-miterlimit:4;stroke-dasharray:none;stroke-opacity:1"
         d="m 166.17964,838.30792 0,50.49316 0.35401,0 0,-50.49316 -0.35401,0 z"
         id="path4274"
         inkscape:connector-curvature="0" />
      <path
         style="font-style:normal;font-variant:normal;font-weight:normal;font-stretch:normal;font-family:FREEDOM;-inkscape-font-specification:FREEDOM;stroke:#0000ff;stroke-width:0.354;stroke-miterlimit:4;stroke-dasharray:none;stroke-opacity:1"
         d="m 85.747514,838.12969 0,0.354 80.610346,0 0,-0.354 -80.610346,0 z"
         id="path4238"
         inkscape:connector-curvature="0" />
    </g>
    <g
       style="font-style:normal;font-weight:normal;font-size:15px;line-height:125%;font-family:sans-serif;text-align:center;letter-spacing:0px;word-spacing:0px;text-anchor:middle;fill:#000000;fill-opacity:1;stroke:#ff0000;stroke-width:0.35433072;stroke-linecap:round;stroke-linejoin:miter;stroke-miterlimit:4;stroke-dasharray:none;stroke-opacity:1"
       id="text4473"
       transform="translate(45.000525,-0.22781332)">
      <path
         style="font-style:normal;font-variant:normal;font-weight:normal;font-stretch:normal;font-family:FREEDOM;-inkscape-font-specification:FREEDOM;stroke:#ff0000;stroke-width:0.35433072;stroke-miterlimit:4;stroke-dasharray:none;stroke-opacity:1"
         d="m 222.65104,825.83554 0,-0.105 q 0,-0.12 0.12,-0.18 0.12,-0.075 0.285,-0.105 0.165,-0.045 0.315,-0.06 0.15,-0.015 0.225,-0.015 0.57,0 1.02,0.33 0.465,0.33 0.735,0.855 l 2.07,3.945 2.055,-3.945 q 0.27,-0.525 0.72,-0.855 0.465,-0.33 1.05,-0.33 0.075,0 0.24,0.03 0.18,0.015 0.345,0.06 0.18,0.045 0.315,0.12 0.135,0.075 0.135,0.195 l 0,0.06 -3.93,7.035 -1.83,0 -3.87,-7.035 z"
         id="path4296"
         inkscape:connector-curvature="0" />
      <path
         style="font-style:normal;font-variant:normal;font-weight:normal;font-stretch:normal;font-family:FREEDOM;-inkscape-font-specification:FREEDOM;stroke:#ff0000;stroke-width:0.35433072;stroke-miterlimit:4;stroke-dasharray:none;stroke-opacity:1"
         d="m 214.14891,821.93549 5.80811,0 0,1.24511 -4.45313,0 0,2.68067 q 0.32227,-0.10987 0.64453,-0.16114 0.32227,-0.0586 0.64453,-0.0586 1.83106,0 2.90039,1.00342 1.06934,1.00342 1.06934,2.71728 0,1.76514 -1.09863,2.74659 -1.09864,0.97412 -3.09815,0.97412 -0.68847,0 -1.40625,-0.11719 -0.71045,-0.11719 -1.47217,-0.35156 l 0,-1.48682 q 0.65918,0.35889 1.36231,0.53467 0.70312,0.17578 1.48682,0.17578 1.26709,0 2.00683,-0.6665 0.73975,-0.66651 0.73975,-1.80909 0,-1.14257 -0.73975,-1.80908 -0.73974,-0.6665 -2.00683,-0.6665 -0.59327,0 -1.18653,0.13183 -0.58594,0.13184 -1.20117,0.41016 l 0,-5.49316 z"
         id="path4294"
         inkscape:connector-curvature="0" />
      <path
         style="font-style:normal;font-variant:normal;font-weight:normal;font-stretch:normal;font-family:FREEDOM;-inkscape-font-specification:FREEDOM;stroke:#0000ff;stroke-width:0.35433072;stroke-miterlimit:4;stroke-dasharray:none;stroke-opacity:1"
         d="m 184.78026,888.8009 80.61035,0"
         id="path4292"
         inkscape:connector-curvature="0" />
      <path
         style="font-style:normal;font-variant:normal;font-weight:normal;font-stretch:normal;font-family:FREEDOM;-inkscape-font-specification:FREEDOM;stroke:#0000ff;stroke-width:0.35433072;stroke-miterlimit:4;stroke-dasharray:none;stroke-opacity:1"
         d="m 184.78026,888.8009 0,-50.49317"
         id="path4290"
         inkscape:connector-curvature="0" />
      <path
         style="font-style:normal;font-variant:normal;font-weight:normal;font-stretch:normal;font-family:FREEDOM;-inkscape-font-specification:FREEDOM;stroke:#0000ff;stroke-width:0.35433072;stroke-miterlimit:4;stroke-dasharray:none;stroke-opacity:1"
         d="m 184.78026,838.30773 80.61035,0"
         id="path4288"
         inkscape:connector-curvature="0" />
      <path
         style="font-style:normal;font-variant:normal;font-weight:normal;font-stretch:normal;font-family:FREEDOM;-inkscape-font-specification:FREEDOM;stroke:#0000ff;stroke-width:0.35433072;stroke-miterlimit:4;stroke-dasharray:none;stroke-opacity:1"
         d="m 265.39061,838.30773 0,50.49317"
         id="path4230"
         inkscape:connector-curvature="0" />
    </g>
    <g
       style="font-style:normal;font-weight:normal;font-size:15px;line-height:125%;font-family:sans-serif;text-align:center;letter-spacing:0px;word-spacing:0px;text-anchor:middle;fill:#000000;fill-opacity:1;stroke:#ff0000;stroke-width:0.35433072;stroke-linecap:round;stroke-linejoin:miter;stroke-miterlimit:4;stroke-dasharray:none;stroke-opacity:1"
       id="text4477"
       transform="translate(0.08754568,-4.2278133)">
      <path
         style="font-style:normal;font-variant:normal;font-weight:normal;font-stretch:normal;font-family:FREEDOM;-inkscape-font-specification:FREEDOM;stroke:#ff0000;stroke-width:0.35433072;stroke-miterlimit:4;stroke-dasharray:none;stroke-opacity:1"
         d="m 444.58971,777.49854 q -0.525,-0.03 -1.2,-0.195 -0.66,-0.165 -1.245,-0.495 -0.585,-0.345 -0.99,-0.87 -0.405,-0.54 -0.405,-1.305 l 0,-2.475 q 0.615,0 0.975,0.255 0.36,0.255 0.585,0.63 0.225,0.375 0.375,0.825 0.15,0.45 0.345,0.825 0.195,0.375 0.51,0.63 0.315,0.255 0.87,0.255 l 2.46,0 q 0.555,0 0.87,-0.255 0.315,-0.255 0.51,-0.63 0.195,-0.375 0.345,-0.825 0.15,-0.45 0.375,-0.825 0.225,-0.375 0.57,-0.63 0.36,-0.255 0.99,-0.255 l 0,2.475 q 0,0.765 -0.405,1.305 -0.405,0.525 -1.005,0.87 -0.585,0.33 -1.245,0.495 -0.66,0.165 -1.17,0.195 -0.135,0.525 -0.27,0.945 -0.135,0.405 -0.36,0.69 -0.225,0.285 -0.585,0.45 -0.345,0.15 -0.9,0.15 l 0,-2.235 0,0 z"
         id="path4349"
         inkscape:connector-curvature="0" />
      <path
         style="font-style:normal;font-variant:normal;font-weight:normal;font-stretch:normal;font-family:FREEDOM;-inkscape-font-specification:FREEDOM;stroke:#ff0000;stroke-width:0.35433072;stroke-miterlimit:4;stroke-dasharray:none;stroke-opacity:1"
         d="m 440.07213,774.54354 q 0,0.18 -0.075,0.36 -0.06,0.165 -0.135,0.33 -0.075,0.165 -0.15,0.33 -0.06,0.165 -0.06,0.33 0,0.165 0.06,0.33 0.075,0.165 0.15,0.345 0.075,0.18 0.135,0.375 0.075,0.195 0.075,0.39 0,0.45 -0.18,0.855 -0.18,0.405 -0.51,0.72 -0.315,0.3 -0.75,0.495 -0.435,0.18 -0.945,0.195 l -5.205,0.09 q -0.33,0 -0.72,-0.09 -0.375,-0.105 -0.705,-0.3 -0.315,-0.195 -0.54,-0.48 -0.21,-0.285 -0.21,-0.675 l 0,-4.515 q 0,-0.21 0.105,-0.465 0.12,-0.255 0.315,-0.465 0.195,-0.225 0.435,-0.36 0.24,-0.15 0.495,-0.15 l 6.24,0 q 0.48,0 0.885,0.225 0.405,0.21 0.69,0.555 0.285,0.345 0.435,0.765 0.165,0.42 0.165,0.81 z"
         id="path4347"
         inkscape:connector-curvature="0" />
      <path
         style="font-style:normal;font-variant:normal;font-weight:normal;font-stretch:normal;font-family:FREEDOM;-inkscape-font-specification:FREEDOM;stroke:#ff0000;stroke-width:0.35433072;stroke-miterlimit:4;stroke-dasharray:none;stroke-opacity:1"
         d="m 432.58713,777.94854 4.47,0 q 0.12,0 0.33,-0.015 0.21,-0.03 0.405,-0.09 0.21,-0.06 0.36,-0.165 0.15,-0.12 0.15,-0.3 0,-0.075 -0.075,-0.15 -0.06,-0.09 -0.165,-0.165 -0.09,-0.075 -0.195,-0.12 -0.105,-0.045 -0.18,-0.045 l -5.1,0 0,1.05 z"
         id="path4345"
         inkscape:connector-curvature="0" />
      <path
         style="font-style:normal;font-variant:normal;font-weight:normal;font-stretch:normal;font-family:FREEDOM;-inkscape-font-specification:FREEDOM;stroke:#ff0000;stroke-width:0.35433072;stroke-miterlimit:4;stroke-dasharray:none;stroke-opacity:1"
         d="m 432.58713,775.06854 4.89,0 q 0.09,0 0.225,-0.03 0.15,-0.045 0.285,-0.105 0.135,-0.06 0.225,-0.15 0.09,-0.09 0.09,-0.195 0,-0.135 -0.105,-0.24 -0.09,-0.12 -0.225,-0.18 -0.135,-0.075 -0.3,-0.105 -0.165,-0.045 -0.3,-0.045 l -4.785,0 0,1.05 z"
         id="path4342"
         inkscape:connector-curvature="0" />
      <path
         style="font-style:normal;font-variant:normal;font-weight:normal;font-stretch:normal;font-family:FREEDOM;-inkscape-font-specification:FREEDOM;stroke:#ff0000;stroke-width:0.35433072;stroke-miterlimit:4;stroke-dasharray:none;stroke-opacity:1"
         d="m 429.58385,775.93854 q 0,0.765 -0.315,1.455 -0.3,0.675 -0.825,1.185 -0.525,0.51 -1.23,0.81 -0.705,0.3 -1.5,0.3 l -3.855,0 q -0.315,0 -0.675,-0.09 -0.345,-0.105 -0.66,-0.3 -0.3,-0.195 -0.51,-0.48 -0.195,-0.285 -0.195,-0.675 l 0,-4.41 q 0,-0.285 0.15,-0.555 0.15,-0.285 0.375,-0.495 0.24,-0.225 0.525,-0.36 0.3,-0.135 0.6,-0.135 l 4.545,0 q 0.75,0 1.395,0.33 0.66,0.315 1.14,0.84 0.48,0.525 0.75,1.2 0.285,0.675 0.285,1.38 z"
         id="path4340"
         inkscape:connector-curvature="0" />
      <path
         style="font-style:normal;font-variant:normal;font-weight:normal;font-stretch:normal;font-family:FREEDOM;-inkscape-font-specification:FREEDOM;stroke:#ff0000;stroke-width:0.35433072;stroke-miterlimit:4;stroke-dasharray:none;stroke-opacity:1"
         d="m 421.94885,777.48354 3.285,0 q 0.345,0 0.72,-0.105 0.375,-0.105 0.675,-0.3 0.315,-0.21 0.51,-0.51 0.21,-0.3 0.21,-0.675 0,-0.315 -0.165,-0.585 -0.15,-0.27 -0.405,-0.465 -0.255,-0.21 -0.57,-0.33 -0.3,-0.12 -0.585,-0.12 l -3.675,0 0,3.09 z"
         id="path4338"
         inkscape:connector-curvature="0" />
      <path
         style="font-style:normal;font-variant:normal;font-weight:normal;font-stretch:normal;font-family:FREEDOM;-inkscape-font-specification:FREEDOM;stroke:#ff0000;stroke-width:0.35433072;stroke-miterlimit:4;stroke-dasharray:none;stroke-opacity:1"
         d="m 411.38627,779.68854 q -0.39,0 -0.75,-0.105 -0.36,-0.12 -0.645,-0.345 -0.285,-0.225 -0.45,-0.555 -0.165,-0.33 -0.165,-0.765 l 0,-2.55 q 0,-0.675 0.24,-1.17 0.24,-0.495 0.63,-0.84 0.39,-0.36 0.9,-0.585 0.525,-0.225 1.08,-0.345 0.555,-0.135 1.11,-0.18 0.57,-0.06 1.05,-0.06 2.31,0 3.51,1.095 1.215,1.095 1.215,3.45 l 0,1.185 q -0.135,0.855 -0.63,1.32 -0.495,0.45 -1.38,0.45 l 0,-3.945 q 0,-0.51 -0.3,-0.81 -0.3,-0.315 -0.735,-0.465 -0.42,-0.165 -0.9,-0.21 -0.48,-0.06 -0.825,-0.06 -0.33,0 -0.84,0.03 -0.495,0.03 -0.975,0.18 -0.465,0.135 -0.81,0.435 -0.33,0.285 -0.33,0.795 l 0,4.05 z"
         id="path4336"
         inkscape:connector-curvature="0" />
      <path
         style="font-style:normal;font-variant:normal;font-weight:normal;font-stretch:normal;font-family:FREEDOM;-inkscape-font-specification:FREEDOM;stroke:#ff0000;stroke-width:0.35433072;stroke-miterlimit:4;stroke-dasharray:none;stroke-opacity:1"
         d="m 398.78369,775.93854 q 0,-1.08 0.405,-1.8 0.42,-0.735 1.095,-1.155 0.69,-0.435 1.56,-0.615 0.87,-0.18 1.785,-0.18 1.275,0 2.205,0.3 0.93,0.285 1.53,0.9 0.615,0.6 0.9,1.56 0.285,0.945 0.285,2.265 0,0.45 -0.09,0.9 -0.09,0.45 -0.315,0.795 -0.21,0.345 -0.57,0.57 -0.345,0.21 -0.855,0.21 -0.135,0 -0.195,-0.105 -0.045,-0.12 -0.075,-0.27 -0.39,0.12 -0.72,0.195 -0.33,0.075 -0.66,0.12 -0.33,0.03 -0.675,0.045 -0.345,0.015 -0.765,0.015 -0.915,0 -1.785,-0.18 -0.87,-0.18 -1.56,-0.6 -0.675,-0.435 -1.095,-1.155 -0.405,-0.72 -0.405,-1.815 z"
         id="path4334"
         inkscape:connector-curvature="0" />
      <path
         style="font-style:normal;font-variant:normal;font-weight:normal;font-stretch:normal;font-family:FREEDOM;-inkscape-font-specification:FREEDOM;stroke:#ff0000;stroke-width:0.35433072;stroke-miterlimit:4;stroke-dasharray:none;stroke-opacity:1"
         d="m 400.79369,775.83354 q 0,0.36 0.135,0.69 0.135,0.315 0.36,0.57 0.24,0.24 0.555,0.39 0.33,0.15 0.69,0.15 l 2.28,0 q 0.33,0 0.63,-0.15 0.315,-0.15 0.555,-0.39 0.24,-0.24 0.39,-0.555 0.15,-0.315 0.15,-0.645 0,-0.54 -0.3,-0.885 -0.285,-0.345 -0.735,-0.525 -0.435,-0.195 -0.93,-0.255 -0.495,-0.075 -0.9,-0.075 -0.405,0 -0.915,0.06 -0.495,0.045 -0.945,0.225 -0.435,0.165 -0.735,0.51 -0.285,0.33 -0.285,0.885 z"
         id="path4332"
         inkscape:connector-curvature="0" />
      <path
         style="font-style:normal;font-variant:normal;font-weight:normal;font-stretch:normal;font-family:FREEDOM;-inkscape-font-specification:FREEDOM;stroke:#ff0000;stroke-width:0.35433072;stroke-miterlimit:4;stroke-dasharray:none;stroke-opacity:1"
         d="m 388.10041,774.31854 q 0,-0.435 0.15,-0.825 0.15,-0.39 0.42,-0.675 0.285,-0.3 0.69,-0.465 0.405,-0.165 0.9,-0.165 l 7.575,0 q 0,0.765 -0.33,1.2 -0.315,0.42 -0.855,0.645 -0.525,0.21 -1.185,0.27 -0.66,0.06 -1.335,0.075 l 0,3.795 q 0,0.39 -0.24,0.675 -0.225,0.285 -0.57,0.48 -0.345,0.18 -0.75,0.27 -0.39,0.09 -0.72,0.09 l 0,-5.37 -3.75,0 z"
         id="path4330"
         inkscape:connector-curvature="0" />
      <path
         style="font-style:normal;font-variant:normal;font-weight:normal;font-stretch:normal;font-family:FREEDOM;-inkscape-font-specification:FREEDOM;stroke:#ff0000;stroke-width:0.35433072;stroke-miterlimit:4;stroke-dasharray:none;stroke-opacity:1"
         d="m 384.58783,778.05354 q 0.075,0 0.255,-0.03 0.18,-0.045 0.36,-0.105 0.18,-0.075 0.315,-0.18 0.135,-0.12 0.135,-0.285 0,-0.15 -0.165,-0.255 -0.15,-0.12 -0.375,-0.195 -0.21,-0.075 -0.42,-0.12 -0.21,-0.045 -0.3,-0.045 l -3.99,0 q -0.525,0 -0.96,-0.21 -0.42,-0.21 -0.735,-0.54 -0.315,-0.345 -0.495,-0.78 -0.165,-0.435 -0.165,-0.87 0,-0.54 0.24,-0.96 0.24,-0.42 0.63,-0.705 0.405,-0.285 0.915,-0.435 0.51,-0.15 1.035,-0.15 l 4.695,0 q 0.345,0 0.705,0.15 0.36,0.135 0.645,0.375 0.285,0.225 0.465,0.54 0.18,0.315 0.18,0.675 l -6.3,0 q -0.105,0 -0.255,0.045 -0.15,0.03 -0.285,0.105 -0.135,0.075 -0.225,0.18 -0.09,0.105 -0.09,0.225 0,0.135 0.075,0.24 0.075,0.09 0.195,0.15 0.12,0.045 0.24,0.075 0.135,0.03 0.255,0.045 0.45,0 1.11,-0.015 0.675,-0.03 1.41,0 0.75,0.015 1.485,0.135 0.735,0.12 1.32,0.405 0.585,0.27 0.945,0.75 0.375,0.465 0.375,1.215 l 0,0.615 q -0.165,0.495 -0.525,0.81 -0.345,0.315 -0.81,0.51 -0.465,0.195 -1.005,0.27 -0.525,0.075 -1.065,0.105 -0.525,0.03 -1.035,0.015 -0.495,-0.015 -0.885,-0.015 l -2.085,0 q -0.33,-0.06 -0.705,-0.195 -0.36,-0.135 -0.675,-0.345 -0.315,-0.225 -0.525,-0.51 -0.195,-0.3 -0.195,-0.69 l 6.285,0 z"
         id="path4328"
         inkscape:connector-curvature="0" />
      <path
         style="font-style:normal;font-variant:normal;font-weight:normal;font-stretch:normal;font-family:FREEDOM;-inkscape-font-specification:FREEDOM;stroke:#0000ff;stroke-width:0.35433072;stroke-miterlimit:4;stroke-dasharray:none;stroke-opacity:1"
         d="m 454.25293,819.13782 0,-35.96192"
         id="path4326"
         inkscape:connector-curvature="0" />
      <path
         style="font-style:normal;font-variant:normal;font-weight:normal;font-stretch:normal;font-family:FREEDOM;-inkscape-font-specification:FREEDOM;stroke:#0000ff;stroke-width:0.35433072;stroke-miterlimit:4;stroke-dasharray:none;stroke-opacity:1"
         d="m 454.25293,819.13782 -80.61524,0"
         id="path4324"
         inkscape:connector-curvature="0" />
      <path
         style="font-style:normal;font-variant:normal;font-weight:normal;font-stretch:normal;font-family:FREEDOM;-inkscape-font-specification:FREEDOM;stroke:#0000ff;stroke-width:0.35433072;stroke-miterlimit:4;stroke-dasharray:none;stroke-opacity:1"
         d="m 373.63769,783.1759 80.61524,0"
         id="path4322"
         inkscape:connector-curvature="0" />
      <path
         style="font-style:normal;font-variant:normal;font-weight:normal;font-stretch:normal;font-family:FREEDOM;-inkscape-font-specification:FREEDOM;stroke:#0000ff;stroke-width:0.35433072;stroke-miterlimit:4;stroke-dasharray:none;stroke-opacity:1"
         d="m 373.63769,819.13782 0,-35.96192"
         id="path4268"
         inkscape:connector-curvature="0" />
    </g>
    <text
       xml:space="preserve"
       style="font-style:normal;font-weight:normal;font-size:15px;line-height:125%;font-family:sans-serif;text-align:center;letter-spacing:0px;word-spacing:0px;text-anchor:middle;fill:#000000;fill-opacity:1;stroke:none;stroke-width:1px;stroke-linecap:butt;stroke-linejoin:miter;stroke-opacity:1"
       x="357.5"
       y="280.36221"
       id="text4481"
       sodipodi:linespacing="125%"><tspan
         sodipodi:role="line"
         id="tspan4483"
         x="357.5"
         y="280.36221" /></text>
    <g
       style="font-style:normal;font-weight:normal;font-size:15px;line-height:125%;font-family:sans-serif;text-align:center;letter-spacing:0px;word-spacing:0px;text-anchor:middle;fill:#000000;fill-opacity:1;stroke:#ff0000;stroke-width:0.35433072;stroke-linecap:round;stroke-linejoin:miter;stroke-miterlimit:4;stroke-dasharray:none;stroke-opacity:1"
       id="text4485"
       transform="translate(0.08754568,-0.22781332)">
      <path
         style="font-style:normal;font-variant:normal;font-weight:normal;font-stretch:normal;font-family:FREEDOM;-inkscape-font-specification:FREEDOM;stroke:#ff0000;stroke-width:0.35433072;stroke-miterlimit:4;stroke-dasharray:none;stroke-opacity:1"
         d="m 432.66698,831.03412 q -0.525,-0.03 -1.2,-0.195 -0.66,-0.165 -1.245,-0.495 -0.585,-0.345 -0.99,-0.87 -0.405,-0.54 -0.405,-1.305 l 0,-2.475 q 0.615,0 0.975,0.255 0.36,0.255 0.585,0.63 0.225,0.375 0.375,0.825 0.15,0.45 0.345,0.825 0.195,0.375 0.51,0.63 0.315,0.255 0.87,0.255 l 2.46,0 q 0.555,0 0.87,-0.255 0.315,-0.255 0.51,-0.63 0.195,-0.375 0.345,-0.825 0.15,-0.45 0.375,-0.825 0.225,-0.375 0.57,-0.63 0.36,-0.255 0.99,-0.255 l 0,2.475 q 0,0.765 -0.405,1.305 -0.405,0.525 -1.005,0.87 -0.585,0.33 -1.245,0.495 -0.66,0.165 -1.17,0.195 -0.135,0.525 -0.27,0.945 -0.135,0.405 -0.36,0.69 -0.225,0.285 -0.585,0.45 -0.345,0.15 -0.9,0.15 l 0,-2.235 0,0 z"
         id="path4318"
         inkscape:connector-curvature="0" />
      <path
         style="font-style:normal;font-variant:normal;font-weight:normal;font-stretch:normal;font-family:FREEDOM;-inkscape-font-specification:FREEDOM;stroke:#ff0000;stroke-width:0.35433072;stroke-miterlimit:4;stroke-dasharray:none;stroke-opacity:1"
         d="m 418.3844,829.47412 q 0,-1.08 0.405,-1.8 0.42,-0.735 1.095,-1.155 0.69,-0.435 1.56,-0.615 0.87,-0.18 1.785,-0.18 1.275,0 2.205,0.3 0.93,0.285 1.53,0.9 0.615,0.6 0.9,1.56 0.285,0.945 0.285,2.265 0,0.45 -0.09,0.9 -0.09,0.45 -0.315,0.795 -0.21,0.345 -0.57,0.57 -0.345,0.21 -0.855,0.21 -0.135,0 -0.195,-0.105 -0.045,-0.12 -0.075,-0.27 -0.39,0.12 -0.72,0.195 -0.33,0.075 -0.66,0.12 -0.33,0.03 -0.675,0.045 -0.345,0.015 -0.765,0.015 -0.915,0 -1.785,-0.18 -0.87,-0.18 -1.56,-0.6 -0.675,-0.435 -1.095,-1.155 -0.405,-0.72 -0.405,-1.815 z"
         id="path4316"
         inkscape:connector-curvature="0" />
      <path
         style="font-style:normal;font-variant:normal;font-weight:normal;font-stretch:normal;font-family:FREEDOM;-inkscape-font-specification:FREEDOM;stroke:#ff0000;stroke-width:0.35433072;stroke-miterlimit:4;stroke-dasharray:none;stroke-opacity:1"
         d="m 420.3944,829.36912 q 0,0.36 0.135,0.69 0.135,0.315 0.36,0.57 0.24,0.24 0.555,0.39 0.33,0.15 0.69,0.15 l 2.28,0 q 0.33,0 0.63,-0.15 0.315,-0.15 0.555,-0.39 0.24,-0.24 0.39,-0.555 0.15,-0.315 0.15,-0.645 0,-0.54 -0.3,-0.885 -0.285,-0.345 -0.735,-0.525 -0.435,-0.195 -0.93,-0.255 -0.495,-0.075 -0.9,-0.075 -0.405,0 -0.915,0.06 -0.495,0.045 -0.945,0.225 -0.435,0.165 -0.735,0.51 -0.285,0.33 -0.285,0.885 z"
         id="path4314"
         inkscape:connector-curvature="0" />
      <path
         style="font-style:normal;font-variant:normal;font-weight:normal;font-stretch:normal;font-family:FREEDOM;-inkscape-font-specification:FREEDOM;stroke:#ff0000;stroke-width:0.35433072;stroke-miterlimit:4;stroke-dasharray:none;stroke-opacity:1"
         d="m 411.55026,831.00412 3.855,0 q 0.51,0 0.915,0.195 0.42,0.18 0.72,0.495 0.3,0.315 0.465,0.72 0.165,0.39 0.165,0.81 l -6.495,0 q -0.405,0 -0.78,-0.15 -0.375,-0.15 -0.66,-0.405 -0.27,-0.255 -0.45,-0.585 -0.165,-0.345 -0.165,-0.72 l 0,-3.525 q 0,-0.48 0.195,-0.87 0.195,-0.39 0.525,-0.66 0.33,-0.285 0.765,-0.435 0.45,-0.15 0.945,-0.15 l 0,5.28 z"
         id="path4312"
         inkscape:connector-curvature="0" />
      <path
         style="font-style:normal;font-variant:normal;font-weight:normal;font-stretch:normal;font-family:FREEDOM;-inkscape-font-specification:FREEDOM;stroke:#ff0000;stroke-width:0.35433072;stroke-miterlimit:4;stroke-dasharray:none;stroke-opacity:1"
         d="m 398.90198,829.71412 q 0,-0.75 0.15,-1.395 0.165,-0.645 0.525,-1.14 0.36,-0.51 0.93,-0.855 0.585,-0.345 1.425,-0.51 0.885,-0.03 1.59,-0.06 0.72,-0.03 1.53,-0.03 0.6,0 1.245,0.105 0.645,0.105 1.17,0.375 0.525,0.255 0.855,0.72 0.345,0.45 0.345,1.17 0,0.555 -0.27,0.99 -0.27,0.42 -0.705,0.72 -0.42,0.285 -0.96,0.435 -0.54,0.15 -1.095,0.15 l -4.68,0 q 0.105,0.465 0.48,0.795 0.375,0.33 0.885,0.33 l 6.06,0 q 0,0.36 -0.195,0.675 -0.18,0.315 -0.48,0.555 -0.3,0.225 -0.675,0.36 -0.36,0.12 -0.705,0.12 l -4.395,0 q -0.765,0 -1.335,-0.315 -0.57,-0.315 -0.945,-0.81 -0.375,-0.51 -0.57,-1.125 -0.18,-0.63 -0.18,-1.26 z"
         id="path4310"
         inkscape:connector-curvature="0" />
      <path
         style="font-style:normal;font-variant:normal;font-weight:normal;font-stretch:normal;font-family:FREEDOM;-inkscape-font-specification:FREEDOM;stroke:#ff0000;stroke-width:0.35433072;stroke-miterlimit:4;stroke-dasharray:none;stroke-opacity:1"
         d="m 404.07698,827.38912 q -0.3,0 -0.81,0.015 -0.51,0 -1.02,0.12 -0.51,0.105 -0.885,0.375 -0.36,0.27 -0.36,0.795 l 4.83,0 q 0.105,0 0.3,-0.015 0.195,-0.03 0.39,-0.09 0.195,-0.06 0.33,-0.165 0.15,-0.105 0.15,-0.285 0,-0.21 -0.21,-0.345 -0.195,-0.135 -0.51,-0.21 -0.315,-0.09 -0.675,-0.135 -0.36,-0.045 -0.69,-0.045 -0.33,-0.015 -0.57,-0.015 -0.225,0 -0.27,0 z"
         id="path4308"
         inkscape:connector-curvature="0" />
      <path
         style="font-style:normal;font-variant:normal;font-weight:normal;font-stretch:normal;font-family:FREEDOM;-inkscape-font-specification:FREEDOM;stroke:#ff0000;stroke-width:0.35433072;stroke-miterlimit:4;stroke-dasharray:none;stroke-opacity:1"
         d="m 390.72253,827.79412 q 0,-0.945 0.645,-1.455 0.66,-0.51 1.815,-0.615 l 0.18,0 0,0.54 0.165,0 q 0.375,-0.09 0.705,-0.165 0.33,-0.09 0.645,-0.15 0.33,-0.075 0.675,-0.105 0.36,-0.045 0.78,-0.045 0.27,0 0.465,0 0.195,0 0.375,0.015 0.18,0 0.36,0.03 0.195,0.015 0.435,0.06 0.03,0 0.06,0.015 0.03,0.015 0.075,0.03 0.045,0.03 0.105,0.045 l -0.585,1.71 -0.12,0.09 q -0.18,0 -0.555,0.015 -0.375,0 -0.84,0.045 -0.45,0.03 -0.945,0.12 -0.48,0.075 -0.885,0.225 -0.405,0.135 -0.66,0.36 -0.255,0.21 -0.255,0.51 l 0,2.7 q 0,0.33 -0.255,0.6 -0.24,0.27 -0.6,0.465 -0.36,0.18 -0.78,0.285 -0.42,0.105 -0.765,0.105 l -0.135,0 q 0,-0.21 -0.015,-0.63 0,-0.42 -0.015,-0.945 -0.015,-0.525 -0.03,-1.095 0,-0.585 -0.015,-1.11 -0.015,-0.525 -0.03,-0.93 0,-0.42 0,-0.63 l 0,-0.09 0,0 z"
         id="path4306"
         inkscape:connector-curvature="0" />
      <path
         style="font-style:normal;font-variant:normal;font-weight:normal;font-stretch:normal;font-family:FREEDOM;-inkscape-font-specification:FREEDOM;stroke:#0000ff;stroke-width:0.35433072;stroke-miterlimit:4;stroke-dasharray:none;stroke-opacity:1"
         d="m 373.63769,888.8009 80.61524,0"
         id="path4304"
         inkscape:connector-curvature="0" />
      <path
         style="font-style:normal;font-variant:normal;font-weight:normal;font-stretch:normal;font-family:FREEDOM;-inkscape-font-specification:FREEDOM;stroke:#0000ff;stroke-width:0.35433072;stroke-miterlimit:4;stroke-dasharray:none;stroke-opacity:1"
         d="m 373.63769,888.8009 0,-50.49317"
         id="path4302"
         inkscape:connector-curvature="0" />
      <path
         style="font-style:normal;font-variant:normal;font-weight:normal;font-stretch:normal;font-family:FREEDOM;-inkscape-font-specification:FREEDOM;stroke:#0000ff;stroke-width:0.35433072;stroke-miterlimit:4;stroke-dasharray:none;stroke-opacity:1"
         d="m 373.63769,838.30773 80.61524,0"
         id="path4300"
         inkscape:connector-curvature="0" />
      <path
         style="font-style:normal;font-variant:normal;font-weight:normal;font-stretch:normal;font-family:FREEDOM;-inkscape-font-specification:FREEDOM;stroke:#0000ff;stroke-width:0.35433072;stroke-miterlimit:4;stroke-dasharray:none;stroke-opacity:1"
         d="m 454.25293,888.8009 0,-50.49317"
         id="path4252"
         inkscape:connector-curvature="0" />
    </g>
    <flowRoot
       xml:space="preserve"
       id="flowRoot4489"
       style="font-style:normal;font-weight:normal;font-size:15px;line-height:125%;font-family:sans-serif;text-align:center;letter-spacing:0px;word-spacing:0px;text-anchor:middle;fill:#000000;fill-opacity:1;stroke:none;stroke-width:1px;stroke-linecap:butt;stroke-linejoin:miter;stroke-opacity:1"><flowRegion
         id="flowRegion4491"><rect
           id="rect4493"
           width="60.811184"
           height="31.466251"
           x="330.92596"
           y="282.32291" /></flowRegion><flowPara
         id="flowPara4495" /></flowRoot>    <text
       xml:space="preserve"
       style="font-style:normal;font-weight:normal;font-size:15px;line-height:125%;font-family:sans-serif;text-align:center;letter-spacing:0px;word-spacing:0px;text-anchor:middle;fill:#000000;fill-opacity:1;stroke:#ff0000;stroke-width:0.35433072;stroke-linecap:round;stroke-linejoin:miter;stroke-miterlimit:4;stroke-dasharray:none;stroke-opacity:1"
       x="414.53482"
       y="687.19562"
       id="text4485-1"
       sodipodi:linespacing="125%"><tspan
         sodipodi:role="line"
         id="tspan4487-9"
         x="414.53482"
         y="687.19562"
         style="font-style:normal;font-variant:normal;font-weight:normal;font-stretch:normal;font-family:FREEDOM;-inkscape-font-specification:FREEDOM;stroke:#ff0000;stroke-width:0.35433072;stroke-miterlimit:4;stroke-dasharray:none;stroke-opacity:1">POWER</tspan></text>
    <text
       xml:space="preserve"
       style="font-style:normal;font-weight:normal;font-size:15px;line-height:125%;font-family:sans-serif;text-align:center;letter-spacing:0px;word-spacing:0px;text-anchor:middle;fill:#000000;fill-opacity:1;stroke:#ff0000;stroke-width:0.35433072;stroke-linecap:butt;stroke-linejoin:miter;stroke-miterlimit:4;stroke-dasharray:none;stroke-opacity:1"
       x="208.64163"
       y="791.21869"
       id="text4523"
       sodipodi:linespacing="125%"><tspan
         sodipodi:role="line"
         id="tspan4525"
         x="208.64163"
         y="791.21869"
         style="font-style:normal;font-variant:normal;font-weight:normal;font-stretch:normal;font-size:25px;font-family:FREEDOM;-inkscape-font-specification:FREEDOM;stroke:#ff0000;stroke-width:0.35433072;stroke-miterlimit:4;stroke-dasharray:none;stroke-opacity:1">E.F.I.M STATUS</tspan></text>
    <flowRoot
       xml:space="preserve"
       id="flowRoot4527"
       style="font-style:normal;font-weight:normal;font-size:25px;line-height:125%;font-family:sans-serif;text-align:center;letter-spacing:0px;word-spacing:0px;text-anchor:middle;fill:#000000;fill-opacity:1;stroke:none;stroke-width:1px;stroke-linecap:butt;stroke-linejoin:miter;stroke-opacity:1"><flowRegion
         id="flowRegion4529"><rect
           id="rect4531"
           width="126.92567"
           height="20.506096"
           x="183.84776"
           y="248.38179"
           style="font-size:25px" /></flowRegion><flowPara
         id="flowPara4533" /></flowRoot>    <flowRoot
       xml:space="preserve"
       id="flowRoot4206"
       style="font-style:normal;font-weight:normal;font-size:15px;line-height:125%;font-family:sans-serif;text-align:center;letter-spacing:0px;word-spacing:0px;text-anchor:middle;fill:#000000;fill-opacity:1;stroke:none;stroke-width:1px;stroke-linecap:butt;stroke-linejoin:miter;stroke-opacity:1"><flowRegion
         id="flowRegion4208"><rect
           id="rect4210"
           width="97.5"
           height="77"
           x="418"
           y="164.36223" /></flowRegion><flowPara
         id="flowPara4212" /></flowRoot>  </g>
</svg>
