solid Untitled-54026b6a
facet normal 0.0 0.0 -1.0
  outer loop
    vertex 14.518696225858912 11.839520769654447 0.0
    vertex 4.518696225858913 7.5895207696544436 0.0
    vertex 4.518696225858913 11.839520769654447 0.0
  endloop
endfacet
facet normal 0.0 0.0 -1.0
  outer loop
    vertex 4.518696225858913 7.5895207696544436 0.0
    vertex 14.518696225858912 11.839520769654447 0.0
    vertex 14.518696225858912 7.5895207696544436 0.0
  endloop
endfacet
facet normal 0.0 0.0 -1.0
  outer loop
    vertex 14.518696225858912 7.5895207696544436 0.0
    vertex 4.518696225858913 5.162698004361668 0.0
    vertex 4.518696225858913 7.5895207696544436 0.0
  endloop
endfacet
facet normal 0.0 0.0 -1.0
  outer loop
    vertex 4.518696225858913 5.162698004361668 0.0
    vertex 14.518696225858912 7.5895207696544436 0.0
    vertex 14.518696225858912 5.162698004361669 0.0
  endloop
endfacet
facet normal 0.0 0.0 -1.0
  outer loop
    vertex 14.518696225858912 13.83952076965445 7.0
    vertex 4.518696225858913 11.839520769654447 7.0
    vertex 4.518696225858913 13.839520769654445 7.0
  endloop
endfacet
facet normal 0.0 0.0 -1.0
  outer loop
    vertex 4.518696225858913 11.839520769654447 7.0
    vertex 14.518696225858912 13.83952076965445 7.0
    vertex 14.518696225858912 11.839520769654447 7.0
  endloop
endfacet
facet normal -1.0 -0.0 -0.0
  outer loop
    vertex 14.518696225858912 13.83952076965445 7.0
    vertex 14.518696225858912 11.839520769654447 3.0
    vertex 14.518696225858912 11.839520769654447 7.0
  endloop
endfacet
facet normal -1.0 -0.0 -0.0
  outer loop
    vertex 14.518696225858912 11.839520769654447 3.0
    vertex 14.518696225858912 13.83952076965445 7.0
    vertex 14.518696225858912 11.839520769654447 0.0
  endloop
endfacet
facet normal -1.0 -0.0 -0.0
  outer loop
    vertex 14.518696225858912 11.839520769654447 0.0
    vertex 14.518696225858912 13.83952076965445 7.0
    vertex 14.518696225858912 13.83952076965445 0.0
  endloop
endfacet
facet normal -0.0 -1.0 -0.0
  outer loop
    vertex 14.518696225858912 11.839520769654447 7.0
    vertex 4.518696225858913 11.839520769654447 3.0
    vertex 14.518696225858912 11.839520769654447 3.0
  endloop
endfacet
facet normal -0.0 -1.0 -0.0
  outer loop
    vertex 4.518696225858913 11.839520769654447 3.0
    vertex 14.518696225858912 11.839520769654447 7.0
    vertex 4.518696225858913 11.839520769654447 7.0
  endloop
endfacet
facet normal 1.0 -0.0 -0.0
  outer loop
    vertex 4.518696225858913 13.839520769654445 0.0
    vertex 4.518696225858913 11.839520769654447 3.0
    vertex 4.518696225858913 11.839520769654447 0.0
  endloop
endfacet
facet normal 1.0 -0.0 -0.0
  outer loop
    vertex 4.518696225858913 11.839520769654447 3.0
    vertex 4.518696225858913 13.839520769654445 0.0
    vertex 4.518696225858913 11.839520769654447 7.0
  endloop
endfacet
facet normal 1.0 -0.0 -0.0
  outer loop
    vertex 4.518696225858913 11.839520769654447 7.0
    vertex 4.518696225858913 13.839520769654445 0.0
    vertex 4.518696225858913 13.839520769654445 7.0
  endloop
endfacet
facet normal 5.639932965095795e-16 -1.0 -0.0
  outer loop
    vertex 14.518696225858912 13.83952076965445 7.0
    vertex 4.518696225858913 13.839520769654445 0.0
    vertex 14.518696225858912 13.83952076965445 0.0
  endloop
endfacet
facet normal 5.639932965095795e-16 -1.0 -0.0
  outer loop
    vertex 4.518696225858913 13.839520769654445 0.0
    vertex 14.518696225858912 13.83952076965445 7.0
    vertex 4.518696225858913 13.839520769654445 7.0
  endloop
endfacet
facet normal -0.0 -0.0 1.0
  outer loop
    vertex 14.518696225858912 5.162698004361669 7.0
    vertex 4.518696225858913 7.5895207696544436 7.0
    vertex 4.518696225858913 5.162698004361668 7.0
  endloop
endfacet
facet normal -0.0 -0.0 1.0
  outer loop
    vertex 4.518696225858913 7.5895207696544436 7.0
    vertex 14.518696225858912 5.162698004361669 7.0
    vertex 14.518696225858912 7.5895207696544436 7.0
  endloop
endfacet
facet normal 1.0 -0.0 -0.0
  outer loop
    vertex 14.518696225858912 7.5895207696544436 0.0
    vertex 14.518696225858912 5.162698004361669 7.0
    vertex 14.518696225858912 5.162698004361669 0.0
  endloop
endfacet
facet normal 1.0 -0.0 -0.0
  outer loop
    vertex 14.518696225858912 5.162698004361669 7.0
    vertex 14.518696225858912 7.5895207696544436 0.0
    vertex 14.518696225858912 7.5895207696544436 7.0
  endloop
endfacet
facet normal 1.0 -0.0 -0.0
  outer loop
    vertex 14.518696225858912 7.5895207696544436 7.0
    vertex 14.518696225858912 7.5895207696544436 0.0
    vertex 14.518696225858912 7.5895207696544436 3.0
  endloop
endfacet
facet normal 7.049916206369744e-17 -1.0 0.0
  outer loop
    vertex 14.518696225858912 5.162698004361669 7.0
    vertex 4.518696225858913 5.162698004361668 0.0
    vertex 14.518696225858912 5.162698004361669 0.0
  endloop
endfacet
facet normal 7.049916206369744e-17 -1.0 0.0
  outer loop
    vertex 4.518696225858913 5.162698004361668 0.0
    vertex 14.518696225858912 5.162698004361669 7.0
    vertex 4.518696225858913 5.162698004361668 7.0
  endloop
endfacet
facet normal -1.0 0.0 0.0
  outer loop
    vertex 4.518696225858913 7.5895207696544436 7.0
    vertex 4.518696225858913 5.162698004361668 0.0
    vertex 4.518696225858913 5.162698004361668 7.0
  endloop
endfacet
facet normal -1.0 0.0 0.0
  outer loop
    vertex 4.518696225858913 5.162698004361668 0.0
    vertex 4.518696225858913 7.5895207696544436 7.0
    vertex 4.518696225858913 7.5895207696544436 0.0
  endloop
endfacet
facet normal -1.0 0.0 0.0
  outer loop
    vertex 4.518696225858913 7.5895207696544436 0.0
    vertex 4.518696225858913 7.5895207696544436 7.0
    vertex 4.518696225858913 7.5895207696544436 3.0
  endloop
endfacet
facet normal -0.0 1.0 -0.0
  outer loop
    vertex 4.518696225858913 7.5895207696544436 7.0
    vertex 14.518696225858912 7.5895207696544436 3.0
    vertex 4.518696225858913 7.5895207696544436 3.0
  endloop
endfacet
facet normal -0.0 1.0 -0.0
  outer loop
    vertex 14.518696225858912 7.5895207696544436 3.0
    vertex 4.518696225858913 7.5895207696544436 7.0
    vertex 14.518696225858912 7.5895207696544436 7.0
  endloop
endfacet
facet normal -0.0 -0.0 1.0
  outer loop
    vertex 14.518696225858912 7.5895207696544436 3.0
    vertex 4.518696225858913 11.839520769654447 3.0
    vertex 4.518696225858913 7.5895207696544436 3.0
  endloop
endfacet
facet normal -0.0 -0.0 1.0
  outer loop
    vertex 4.518696225858913 11.839520769654447 3.0
    vertex 14.518696225858912 7.5895207696544436 3.0
    vertex 14.518696225858912 11.839520769654447 3.0
  endloop
endfacet
facet normal 1.0 -0.0 -0.0
  outer loop
    vertex 14.518696225858912 11.839520769654447 0.0
    vertex 14.518696225858912 7.5895207696544436 3.0
    vertex 14.518696225858912 7.5895207696544436 0.0
  endloop
endfacet
facet normal 1.0 -0.0 -0.0
  outer loop
    vertex 14.518696225858912 7.5895207696544436 3.0
    vertex 14.518696225858912 11.839520769654447 0.0
    vertex 14.518696225858912 11.839520769654447 3.0
  endloop
endfacet
facet normal -0.0 1.0 -0.0
  outer loop
    vertex 4.518696225858913 7.5895207696544436 3.0
    vertex 14.518696225858912 7.5895207696544436 0.0
    vertex 4.518696225858913 7.5895207696544436 0.0
  endloop
endfacet
facet normal -0.0 1.0 -0.0
  outer loop
    vertex 14.518696225858912 7.5895207696544436 0.0
    vertex 4.518696225858913 7.5895207696544436 3.0
    vertex 14.518696225858912 7.5895207696544436 3.0
  endloop
endfacet
facet normal -1.0 0.0 0.0
  outer loop
    vertex 4.518696225858913 11.839520769654447 3.0
    vertex 4.518696225858913 7.5895207696544436 0.0
    vertex 4.518696225858913 7.5895207696544436 3.0
  endloop
endfacet
facet normal -1.0 0.0 0.0
  outer loop
    vertex 4.518696225858913 7.5895207696544436 0.0
    vertex 4.518696225858913 11.839520769654447 3.0
    vertex 4.518696225858913 11.839520769654447 0.0
  endloop
endfacet
endsolid Untitled-54026b6a
