solid neo_pixel_strip_holder
facet normal 0.9284766908852594 -4.655289657363445e-18 0.3713906763541035
  outer loop
    vertex 15.960283176563163 59.70277155533386 -1.155655851057533e-15
    vertex 9.960283176563166 5.702771555333867 15.0
    vertex 15.960283176563163 5.702771555333867 5.731158766076752e-17
  endloop
endfacet
facet normal 0.9284766908852594 -4.655289657363445e-18 0.3713906763541035
  outer loop
    vertex 9.960283176563166 5.702771555333867 15.0
    vertex 15.960283176563163 59.70277155533386 -1.155655851057533e-15
    vertex 9.960283176563168 59.70277155533386 15.0
  endloop
endfacet
facet normal 0.590889449699252 -1.0050491620813007e-16 -0.806752538411944
  outer loop
    vertex 0.9602831765631681 59.70277155533386 2.999999999999999
    vertex 1.6111328347972813 5.702771555333867 3.4767015634657095
    vertex 0.960283176563165 5.702771555333867 3.0
  endloop
endfacet
facet normal 0.590889449699252 -1.0050491620813007e-16 -0.806752538411944
  outer loop
    vertex 1.6111328347972813 5.702771555333867 3.4767015634657095
    vertex 0.9602831765631681 59.70277155533386 2.999999999999999
    vertex 1.6111328347972838 59.70277155533386 3.4767015634657072
  endloop
endfacet
facet normal -1.2998252609617224e-33 2.4592730952452597e-17 1.0
  outer loop
    vertex 11.160283176563166 12.702771555333864 1.250000000000004
    vertex 0.9602831765631681 52.70277155533386 1.2499999999999991
    vertex 0.9602831765631663 12.702771555333866 1.250000000000004
  endloop
endfacet
facet normal -1.2998252609617224e-33 2.4592730952452597e-17 1.0
  outer loop
    vertex 0.9602831765631681 52.70277155533386 1.2499999999999991
    vertex 11.160283176563166 12.702771555333864 1.250000000000004
    vertex 11.160283176563162 52.70277155533386 1.2499999999999991
  endloop
endfacet
facet normal -0.0 1.0 -0.0
  outer loop
    vertex 0.9602831765631681 52.70277155533386 1.2499999999999991
    vertex 11.160283176563162 52.70277155533386 0.013046999999999205
    vertex 0.9602831765631681 52.70277155533386 0.013046999999999205
  endloop
endfacet
facet normal -0.0 1.0 -0.0
  outer loop
    vertex 11.160283176563162 52.70277155533386 0.013046999999999205
    vertex 0.9602831765631681 52.70277155533386 1.2499999999999991
    vertex 11.160283176563162 52.70277155533386 1.2499999999999991
  endloop
endfacet
facet normal -0.0 1.0 -0.0
  outer loop
    vertex -0.03971682343683251 59.70277155533386 15.0
    vertex 0.9602831765631681 59.70277155533386 0.013046999999999205
    vertex -4.039716823436833 59.70277155533386 -1.155655851057533e-15
  endloop
endfacet
facet normal -0.0 1.0 -0.0
  outer loop
    vertex 0.9602831765631681 59.70277155533386 0.013046999999999205
    vertex -0.03971682343683251 59.70277155533386 15.0
    vertex 0.9602831765631681 59.70277155533386 2.999999999999999
  endloop
endfacet
facet normal -0.0 1.0 -0.0
  outer loop
    vertex 0.9602831765631681 59.70277155533386 2.999999999999999
    vertex -0.03971682343683251 59.70277155533386 15.0
    vertex 1.6111328347972838 59.70277155533386 3.4767015634657072
  endloop
endfacet
facet normal -0.0 1.0 -0.0
  outer loop
    vertex 1.6111328347972838 59.70277155533386 3.4767015634657072
    vertex -0.03971682343683251 59.70277155533386 15.0
    vertex 3.260283176563167 59.70277155533386 9.452242728962162
  endloop
endfacet
facet normal -0.0 1.0 -0.0
  outer loop
    vertex 3.260283176563167 59.70277155533386 9.452242728962162
    vertex -0.03971682343683251 59.70277155533386 15.0
    vertex 3.260283176563168 59.70277155533386 15.0
  endloop
endfacet
facet normal -0.0 -0.0 1.0
  outer loop
    vertex 9.960283176563166 5.702771555333867 15.0
    vertex 6.6602831765631665 59.70277155533386 15.0
    vertex 6.6602831765631665 5.702771555333867 15.0
  endloop
endfacet
facet normal -0.0 -0.0 1.0
  outer loop
    vertex 6.6602831765631665 59.70277155533386 15.0
    vertex 9.960283176563166 5.702771555333867 15.0
    vertex 9.960283176563168 59.70277155533386 15.0
  endloop
endfacet
facet normal -0.0 1.0 -0.0
  outer loop
    vertex 15.960283176563163 59.70277155533386 -1.155655851057533e-15
    vertex 11.16028317656316 59.70277155533386 2.999999999999999
    vertex 9.960283176563168 59.70277155533386 15.0
  endloop
endfacet
facet normal -0.0 1.0 -0.0
  outer loop
    vertex 11.16028317656316 59.70277155533386 2.999999999999999
    vertex 15.960283176563163 59.70277155533386 -1.155655851057533e-15
    vertex 11.160283176563162 59.70277155533386 1.2471636118012883
  endloop
endfacet
facet normal -0.0 1.0 -0.0
  outer loop
    vertex 11.160283176563162 59.70277155533386 1.2471636118012883
    vertex 15.960283176563163 59.70277155533386 -1.155655851057533e-15
    vertex 11.160283176563162 59.70277155533386 0.013046999999999205
  endloop
endfacet
facet normal -0.0 1.0 -0.0
  outer loop
    vertex 9.960283176563168 59.70277155533386 15.0
    vertex 11.16028317656316 59.70277155533386 2.999999999999999
    vertex 10.642891045741596 59.70277155533386 3.422494317564984
  endloop
endfacet
facet normal -0.0 1.0 -0.0
  outer loop
    vertex 9.960283176563168 59.70277155533386 15.0
    vertex 10.642891045741596 59.70277155533386 3.422494317564984
    vertex 6.6602831765631665 59.70277155533386 9.452242728962162
  endloop
endfacet
facet normal -0.0 1.0 -0.0
  outer loop
    vertex 9.960283176563168 59.70277155533386 15.0
    vertex 6.6602831765631665 59.70277155533386 9.452242728962162
    vertex 6.6602831765631665 59.70277155533386 15.0
  endloop
endfacet
facet normal 0.9639626221248142 -8.163680544512467e-17 -0.26603771000791004
  outer loop
    vertex 1.6111328347972838 59.70277155533386 3.4767015634657072
    vertex 3.2602831765631657 5.702771555333867 9.452242728962165
    vertex 1.6111328347972813 5.702771555333867 3.4767015634657095
  endloop
endfacet
facet normal 0.9639626221248142 -8.163680544512467e-17 -0.26603771000791004
  outer loop
    vertex 3.2602831765631657 5.702771555333867 9.452242728962165
    vertex 1.6111328347972838 59.70277155533386 3.4767015634657072
    vertex 3.260283176563167 59.70277155533386 9.452242728962162
  endloop
endfacet
facet normal -0.6324963214307971 -3.8949620305228586e-17 -0.7745633630481822
  outer loop
    vertex 11.16028317656316 59.70277155533386 2.999999999999999
    vertex 10.642891045741596 5.702771555333867 3.4224943175649867
    vertex 10.642891045741596 59.70277155533386 3.422494317564984
  endloop
endfacet
facet normal -0.6324963214307971 -3.8949620305228586e-17 -0.7745633630481822
  outer loop
    vertex 10.642891045741596 5.702771555333867 3.4224943175649867
    vertex 11.16028317656316 59.70277155533386 2.999999999999999
    vertex 11.16028317656316 57.713247987767026 2.9999999999999987
  endloop
endfacet
facet normal -0.6324963214307971 -3.8949620305228586e-17 -0.7745633630481822
  outer loop
    vertex 10.642891045741596 5.702771555333867 3.4224943175649867
    vertex 11.16028317656316 57.713247987767026 2.9999999999999987
    vertex 11.160283176563162 5.702771555333867 3.0
  endloop
endfacet
facet normal 0.007702520504578513 -0.001282638269949658 -0.99996951254373
  outer loop
    vertex 11.160283176563162 57.71893575238547 0.01559162130118776
    vertex 10.552397870721265 58.49961817929002 0.009907865827837177
    vertex 11.160283176563162 59.70277155533386 0.013046999999999205
  endloop
endfacet
facet normal -0.8365058848861849 -0.5448183806459913 0.05857334428782904
  outer loop
    vertex 10.589552854935048 58.56131091207763 2.737440233213893
    vertex 10.552008936359343 58.48622307492622 1.5028352511601655
    vertex 11.16028317656316 57.713247987767026 2.9999999999999987
  endloop
endfacet
facet normal 1.3808541626402913e-16 -1.0 1.214773920285498e-16
  outer loop
    vertex 15.960283176563163 5.702771555333867 5.731158766076752e-17
    vertex 11.160283176563164 5.7027715553338645 1.2500000000000002
    vertex 11.160283176563164 5.702771555333866 2.865579383038376e-17
  endloop
endfacet
facet normal 1.3808541626402913e-16 -1.0 1.214773920285498e-16
  outer loop
    vertex 11.160283176563164 5.7027715553338645 1.2500000000000002
    vertex 15.960283176563163 5.702771555333867 5.731158766076752e-17
    vertex 11.160283176563162 5.702771555333867 3.0
  endloop
endfacet
facet normal 1.3808541626402913e-16 -1.0 1.214773920285498e-16
  outer loop
    vertex 11.160283176563162 5.702771555333867 3.0
    vertex 15.960283176563163 5.702771555333867 5.731158766076752e-17
    vertex 9.960283176563166 5.702771555333867 15.0
  endloop
endfacet
facet normal 1.3808541626402913e-16 -1.0 1.214773920285498e-16
  outer loop
    vertex 11.160283176563162 5.702771555333867 3.0
    vertex 9.960283176563166 5.702771555333867 15.0
    vertex 10.642891045741596 5.702771555333867 3.4224943175649867
  endloop
endfacet
facet normal 1.3808541626402913e-16 -1.0 1.214773920285498e-16
  outer loop
    vertex 10.642891045741596 5.702771555333867 3.4224943175649867
    vertex 9.960283176563166 5.702771555333867 15.0
    vertex 6.6602831765631665 5.702771555333867 9.452242728962164
  endloop
endfacet
facet normal 1.3808541626402913e-16 -1.0 1.214773920285498e-16
  outer loop
    vertex 6.6602831765631665 5.702771555333867 9.452242728962164
    vertex 9.960283176563166 5.702771555333867 15.0
    vertex 6.6602831765631665 5.702771555333867 15.0
  endloop
endfacet
facet normal 1.0 -6.582620943051594e-17 6.218185765766939e-17
  outer loop
    vertex 0.9602831765631681 59.70277155533386 0.013046999999999205
    vertex 0.9602831765631681 52.70277155533386 1.2499999999999991
    vertex 0.9602831765631681 52.70277155533386 0.013046999999999205
  endloop
endfacet
facet normal 1.0 -6.582620943051594e-17 6.218185765766939e-17
  outer loop
    vertex 0.9602831765631663 12.702771555333866 1.250000000000004
    vertex 0.960283176563165 5.702771555333867 3.0
    vertex 0.960283176563165 5.702771555333867 1.2500000000000002
  endloop
endfacet
facet normal 1.0 -6.582620943051594e-17 6.218185765766939e-17
  outer loop
    vertex 0.960283176563165 5.702771555333867 3.0
    vertex 0.9602831765631663 12.702771555333866 1.250000000000004
    vertex 0.9602831765631681 59.70277155533386 2.999999999999999
  endloop
endfacet
facet normal 1.0 -6.582620943051594e-17 6.218185765766939e-17
  outer loop
    vertex 0.9602831765631681 59.70277155533386 2.999999999999999
    vertex 0.9602831765631663 12.702771555333866 1.250000000000004
    vertex 0.9602831765631681 52.70277155533386 1.2499999999999991
  endloop
endfacet
facet normal 1.0 -6.582620943051594e-17 6.218185765766939e-17
  outer loop
    vertex 0.9602831765631681 59.70277155533386 2.999999999999999
    vertex 0.9602831765631681 52.70277155533386 1.2499999999999991
    vertex 0.9602831765631681 59.70277155533386 0.013046999999999205
  endloop
endfacet
facet normal -1.0 -1.0071308866242494e-16 0.0
  outer loop
    vertex 6.6602831765631665 59.70277155533386 15.0
    vertex 6.6602831765631665 5.702771555333867 9.452242728962164
    vertex 6.6602831765631665 5.702771555333867 15.0
  endloop
endfacet
facet normal -1.0 -1.0071308866242494e-16 0.0
  outer loop
    vertex 6.6602831765631665 5.702771555333867 9.452242728962164
    vertex 6.6602831765631665 59.70277155533386 15.0
    vertex 6.6602831765631665 59.70277155533386 9.452242728962162
  endloop
endfacet
facet normal -0.8344201556360058 -1.3611456162115348e-16 -0.5511288450701743
  outer loop
    vertex 6.6602831765631665 59.70277155533386 9.452242728962162
    vertex 10.642891045741596 5.702771555333867 3.4224943175649867
    vertex 6.6602831765631665 5.702771555333867 9.452242728962164
  endloop
endfacet
facet normal -0.8344201556360058 -1.3611456162115348e-16 -0.5511288450701743
  outer loop
    vertex 10.642891045741596 5.702771555333867 3.4224943175649867
    vertex 6.6602831765631665 59.70277155533386 9.452242728962162
    vertex 10.642891045741596 59.70277155533386 3.422494317564984
  endloop
endfacet
facet normal -0.9662349396012463 3.483502234025314e-17 0.2576626505603324
  outer loop
    vertex -0.03971682343683251 59.70277155533386 15.0
    vertex -4.039716823436835 5.702771555333867 5.731158766076752e-17
    vertex -0.039716823436834345 5.702771555333867 15.0
  endloop
endfacet
facet normal -0.9662349396012463 3.483502234025314e-17 0.2576626505603324
  outer loop
    vertex -4.039716823436835 5.702771555333867 5.731158766076752e-17
    vertex -0.03971682343683251 59.70277155533386 15.0
    vertex -4.039716823436833 59.70277155533386 -1.155655851057533e-15
  endloop
endfacet
facet normal 1.0 -5.035654433121247e-17 -3.296030418002079e-32
  outer loop
    vertex 3.260283176563167 59.70277155533386 9.452242728962162
    vertex 3.260283176563165 5.702771555333867 15.0
    vertex 3.2602831765631657 5.702771555333867 9.452242728962165
  endloop
endfacet
facet normal 1.0 -5.035654433121247e-17 -3.296030418002079e-32
  outer loop
    vertex 3.260283176563165 5.702771555333867 15.0
    vertex 3.260283176563167 59.70277155533386 9.452242728962162
    vertex 3.260283176563168 59.70277155533386 15.0
  endloop
endfacet
facet normal -1.0 -3.101080415140641e-17 -4.975957552394315e-16
  outer loop
    vertex 11.160283176563162 5.702771555333867 3.0
    vertex 11.160283176563166 12.702771555333864 1.250000000000004
    vertex 11.160283176563164 5.7027715553338645 1.2500000000000002
  endloop
endfacet
facet normal -1.0 -3.101080415140641e-17 -4.975957552394315e-16
  outer loop
    vertex 11.160283176563166 12.702771555333864 1.250000000000004
    vertex 11.160283176563162 5.702771555333867 3.0
    vertex 11.16028317656316 57.713247987767026 2.9999999999999987
  endloop
endfacet
facet normal -1.0 -3.101080415140641e-17 -4.975957552394315e-16
  outer loop
    vertex 11.160283176563166 12.702771555333864 1.250000000000004
    vertex 11.16028317656316 57.713247987767026 2.9999999999999987
    vertex 11.160283176563162 52.70277155533386 1.2499999999999991
  endloop
endfacet
facet normal -1.0 -3.101080415140641e-17 -4.975957552394315e-16
  outer loop
    vertex 11.160283176563162 52.70277155533386 1.2499999999999991
    vertex 11.16028317656316 57.713247987767026 2.9999999999999987
    vertex 11.160283176563162 52.70277155533386 0.013046999999999205
  endloop
endfacet
facet normal -1.0 -3.101080415140641e-17 -4.975957552394315e-16
  outer loop
    vertex 11.160283176563162 52.70277155533386 0.013046999999999205
    vertex 11.16028317656316 57.713247987767026 2.9999999999999987
    vertex 11.160283176563162 57.70756022314859 1.2378566868489933
  endloop
endfacet
facet normal -1.0 -3.101080415140641e-17 -4.975957552394315e-16
  outer loop
    vertex 11.160283176563162 57.71893575238547 0.01559162130118776
    vertex 11.160283176563162 52.70277155533386 0.013046999999999205
    vertex 11.160283176563162 57.70756022314859 1.2378566868489933
  endloop
endfacet
facet normal -0.7889821117393536 -0.6143895595994086 -0.0057180775226744465
  outer loop
    vertex 10.552008936359343 58.48622307492622 1.5028352511601655
    vertex 11.160283176563162 57.71893575238547 0.01559162130118776
    vertex 11.160283176563162 57.70756022314859 1.2378566868489933
  endloop
endfacet
facet normal -0.7889821117393536 -0.6143895595994086 -0.0057180775226744465
  outer loop
    vertex 11.160283176563162 57.71893575238547 0.01559162130118776
    vertex 10.552008936359343 58.48622307492622 1.5028352511601655
    vertex 10.552397870721265 58.49961817929002 0.009907865827837177
  endloop
endfacet
facet normal -0.8944271909999159 0.44721359549995804 5.2987778936548175e-16
  outer loop
    vertex 10.589552854935048 58.56131091207763 2.737440233213893
    vertex 11.160283176563162 59.70277155533386 1.2471636118012883
    vertex 10.552008936359343 58.48622307492622 1.5028352511601655
  endloop
endfacet
facet normal -0.8944271909999159 0.44721359549995804 5.2987778936548175e-16
  outer loop
    vertex 11.160283176563162 59.70277155533386 1.2471636118012883
    vertex 10.589552854935048 58.56131091207763 2.737440233213893
    vertex 11.16028317656316 59.70277155533386 2.999999999999999
  endloop
endfacet
facet normal -2.0735047665793365e-16 -1.0 -5.639932965095794e-16
  outer loop
    vertex 11.160283176563166 12.702771555333864 1.250000000000004
    vertex 0.9602831765631663 12.702771555333866 4.005264663227823e-15
    vertex 11.160283176563166 12.702771555333866 3.9766088693974396e-15
  endloop
endfacet
facet normal -2.0735047665793365e-16 -1.0 -5.639932965095794e-16
  outer loop
    vertex 0.9602831765631663 12.702771555333866 4.005264663227823e-15
    vertex 11.160283176563166 12.702771555333864 1.250000000000004
    vertex 0.9602831765631663 12.702771555333866 1.250000000000004
  endloop
endfacet
facet normal -0.7877219912699568 -0.6160276867091234 0.0019883856518882028
  outer loop
    vertex 10.552008936359343 58.48622307492622 1.5028352511601655
    vertex 11.160283176563162 57.70756022314859 1.2378566868489933
    vertex 11.16028317656316 57.713247987767026 2.9999999999999987
  endloop
endfacet
facet normal -0.41793690074145873 -1.6448197975986625e-16 0.9084760574713151
  outer loop
    vertex 11.16028317656316 59.70277155533386 2.999999999999999
    vertex 10.589552854935048 58.56131091207763 2.737440233213893
    vertex 11.16028317656316 57.713247987767026 2.9999999999999987
  endloop
endfacet
facet normal -0.0 -0.0 1.0
  outer loop
    vertex 3.260283176563165 5.702771555333867 15.0
    vertex -0.03971682343683251 59.70277155533386 15.0
    vertex -0.039716823436834345 5.702771555333867 15.0
  endloop
endfacet
facet normal -0.0 -0.0 1.0
  outer loop
    vertex -0.03971682343683251 59.70277155533386 15.0
    vertex 3.260283176563165 5.702771555333867 15.0
    vertex 3.260283176563168 59.70277155533386 15.0
  endloop
endfacet
facet normal -0.8934009353449973 0.44925458445415106 0.002255453748589349
  outer loop
    vertex 11.160283176563162 59.70277155533386 1.2471636118012883
    vertex 10.552397870721265 58.49961817929002 0.009907865827837177
    vertex 10.552008936359343 58.48622307492622 1.5028352511601655
  endloop
endfacet
facet normal -0.8934009353449973 0.44925458445415106 0.002255453748589349
  outer loop
    vertex 10.552397870721265 58.49961817929002 0.009907865827837177
    vertex 11.160283176563162 59.70277155533386 1.2471636118012883
    vertex 11.160283176563162 59.70277155533386 0.013046999999999205
  endloop
endfacet
facet normal 1.0 -2.0735047665793365e-16 -0.0
  outer loop
    vertex 0.9602831765631663 12.702771555333866 4.005264663227823e-15
    vertex 0.960283176563165 5.702771555333867 1.2500000000000002
    vertex 0.960283176563165 5.702771555333867 5.731158766076752e-17
  endloop
endfacet
facet normal 1.0 -2.0735047665793365e-16 -0.0
  outer loop
    vertex 0.960283176563165 5.702771555333867 1.2500000000000002
    vertex 0.9602831765631663 12.702771555333866 4.005264663227823e-15
    vertex 0.9602831765631663 12.702771555333866 1.250000000000004
  endloop
endfacet
facet normal 0.0 -1.0 0.0
  outer loop
    vertex 0.960283176563165 5.702771555333867 1.2500000000000002
    vertex -4.039716823436835 5.702771555333867 5.731158766076752e-17
    vertex 0.960283176563165 5.702771555333867 5.731158766076752e-17
  endloop
endfacet
facet normal 0.0 -1.0 0.0
  outer loop
    vertex -4.039716823436835 5.702771555333867 5.731158766076752e-17
    vertex 0.960283176563165 5.702771555333867 1.2500000000000002
    vertex -0.039716823436834345 5.702771555333867 15.0
  endloop
endfacet
facet normal 0.0 -1.0 0.0
  outer loop
    vertex -0.039716823436834345 5.702771555333867 15.0
    vertex 0.960283176563165 5.702771555333867 1.2500000000000002
    vertex 0.960283176563165 5.702771555333867 3.0
  endloop
endfacet
facet normal 0.0 -1.0 0.0
  outer loop
    vertex -0.039716823436834345 5.702771555333867 15.0
    vertex 0.960283176563165 5.702771555333867 3.0
    vertex 1.6111328347972813 5.702771555333867 3.4767015634657095
  endloop
endfacet
facet normal 0.0 -1.0 0.0
  outer loop
    vertex -0.039716823436834345 5.702771555333867 15.0
    vertex 1.6111328347972813 5.702771555333867 3.4767015634657095
    vertex 3.2602831765631657 5.702771555333867 9.452242728962165
  endloop
endfacet
facet normal 0.0 -1.0 0.0
  outer loop
    vertex -0.039716823436834345 5.702771555333867 15.0
    vertex 3.2602831765631657 5.702771555333867 9.452242728962165
    vertex 3.260283176563165 5.702771555333867 15.0
  endloop
endfacet
facet normal 6.269164709959879e-05 0.00017544939759335886 -0.9999999826436331
  outer loop
    vertex 15.960283176563163 59.70277155533386 -1.155655851057533e-15
    vertex 11.160283176563162 57.71893575238547 0.01559162130118776
    vertex 11.160283176563162 59.70277155533386 0.013046999999999205
  endloop
endfacet
facet normal 6.269164709959879e-05 0.00017544939759335886 -0.9999999826436331
  outer loop
    vertex 11.160283176563162 57.71893575238547 0.01559162130118776
    vertex 15.960283176563163 59.70277155533386 -1.155655851057533e-15
    vertex 11.160283176563162 52.70277155533386 0.013046999999999205
  endloop
endfacet
facet normal 6.269164709959879e-05 0.00017544939759335886 -0.9999999826436331
  outer loop
    vertex 11.160283176563162 52.70277155533386 0.013046999999999205
    vertex 15.960283176563163 59.70277155533386 -1.155655851057533e-15
    vertex 11.160283176563166 12.702771555333866 3.9766088693974396e-15
  endloop
endfacet
facet normal 6.269164709959879e-05 0.00017544939759335886 -0.9999999826436331
  outer loop
    vertex 11.160283176563166 12.702771555333866 3.9766088693974396e-15
    vertex 15.960283176563163 5.702771555333867 5.731158766076752e-17
    vertex 11.160283176563164 5.702771555333866 2.865579383038376e-17
  endloop
endfacet
facet normal 6.269164709959879e-05 0.00017544939759335886 -0.9999999826436331
  outer loop
    vertex 15.960283176563163 5.702771555333867 5.731158766076752e-17
    vertex 11.160283176563166 12.702771555333866 3.9766088693974396e-15
    vertex 15.960283176563163 59.70277155533386 -1.155655851057533e-15
  endloop
endfacet
facet normal 6.269164709959879e-05 0.00017544939759335886 -0.9999999826436331
  outer loop
    vertex -4.039716823436833 59.70277155533386 -1.155655851057533e-15
    vertex 0.960283176563165 5.702771555333867 5.731158766076752e-17
    vertex -4.039716823436835 5.702771555333867 5.731158766076752e-17
  endloop
endfacet
facet normal 6.269164709959879e-05 0.00017544939759335886 -0.9999999826436331
  outer loop
    vertex 0.960283176563165 5.702771555333867 5.731158766076752e-17
    vertex -4.039716823436833 59.70277155533386 -1.155655851057533e-15
    vertex 0.9602831765631681 59.70277155533386 0.013046999999999205
  endloop
endfacet
facet normal 6.269164709959879e-05 0.00017544939759335886 -0.9999999826436331
  outer loop
    vertex 0.960283176563165 5.702771555333867 5.731158766076752e-17
    vertex 0.9602831765631681 59.70277155533386 0.013046999999999205
    vertex 0.9602831765631663 12.702771555333866 4.005264663227823e-15
  endloop
endfacet
facet normal 6.269164709959879e-05 0.00017544939759335886 -0.9999999826436331
  outer loop
    vertex 0.9602831765631663 12.702771555333866 4.005264663227823e-15
    vertex 0.9602831765631681 59.70277155533386 0.013046999999999205
    vertex 0.9602831765631681 52.70277155533386 0.013046999999999205
  endloop
endfacet
facet normal 6.269164709959879e-05 0.00017544939759335886 -0.9999999826436331
  outer loop
    vertex 0.9602831765631663 12.702771555333866 4.005264663227823e-15
    vertex 0.9602831765631681 52.70277155533386 0.013046999999999205
    vertex 11.160283176563166 12.702771555333866 3.9766088693974396e-15
  endloop
endfacet
facet normal 6.269164709959879e-05 0.00017544939759335886 -0.9999999826436331
  outer loop
    vertex 11.160283176563166 12.702771555333866 3.9766088693974396e-15
    vertex 0.9602831765631681 52.70277155533386 0.013046999999999205
    vertex 11.160283176563162 52.70277155533386 0.013046999999999205
  endloop
endfacet
facet normal -1.0 2.0735047665793365e-16 2.338885577262812e-31
  outer loop
    vertex 11.160283176563166 12.702771555333864 1.250000000000004
    vertex 11.160283176563164 5.702771555333866 2.865579383038376e-17
    vertex 11.160283176563164 5.7027715553338645 1.2500000000000002
  endloop
endfacet
facet normal -1.0 2.0735047665793365e-16 2.338885577262812e-31
  outer loop
    vertex 11.160283176563164 5.702771555333866 2.865579383038376e-17
    vertex 11.160283176563166 12.702771555333864 1.250000000000004
    vertex 11.160283176563166 12.702771555333866 3.9766088693974396e-15
  endloop
endfacet
endsolid neo_pixel_strip_holder
