solid uno_slide_holder - uno_slide_holder (repaired)
 facet normal -0.000194 -0.000056 -1.000000
  outer loop
   vertex 81.682304 -309.348236 0.008521
   vertex 87.676262 -317.838104 0.007831
   vertex 81.683762 -384.337799 0.012684
  endloop
 endfacet
 facet normal -0.000097 0.000013 -1.000000
  outer loop
   vertex 87.676262 -317.838104 0.007831
   vertex 81.682304 -309.348236 0.008521
   vertex 87.727280 -317.449860 0.007831
  endloop
 endfacet
 facet normal -0.000074 0.000030 -1.000000
  outer loop
   vertex 87.727280 -317.449860 0.007831
   vertex 81.682304 -309.348236 0.008521
   vertex 87.877037 -317.088043 0.007831
  endloop
 endfacet
 facet normal -0.000057 0.000044 -1.000000
  outer loop
   vertex 87.877037 -317.088043 0.007831
   vertex 81.682304 -309.348236 0.008521
   vertex 88.115334 -316.777313 0.007831
  endloop
 endfacet
 facet normal -0.000043 0.000056 -1.000000
  outer loop
   vertex 88.115334 -316.777313 0.007831
   vertex 81.682304 -309.348236 0.008521
   vertex 88.425934 -316.538879 0.007831
  endloop
 endfacet
 facet normal -0.000029 0.000069 -1.000000
  outer loop
   vertex 88.425934 -316.538879 0.007831
   vertex 81.682304 -309.348236 0.008521
   vertex 88.787666 -316.388916 0.007831
  endloop
 endfacet
 facet normal -0.000145 -0.000048 -1.000000
  outer loop
   vertex 88.787666 -316.388916 0.007831
   vertex 81.682304 -309.348236 0.008521
   vertex 140.655380 -309.348236 -0.000003
  endloop
 endfacet
 facet normal 0.005187 -0.039325 -0.999213
  outer loop
   vertex 88.787666 -316.388916 0.007831
   vertex 140.655380 -309.348236 -0.000003
   vertex 89.175888 -316.337708 0.007831
  endloop
 endfacet
 facet normal -0.000075 -0.000570 -1.000000
  outer loop
   vertex 89.175888 -316.337708 0.007831
   vertex 140.655380 -309.348236 -0.000003
   vertex 89.564125 -316.388733 0.007831
  endloop
 endfacet
 facet normal -0.000115 -0.000278 -1.000000
  outer loop
   vertex 89.564125 -316.388733 0.007831
   vertex 140.655380 -309.348236 -0.000003
   vertex 89.925934 -316.538483 0.007831
  endloop
 endfacet
 facet normal -0.000130 -0.000170 -1.000000
  outer loop
   vertex 89.925934 -316.538483 0.007831
   vertex 140.655380 -309.348236 -0.000003
   vertex 90.236656 -316.776794 0.007831
  endloop
 endfacet
 facet normal -0.000140 -0.000107 -1.000000
  outer loop
   vertex 90.236656 -316.776794 0.007831
   vertex 140.655380 -309.348236 -0.000003
   vertex 90.475113 -317.087402 0.007831
  endloop
 endfacet
 facet normal -0.000147 -0.000061 -1.000000
  outer loop
   vertex 90.475113 -317.087402 0.007831
   vertex 140.655380 -309.348236 -0.000003
   vertex 90.625053 -317.449127 0.007831
  endloop
 endfacet
 facet normal -0.000153 -0.000020 -1.000000
  outer loop
   vertex 90.625053 -317.449127 0.007831
   vertex 140.655380 -309.348236 -0.000003
   vertex 90.676262 -317.837341 0.007831
  endloop
 endfacet
 facet normal -0.000110 -0.000276 -1.000000
  outer loop
   vertex 90.676262 -317.837341 0.007831
   vertex 140.655380 -309.348236 -0.000003
   vertex 134.176117 -321.837769 0.004156
  endloop
 endfacet
 facet normal -0.000642 0.000000 -1.000000
  outer loop
   vertex 134.176117 -321.837769 0.004156
   vertex 140.655380 -309.348236 -0.000003
   vertex 134.176270 -376.337708 0.004156
  endloop
 endfacet
 facet normal -0.006930 0.000608 -0.999976
  outer loop
   vertex 134.176270 -376.337708 0.004156
   vertex 140.655380 -309.348236 -0.000003
   vertex 134.216187 -379.277039 0.002092
  endloop
 endfacet
 facet normal -0.000035 -0.000027 -1.000000
  outer loop
   vertex 134.216187 -379.277039 0.002092
   vertex 140.655380 -309.348236 -0.000003
   vertex 134.454559 -379.587677 0.002092
  endloop
 endfacet
 facet normal -0.000059 -0.000025 -1.000000
  outer loop
   vertex 134.454559 -379.587677 0.002092
   vertex 140.655380 -309.348236 -0.000003
   vertex 134.604416 -379.949463 0.002092
  endloop
 endfacet
 facet normal -0.000137 -0.000018 -1.000000
  outer loop
   vertex 134.604416 -379.949463 0.002092
   vertex 140.655380 -309.348236 -0.000003
   vertex 134.655533 -380.337677 0.002092
  endloop
 endfacet
 facet normal -0.000145 -0.000954 -1.000000
  outer loop
   vertex 81.683762 -384.337799 0.012684
   vertex 88.176117 -376.337646 0.004115
   vertex 140.676117 -384.337769 0.004156
  endloop
 endfacet
 facet normal -0.001384 0.000052 -0.999999
  outer loop
   vertex 88.176117 -376.337646 0.004115
   vertex 81.683762 -384.337799 0.012684
   vertex 87.676262 -317.838104 0.007831
  endloop
 endfacet
 facet normal 0.000515 0.000068 -1.000000
  outer loop
   vertex 88.176117 -376.337646 0.004115
   vertex 87.676262 -317.838104 0.007831
   vertex 87.727470 -318.226318 0.007831
  endloop
 endfacet
 facet normal 0.000157 0.000065 -1.000000
  outer loop
   vertex 88.176117 -376.337646 0.004115
   vertex 87.727470 -318.226318 0.007831
   vertex 87.877411 -318.588043 0.007831
  endloop
 endfacet
 facet normal 0.000084 0.000065 -1.000000
  outer loop
   vertex 88.176117 -376.337646 0.004115
   vertex 87.877411 -318.588043 0.007831
   vertex 88.115868 -318.898651 0.007831
  endloop
 endfacet
 facet normal -0.060842 0.000001 -0.998147
  outer loop
   vertex 88.176117 -376.337646 0.004115
   vertex 88.115868 -318.898651 0.007831
   vertex 88.176117 -321.837769 0.004156
  endloop
 endfacet
 facet normal -0.000232 -0.001529 -0.999999
  outer loop
   vertex 140.676117 -384.337769 0.004156
   vertex 88.176117 -376.337646 0.004115
   vertex 132.767303 -381.786591 0.002092
  endloop
 endfacet
 facet normal -0.000064 -0.000155 -1.000000
  outer loop
   vertex 132.767303 -381.786591 0.002092
   vertex 88.176117 -376.337646 0.004115
   vertex 132.405533 -381.636719 0.002092
  endloop
 endfacet
 facet normal -0.000054 -0.000071 -1.000000
  outer loop
   vertex 132.405533 -381.636719 0.002092
   vertex 88.176117 -376.337646 0.004115
   vertex 132.094864 -381.398346 0.002092
  endloop
 endfacet
 facet normal -0.000051 -0.000039 -1.000000
  outer loop
   vertex 132.094864 -381.398346 0.002092
   vertex 88.176117 -376.337646 0.004115
   vertex 131.856491 -381.087677 0.002092
  endloop
 endfacet
 facet normal -0.000049 -0.000020 -1.000000
  outer loop
   vertex 131.856491 -381.087677 0.002092
   vertex 88.176117 -376.337646 0.004115
   vertex 131.706635 -380.725922 0.002092
  endloop
 endfacet
 facet normal -0.000047 -0.000006 -1.000000
  outer loop
   vertex 131.706635 -380.725922 0.002092
   vertex 88.176117 -376.337646 0.004115
   vertex 131.655533 -380.337677 0.002092
  endloop
 endfacet
 facet normal -0.000180 -0.001367 -0.999999
  outer loop
   vertex 140.676117 -384.337769 0.004156
   vertex 132.767303 -381.786591 0.002092
   vertex 133.155533 -381.837677 0.002092
  endloop
 endfacet
 facet normal 0.000078 -0.000592 -1.000000
  outer loop
   vertex 140.676117 -384.337769 0.004156
   vertex 133.155533 -381.837677 0.002092
   vertex 133.543762 -381.786591 0.002092
  endloop
 endfacet
 facet normal 0.000155 -0.000375 -1.000000
  outer loop
   vertex 140.676117 -384.337769 0.004156
   vertex 133.543762 -381.786591 0.002092
   vertex 133.905533 -381.636719 0.002092
  endloop
 endfacet
 facet normal 0.000201 -0.000261 -1.000000
  outer loop
   vertex 140.676117 -384.337769 0.004156
   vertex 133.905533 -381.636719 0.002092
   vertex 134.216187 -381.398346 0.002092
  endloop
 endfacet
 facet normal 0.000237 -0.000182 -1.000000
  outer loop
   vertex 140.676117 -384.337769 0.004156
   vertex 134.216187 -381.398346 0.002092
   vertex 134.454559 -381.087677 0.002092
  endloop
 endfacet
 facet normal 0.000273 -0.000113 -1.000000
  outer loop
   vertex 140.676117 -384.337769 0.004156
   vertex 134.454559 -381.087677 0.002092
   vertex 134.604416 -380.725922 0.002092
  endloop
 endfacet
 facet normal 0.000315 -0.000042 -1.000000
  outer loop
   vertex 140.676117 -384.337769 0.004156
   vertex 134.604416 -380.725922 0.002092
   vertex 134.655533 -380.337677 0.002092
  endloop
 endfacet
 facet normal 0.000306 -0.000055 -1.000000
  outer loop
   vertex 140.676117 -384.337769 0.004156
   vertex 134.655533 -380.337677 0.002092
   vertex 140.655380 -309.348236 -0.000003
  endloop
 endfacet
 facet normal -0.000046 0.000006 -1.000000
  outer loop
   vertex 88.176117 -376.337646 0.004115
   vertex 131.706635 -379.949463 0.002092
   vertex 131.655533 -380.337677 0.002092
  endloop
 endfacet
 facet normal -0.000045 0.000019 -1.000000
  outer loop
   vertex 131.706635 -379.949463 0.002092
   vertex 88.176117 -376.337646 0.004115
   vertex 131.856491 -379.587677 0.002092
  endloop
 endfacet
 facet normal 0.000001 0.000635 -1.000000
  outer loop
   vertex 131.856491 -379.587677 0.002092
   vertex 88.176117 -376.337646 0.004115
   vertex 134.176270 -376.337708 0.004156
  endloop
 endfacet
 facet normal -0.011853 0.009096 -0.999888
  outer loop
   vertex 131.856491 -379.587677 0.002092
   vertex 134.176270 -376.337708 0.004156
   vertex 132.094864 -379.277039 0.002092
  endloop
 endfacet
 facet normal -0.001180 0.001538 -0.999998
  outer loop
   vertex 132.094864 -379.277039 0.002092
   vertex 134.176270 -376.337708 0.004156
   vertex 132.405533 -379.038666 0.002092
  endloop
 endfacet
 facet normal -0.000435 0.001049 -0.999999
  outer loop
   vertex 132.405533 -379.038666 0.002092
   vertex 134.176270 -376.337708 0.004156
   vertex 132.767303 -378.888794 0.002092
  endloop
 endfacet
 facet normal -0.000115 0.000873 -1.000000
  outer loop
   vertex 132.767303 -378.888794 0.002092
   vertex 134.176270 -376.337708 0.004156
   vertex 133.155533 -378.837677 0.002092
  endloop
 endfacet
 facet normal 0.000103 0.000784 -1.000000
  outer loop
   vertex 133.155533 -378.837677 0.002092
   vertex 134.176270 -376.337708 0.004156
   vertex 133.543762 -378.888794 0.002092
  endloop
 endfacet
 facet normal 0.000304 0.000734 -1.000000
  outer loop
   vertex 133.543762 -378.888794 0.002092
   vertex 134.176270 -376.337708 0.004156
   vertex 133.905533 -379.038666 0.002092
  endloop
 endfacet
 facet normal 0.000545 0.000710 -1.000000
  outer loop
   vertex 133.905533 -379.038666 0.002092
   vertex 134.176270 -376.337708 0.004156
   vertex 134.216187 -379.277039 0.002092
  endloop
 endfacet
 facet normal 0.000974 0.001270 -0.999999
  outer loop
   vertex 88.426590 -319.136932 0.007831
   vertex 88.176117 -321.837769 0.004156
   vertex 88.115868 -318.898651 0.007831
  endloop
 endfacet
 facet normal 0.000542 0.001310 -0.999999
  outer loop
   vertex 88.176117 -321.837769 0.004156
   vertex 88.426590 -319.136932 0.007831
   vertex 88.788399 -319.286713 0.007831
  endloop
 endfacet
 facet normal 0.000183 0.001396 -0.999999
  outer loop
   vertex 88.176117 -321.837769 0.004156
   vertex 88.788399 -319.286713 0.007831
   vertex 89.176643 -319.337708 0.007831
  endloop
 endfacet
 facet normal 0.000000 0.001470 -0.999999
  outer loop
   vertex 88.176117 -321.837769 0.004156
   vertex 89.176643 -319.337708 0.007831
   vertex 134.176117 -321.837769 0.004156
  endloop
 endfacet
 facet normal -0.000057 0.000436 -1.000000
  outer loop
   vertex 134.176117 -321.837769 0.004156
   vertex 89.176643 -319.337708 0.007831
   vertex 89.564857 -319.286499 0.007831
  endloop
 endfacet
 facet normal -0.000072 0.000175 -1.000000
  outer loop
   vertex 134.176117 -321.837769 0.004156
   vertex 89.564857 -319.286499 0.007831
   vertex 89.926590 -319.136566 0.007831
  endloop
 endfacet
 facet normal -0.000077 0.000100 -1.000000
  outer loop
   vertex 134.176117 -321.837769 0.004156
   vertex 89.926590 -319.136566 0.007831
   vertex 90.237190 -318.898102 0.007831
  endloop
 endfacet
 facet normal -0.000080 0.000061 -1.000000
  outer loop
   vertex 134.176117 -321.837769 0.004156
   vertex 90.237190 -318.898102 0.007831
   vertex 90.475487 -318.587402 0.007831
  endloop
 endfacet
 facet normal -0.000082 0.000034 -1.000000
  outer loop
   vertex 134.176117 -321.837769 0.004156
   vertex 90.475487 -318.587402 0.007831
   vertex 90.625252 -318.225586 0.007831
  endloop
 endfacet
 facet normal -0.000083 0.000011 -1.000000
  outer loop
   vertex 134.176117 -321.837769 0.004156
   vertex 90.625252 -318.225586 0.007831
   vertex 90.676262 -317.837341 0.007831
  endloop
 endfacet
 facet normal 0.000001 1.000000 -0.000017
  outer loop
   vertex 88.176262 -376.337585 3.504115
   vertex 134.176270 -376.337708 0.004156
   vertex 88.176117 -376.337646 0.004115
  endloop
 endfacet
 facet normal 0.000003 1.000000 0.000000
  outer loop
   vertex 134.176270 -376.337708 0.004156
   vertex 88.176262 -376.337585 3.504115
   vertex 134.176270 -376.337708 3.504156
  endloop
 endfacet
 facet normal 0.000000 1.000000 -0.000006
  outer loop
   vertex 140.655380 -309.348236 -0.000003
   vertex 81.682304 -309.348236 0.008521
   vertex 140.655533 -309.348175 10.999997
  endloop
 endfacet
 facet normal -0.000001 1.000000 -0.000003
  outer loop
   vertex 81.683907 -309.348206 11.006381
   vertex 140.655533 -309.348175 10.999997
   vertex 81.682304 -309.348236 0.008521
  endloop
 endfacet
 facet normal 1.000000 0.000277 -0.000014
  outer loop
   vertex 140.655380 -309.348236 -0.000003
   vertex 140.676270 -384.337708 11.004156
   vertex 140.676117 -384.337769 0.004156
  endloop
 endfacet
 facet normal 1.000000 0.000277 -0.000014
  outer loop
   vertex 140.676270 -384.337708 11.004156
   vertex 140.655380 -309.348236 -0.000003
   vertex 140.655533 -309.348175 10.999997
  endloop
 endfacet
 facet normal 0.991447 -0.130507 0.000000
  outer loop
   vertex 131.706635 -379.949463 0.002092
   vertex 131.655533 -380.337677 1.502092
   vertex 131.655533 -380.337677 0.002092
  endloop
 endfacet
 facet normal 0.991447 -0.130507 0.000000
  outer loop
   vertex 131.655533 -380.337677 1.502092
   vertex 131.706635 -379.949463 0.002092
   vertex 131.706635 -379.949463 1.502092
  endloop
 endfacet
 facet normal 0.923880 -0.382683 0.000000
  outer loop
   vertex 131.856491 -379.587677 0.002092
   vertex 131.706635 -379.949463 1.502092
   vertex 131.706635 -379.949463 0.002092
  endloop
 endfacet
 facet normal 0.923880 -0.382683 0.000000
  outer loop
   vertex 131.706635 -379.949463 1.502092
   vertex 131.856491 -379.587677 0.002092
   vertex 131.856491 -379.587677 1.502092
  endloop
 endfacet
 facet normal 0.923868 0.382711 0.000000
  outer loop
   vertex 131.706635 -380.725922 0.002092
   vertex 131.856491 -381.087677 1.502092
   vertex 131.856491 -381.087677 0.002092
  endloop
 endfacet
 facet normal 0.923868 0.382711 0.000000
  outer loop
   vertex 131.856491 -381.087677 1.502092
   vertex 131.706635 -380.725922 0.002092
   vertex 131.706635 -380.725922 1.502092
  endloop
 endfacet
 facet normal 0.991449 0.130497 0.000000
  outer loop
   vertex 131.655533 -380.337677 0.002092
   vertex 131.706635 -380.725922 1.502092
   vertex 131.706635 -380.725922 0.002092
  endloop
 endfacet
 facet normal 0.991449 0.130497 0.000000
  outer loop
   vertex 131.706635 -380.725922 1.502092
   vertex 131.655533 -380.337677 0.002092
   vertex 131.655533 -380.337677 1.502092
  endloop
 endfacet
 facet normal 0.608742 0.793368 0.000000
  outer loop
   vertex 132.094864 -381.398346 1.502092
   vertex 132.405533 -381.636719 0.002092
   vertex 132.094864 -381.398346 0.002092
  endloop
 endfacet
 facet normal 0.608742 0.793368 0.000000
  outer loop
   vertex 132.405533 -381.636719 0.002092
   vertex 132.094864 -381.398346 1.502092
   vertex 132.405533 -381.636719 1.502092
  endloop
 endfacet
 facet normal 0.793368 0.608742 0.000000
  outer loop
   vertex 131.856491 -381.087677 0.002092
   vertex 132.094864 -381.398346 1.502092
   vertex 132.094864 -381.398346 0.002092
  endloop
 endfacet
 facet normal 0.793368 0.608742 0.000000
  outer loop
   vertex 132.094864 -381.398346 1.502092
   vertex 131.856491 -381.087677 0.002092
   vertex 131.856491 -381.087677 1.502092
  endloop
 endfacet
 facet normal -0.793368 0.608742 0.000000
  outer loop
   vertex 134.454559 -381.087677 1.502092
   vertex 134.216187 -381.398346 0.002092
   vertex 134.216187 -381.398346 1.502092
  endloop
 endfacet
 facet normal -0.793368 0.608742 0.000000
  outer loop
   vertex 134.216187 -381.398346 0.002092
   vertex 134.454559 -381.087677 1.502092
   vertex 134.454559 -381.087677 0.002092
  endloop
 endfacet
 facet normal -0.608761 0.793354 0.000000
  outer loop
   vertex 133.905533 -381.636719 1.502092
   vertex 134.216187 -381.398346 0.002092
   vertex 133.905533 -381.636719 0.002092
  endloop
 endfacet
 facet normal -0.608761 0.793354 0.000000
  outer loop
   vertex 134.216187 -381.398346 0.002092
   vertex 133.905533 -381.636719 1.502092
   vertex 134.216187 -381.398346 1.502092
  endloop
 endfacet
 facet normal -0.382730 0.923860 0.000000
  outer loop
   vertex 133.543762 -381.786591 1.502092
   vertex 133.905533 -381.636719 0.002092
   vertex 133.543762 -381.786591 0.002092
  endloop
 endfacet
 facet normal -0.382730 0.923860 0.000000
  outer loop
   vertex 133.905533 -381.636719 0.002092
   vertex 133.543762 -381.786591 1.502092
   vertex 133.905533 -381.636719 1.502092
  endloop
 endfacet
 facet normal -0.130464 0.991453 0.000000
  outer loop
   vertex 133.155533 -381.837677 1.502092
   vertex 133.543762 -381.786591 0.002092
   vertex 133.155533 -381.837677 0.002092
  endloop
 endfacet
 facet normal -0.130464 0.991453 0.000000
  outer loop
   vertex 133.543762 -381.786591 0.002092
   vertex 133.155533 -381.837677 1.502092
   vertex 133.543762 -381.786591 1.502092
  endloop
 endfacet
 facet normal 0.000000 0.000000 1.000000
  outer loop
   vertex 85.176262 -381.087708 6.004156
   vertex 84.176262 -312.837708 6.004156
   vertex 84.176262 -381.087708 6.004156
  endloop
 endfacet
 facet normal 0.000000 0.000000 1.000000
  outer loop
   vertex 84.176262 -312.837708 6.004156
   vertex 85.176262 -381.087708 6.004156
   vertex 85.176262 -313.837708 6.004156
  endloop
 endfacet
 facet normal 0.000000 0.000000 1.000000
  outer loop
   vertex 85.176262 -313.837708 6.004156
   vertex 138.176270 -312.837708 6.004156
   vertex 84.176262 -312.837708 6.004156
  endloop
 endfacet
 facet normal 0.000000 0.000000 1.000000
  outer loop
   vertex 138.176270 -312.837708 6.004156
   vertex 85.176262 -313.837708 6.004156
   vertex 137.176270 -313.837708 6.004156
  endloop
 endfacet
 facet normal -0.991442 -0.130545 0.000000
  outer loop
   vertex 134.604416 -379.949463 1.502092
   vertex 134.655533 -380.337677 0.002092
   vertex 134.655533 -380.337677 1.502092
  endloop
 endfacet
 facet normal -0.991442 -0.130545 0.000000
  outer loop
   vertex 134.655533 -380.337677 0.002092
   vertex 134.604416 -379.949463 1.502092
   vertex 134.604416 -379.949463 0.002092
  endloop
 endfacet
 facet normal 0.130464 0.991453 0.000000
  outer loop
   vertex 132.767303 -381.786591 1.502092
   vertex 133.155533 -381.837677 0.002092
   vertex 132.767303 -381.786591 0.002092
  endloop
 endfacet
 facet normal 0.130464 0.991453 0.000000
  outer loop
   vertex 133.155533 -381.837677 0.002092
   vertex 132.767303 -381.786591 1.502092
   vertex 133.155533 -381.837677 1.502092
  endloop
 endfacet
 facet normal 0.382730 0.923860 0.000000
  outer loop
   vertex 132.405533 -381.636719 1.502092
   vertex 132.767303 -381.786591 0.002092
   vertex 132.405533 -381.636719 0.002092
  endloop
 endfacet
 facet normal 0.382730 0.923860 0.000000
  outer loop
   vertex 132.767303 -381.786591 0.002092
   vertex 132.405533 -381.636719 1.502092
   vertex 132.767303 -381.786591 1.502092
  endloop
 endfacet
 facet normal -0.987015 -0.160628 0.000000
  outer loop
   vertex 135.645294 -379.588654 3.502092
   vertex 135.754318 -380.258575 1.502092
   vertex 135.754318 -380.258575 3.502092
  endloop
 endfacet
 facet normal -0.987015 -0.160628 0.000000
  outer loop
   vertex 135.754318 -380.258575 1.502092
   vertex 135.645294 -379.588654 3.502092
   vertex 135.645294 -379.588654 1.502092
  endloop
 endfacet
 facet normal -0.923880 -0.382683 0.000000
  outer loop
   vertex 134.454559 -379.587677 1.502092
   vertex 134.604416 -379.949463 0.002092
   vertex 134.604416 -379.949463 1.502092
  endloop
 endfacet
 facet normal -0.923880 -0.382683 0.000000
  outer loop
   vertex 134.604416 -379.949463 0.002092
   vertex 134.454559 -379.587677 1.502092
   vertex 134.454559 -379.587677 0.002092
  endloop
 endfacet
 facet normal 0.130540 -0.991443 0.000000
  outer loop
   vertex 133.155533 -378.837677 1.502092
   vertex 132.767303 -378.888794 0.002092
   vertex 133.155533 -378.837677 0.002092
  endloop
 endfacet
 facet normal 0.130540 -0.991443 0.000000
  outer loop
   vertex 132.767303 -378.888794 0.002092
   vertex 133.155533 -378.837677 1.502092
   vertex 132.767303 -378.888794 1.502092
  endloop
 endfacet
 facet normal -0.000001 -0.001153 0.999999
  outer loop
   vertex 88.176262 -376.337585 3.504115
   vertex 131.787613 -378.126617 3.502092
   vertex 134.176270 -376.337708 3.504156
  endloop
 endfacet
 facet normal 0.000044 -0.000054 1.000000
  outer loop
   vertex 131.787613 -378.126617 3.502092
   vertex 88.176262 -376.337585 3.504115
   vertex 131.261963 -378.556000 3.502092
  endloop
 endfacet
 facet normal 0.000045 -0.000033 1.000000
  outer loop
   vertex 131.261963 -378.556000 3.502092
   vertex 88.176262 -376.337585 3.504115
   vertex 130.865356 -379.106812 3.502092
  endloop
 endfacet
 facet normal 0.000046 -0.000018 1.000000
  outer loop
   vertex 130.865356 -379.106812 3.502092
   vertex 88.176262 -376.337585 3.504115
   vertex 130.624817 -379.741486 3.502092
  endloop
 endfacet
 facet normal 0.000047 -0.000005 1.000000
  outer loop
   vertex 130.624817 -379.741486 3.502092
   vertex 88.176262 -376.337585 3.504115
   vertex 130.556732 -380.416809 3.502092
  endloop
 endfacet
 facet normal 0.001303 -0.002894 0.999995
  outer loop
   vertex 134.176270 -376.337708 3.504156
   vertex 131.787613 -378.126617 3.502092
   vertex 132.406494 -377.847931 3.502092
  endloop
 endfacet
 facet normal 0.000275 -0.001689 0.999999
  outer loop
   vertex 134.176270 -376.337708 3.504156
   vertex 132.406494 -377.847931 3.502092
   vertex 133.076416 -377.738892 3.502092
  endloop
 endfacet
 facet normal -0.000138 -0.001365 0.999999
  outer loop
   vertex 134.176270 -376.337708 3.504156
   vertex 133.076416 -377.738892 3.502092
   vertex 133.751740 -377.806976 3.502092
  endloop
 endfacet
 facet normal -0.000480 -0.001266 0.999999
  outer loop
   vertex 134.176270 -376.337708 3.504156
   vertex 133.751740 -377.806976 3.502092
   vertex 134.386414 -378.047516 3.502092
  endloop
 endfacet
 facet normal 0.009822 0.000000 0.999952
  outer loop
   vertex 134.176270 -376.337708 3.504156
   vertex 134.386414 -378.047516 3.502092
   vertex 134.176270 -321.837708 3.504156
  endloop
 endfacet
 facet normal 0.000014 0.000000 1.000000
  outer loop
   vertex 85.176262 -384.337708 3.504156
   vertex 88.176262 -376.337585 3.504115
   vertex 85.176262 -313.837708 3.504156
  endloop
 endfacet
 facet normal 0.000000 0.000005 1.000000
  outer loop
   vertex 88.176262 -376.337585 3.504115
   vertex 85.176262 -384.337708 3.504156
   vertex 136.926270 -384.337708 3.504156
  endloop
 endfacet
 facet normal -0.000002 -0.000001 1.000000
  outer loop
   vertex 85.176262 -313.837708 3.504156
   vertex 88.176262 -376.337585 3.504115
   vertex 86.677933 -317.746338 3.504156
  endloop
 endfacet
 facet normal -0.000010 -0.000001 1.000000
  outer loop
   vertex 86.677933 -317.746338 3.504156
   vertex 88.176262 -376.337585 3.504115
   vertex 86.739410 -318.396057 3.504156
  endloop
 endfacet
 facet normal -0.000002 -0.000001 1.000000
  outer loop
   vertex 86.739410 -318.396057 3.504156
   vertex 88.176262 -376.337585 3.504115
   vertex 86.966949 -319.007721 3.504156
  endloop
 endfacet
 facet normal -0.000001 -0.000001 1.000000
  outer loop
   vertex 86.966949 -319.007721 3.504156
   vertex 88.176262 -376.337585 3.504115
   vertex 87.345055 -319.539673 3.504156
  endloop
 endfacet
 facet normal -0.000001 -0.000001 1.000000
  outer loop
   vertex 87.345055 -319.539673 3.504156
   vertex 88.176262 -376.337585 3.504115
   vertex 87.847946 -319.955627 3.504156
  endloop
 endfacet
 facet normal 0.000448 0.002738 0.999996
  outer loop
   vertex 88.176262 -376.337585 3.504115
   vertex 136.926270 -384.337708 3.504156
   vertex 132.559326 -382.868408 3.502092
  endloop
 endfacet
 facet normal 0.000075 0.000197 1.000000
  outer loop
   vertex 88.176262 -376.337585 3.504115
   vertex 132.559326 -382.868408 3.502092
   vertex 131.924637 -382.627869 3.502092
  endloop
 endfacet
 facet normal 0.000058 0.000080 1.000000
  outer loop
   vertex 88.176262 -376.337585 3.504115
   vertex 131.924637 -382.627869 3.502092
   vertex 131.373840 -382.231262 3.502092
  endloop
 endfacet
 facet normal 0.000053 0.000043 1.000000
  outer loop
   vertex 88.176262 -376.337585 3.504115
   vertex 131.373840 -382.231262 3.502092
   vertex 130.944458 -381.705597 3.502092
  endloop
 endfacet
 facet normal 0.000050 0.000023 1.000000
  outer loop
   vertex 88.176262 -376.337585 3.504115
   vertex 130.944458 -381.705597 3.502092
   vertex 130.665756 -381.086731 3.502092
  endloop
 endfacet
 facet normal 0.000048 0.000008 1.000000
  outer loop
   vertex 88.176262 -376.337585 3.504115
   vertex 130.665756 -381.086731 3.502092
   vertex 130.556732 -380.416809 3.502092
  endloop
 endfacet
 facet normal 0.000202 0.002006 0.999998
  outer loop
   vertex 132.559326 -382.868408 3.502092
   vertex 136.926270 -384.337708 3.504156
   vertex 133.234634 -382.936493 3.502092
  endloop
 endfacet
 facet normal -0.000168 0.001031 0.999999
  outer loop
   vertex 133.234634 -382.936493 3.502092
   vertex 136.926270 -384.337708 3.504156
   vertex 133.904556 -382.827454 3.502092
  endloop
 endfacet
 facet normal -0.000324 0.000719 1.000000
  outer loop
   vertex 133.904556 -382.827454 3.502092
   vertex 136.926270 -384.337708 3.504156
   vertex 134.523438 -382.548767 3.502092
  endloop
 endfacet
 facet normal -0.000449 0.000550 1.000000
  outer loop
   vertex 134.523438 -382.548767 3.502092
   vertex 136.926270 -384.337708 3.504156
   vertex 135.049088 -382.119385 3.502092
  endloop
 endfacet
 facet normal -0.000594 0.000428 1.000000
  outer loop
   vertex 135.049088 -382.119385 3.502092
   vertex 136.926270 -384.337708 3.504156
   vertex 135.445709 -381.568573 3.502092
  endloop
 endfacet
 facet normal -0.000816 0.000309 1.000000
  outer loop
   vertex 135.445709 -381.568573 3.502092
   vertex 136.926270 -384.337708 3.504156
   vertex 135.686249 -380.933899 3.502092
  endloop
 endfacet
 facet normal -0.001304 0.000131 0.999999
  outer loop
   vertex 135.686249 -380.933899 3.502092
   vertex 136.926270 -384.337708 3.504156
   vertex 135.754318 -380.258575 3.502092
  endloop
 endfacet
 facet normal 0.000000 0.000000 1.000000
  outer loop
   vertex 85.176262 -313.837708 3.504156
   vertex 89.267654 -315.339386 3.504156
   vertex 137.176270 -313.837708 3.504156
  endloop
 endfacet
 facet normal 0.000000 0.000000 1.000000
  outer loop
   vertex 89.267654 -315.339386 3.504156
   vertex 85.176262 -313.837708 3.504156
   vertex 88.617928 -315.400848 3.504156
  endloop
 endfacet
 facet normal 0.000000 0.000000 1.000000
  outer loop
   vertex 88.617928 -315.400848 3.504156
   vertex 85.176262 -313.837708 3.504156
   vertex 88.006248 -315.628418 3.504156
  endloop
 endfacet
 facet normal 0.000000 0.000000 1.000000
  outer loop
   vertex 88.006248 -315.628418 3.504156
   vertex 85.176262 -313.837708 3.504156
   vertex 87.474304 -316.006500 3.504156
  endloop
 endfacet
 facet normal 0.000000 0.000000 1.000000
  outer loop
   vertex 87.474304 -316.006500 3.504156
   vertex 85.176262 -313.837708 3.504156
   vertex 87.058342 -316.509399 3.504156
  endloop
 endfacet
 facet normal 0.000000 0.000000 1.000000
  outer loop
   vertex 87.058342 -316.509399 3.504156
   vertex 85.176262 -313.837708 3.504156
   vertex 86.786720 -317.102814 3.504156
  endloop
 endfacet
 facet normal 0.000000 0.000000 1.000000
  outer loop
   vertex 86.786720 -317.102814 3.504156
   vertex 85.176262 -313.837708 3.504156
   vertex 86.677933 -317.746338 3.504156
  endloop
 endfacet
 facet normal 0.000000 0.000000 1.000000
  outer loop
   vertex 137.176270 -313.837708 3.504156
   vertex 89.267654 -315.339386 3.504156
   vertex 89.911156 -315.448181 3.504156
  endloop
 endfacet
 facet normal 0.000000 0.000000 1.000000
  outer loop
   vertex 137.176270 -313.837708 3.504156
   vertex 89.911156 -315.448181 3.504156
   vertex 90.504578 -315.719788 3.504156
  endloop
 endfacet
 facet normal 0.000000 0.000000 1.000000
  outer loop
   vertex 137.176270 -313.837708 3.504156
   vertex 90.504578 -315.719788 3.504156
   vertex 91.007477 -316.135773 3.504156
  endloop
 endfacet
 facet normal 0.000000 0.000000 1.000000
  outer loop
   vertex 137.176270 -313.837708 3.504156
   vertex 91.007477 -316.135773 3.504156
   vertex 91.385574 -316.667694 3.504156
  endloop
 endfacet
 facet normal 0.000000 0.000000 1.000000
  outer loop
   vertex 137.176270 -313.837708 3.504156
   vertex 91.385574 -316.667694 3.504156
   vertex 91.613121 -317.279388 3.504156
  endloop
 endfacet
 facet normal 0.000000 0.000000 1.000000
  outer loop
   vertex 137.176270 -313.837708 3.504156
   vertex 91.613121 -317.279388 3.504156
   vertex 91.674591 -317.929108 3.504156
  endloop
 endfacet
 facet normal 0.000000 0.000000 1.000000
  outer loop
   vertex 137.176270 -313.837708 3.504156
   vertex 91.674591 -317.929108 3.504156
   vertex 134.176270 -321.837708 3.504156
  endloop
 endfacet
 facet normal 0.000097 -0.000036 1.000000
  outer loop
   vertex 137.176270 -313.837708 3.504156
   vertex 134.176270 -321.837708 3.504156
   vertex 134.386414 -378.047516 3.502092
  endloop
 endfacet
 facet normal -0.000022 -0.000031 1.000000
  outer loop
   vertex 137.176270 -313.837708 3.504156
   vertex 134.386414 -378.047516 3.502092
   vertex 134.937210 -378.444122 3.502092
  endloop
 endfacet
 facet normal -0.000038 -0.000031 1.000000
  outer loop
   vertex 137.176270 -313.837708 3.504156
   vertex 134.937210 -378.444122 3.502092
   vertex 135.366592 -378.969788 3.502092
  endloop
 endfacet
 facet normal -0.000066 -0.000030 1.000000
  outer loop
   vertex 137.176270 -313.837708 3.504156
   vertex 135.366592 -378.969788 3.502092
   vertex 135.645294 -379.588654 3.502092
  endloop
 endfacet
 facet normal -0.000169 -0.000027 1.000000
  outer loop
   vertex 137.176270 -313.837708 3.504156
   vertex 135.645294 -379.588654 3.502092
   vertex 135.754318 -380.258575 3.502092
  endloop
 endfacet
 facet normal -0.001740 0.000006 0.999999
  outer loop
   vertex 137.176270 -313.837708 3.504156
   vertex 135.754318 -380.258575 3.502092
   vertex 136.926270 -384.337708 3.504156
  endloop
 endfacet
 facet normal 0.000000 0.000000 1.000000
  outer loop
   vertex 137.176270 -313.837708 3.504156
   vertex 136.926270 -384.337708 3.504156
   vertex 137.176270 -384.337708 3.504156
  endloop
 endfacet
 facet normal 0.000000 0.000000 1.000000
  outer loop
   vertex 87.847946 -319.955627 3.504156
   vertex 88.176262 -321.837708 3.504156
   vertex 88.441368 -320.227264 3.504156
  endloop
 endfacet
 facet normal -0.000004 -0.000001 1.000000
  outer loop
   vertex 88.176262 -321.837708 3.504156
   vertex 87.847946 -319.955627 3.504156
   vertex 88.176262 -376.337585 3.504115
  endloop
 endfacet
 facet normal 0.000000 0.000000 1.000000
  outer loop
   vertex 88.441368 -320.227264 3.504156
   vertex 88.176262 -321.837708 3.504156
   vertex 89.084869 -320.336060 3.504156
  endloop
 endfacet
 facet normal 0.000000 0.000000 1.000000
  outer loop
   vertex 89.084869 -320.336060 3.504156
   vertex 88.176262 -321.837708 3.504156
   vertex 134.176270 -321.837708 3.504156
  endloop
 endfacet
 facet normal 0.000000 0.000000 1.000000
  outer loop
   vertex 89.084869 -320.336060 3.504156
   vertex 134.176270 -321.837708 3.504156
   vertex 89.734596 -320.274567 3.504156
  endloop
 endfacet
 facet normal 0.000000 0.000000 1.000000
  outer loop
   vertex 89.734596 -320.274567 3.504156
   vertex 134.176270 -321.837708 3.504156
   vertex 90.346275 -320.047028 3.504156
  endloop
 endfacet
 facet normal 0.000000 0.000000 1.000000
  outer loop
   vertex 90.346275 -320.047028 3.504156
   vertex 134.176270 -321.837708 3.504156
   vertex 90.878220 -319.668945 3.504156
  endloop
 endfacet
 facet normal 0.000000 0.000000 1.000000
  outer loop
   vertex 90.878220 -319.668945 3.504156
   vertex 134.176270 -321.837708 3.504156
   vertex 91.294182 -319.166046 3.504156
  endloop
 endfacet
 facet normal 0.000000 0.000000 1.000000
  outer loop
   vertex 91.294182 -319.166046 3.504156
   vertex 134.176270 -321.837708 3.504156
   vertex 91.565811 -318.572601 3.504156
  endloop
 endfacet
 facet normal 0.000000 0.000000 1.000000
  outer loop
   vertex 91.565811 -318.572601 3.504156
   vertex 134.176270 -321.837708 3.504156
   vertex 91.674591 -317.929108 3.504156
  endloop
 endfacet
 facet normal 0.000000 0.000000 1.000000
  outer loop
   vertex 140.676270 -384.337708 11.004156
   vertex 137.176270 -312.837708 11.004156
   vertex 137.176270 -384.337708 11.004156
  endloop
 endfacet
 facet normal 0.001139 0.000056 0.999999
  outer loop
   vertex 137.176270 -312.837708 11.004156
   vertex 140.676270 -384.337708 11.004156
   vertex 140.655533 -309.348175 10.999997
  endloop
 endfacet
 facet normal 0.000025 -0.000028 1.000000
  outer loop
   vertex 85.176262 -384.337708 11.004156
   vertex 81.683907 -309.348206 11.006381
   vertex 81.683907 -384.337738 11.004244
  endloop
 endfacet
 facet normal 0.000637 0.000000 1.000000
  outer loop
   vertex 81.683907 -309.348206 11.006381
   vertex 85.176262 -384.337708 11.004156
   vertex 85.176262 -312.837708 11.004156
  endloop
 endfacet
 facet normal 0.000108 -0.000529 1.000000
  outer loop
   vertex 81.683907 -309.348206 11.006381
   vertex 85.176262 -312.837708 11.004156
   vertex 140.655533 -309.348175 10.999997
  endloop
 endfacet
 facet normal 0.000000 0.001192 0.999999
  outer loop
   vertex 140.655533 -309.348175 10.999997
   vertex 85.176262 -312.837708 11.004156
   vertex 137.176270 -312.837708 11.004156
  endloop
 endfacet
 facet normal -0.991444 0.130535 0.000000
  outer loop
   vertex 134.655533 -380.337677 1.502092
   vertex 134.604416 -380.725922 0.002092
   vertex 134.604416 -380.725922 1.502092
  endloop
 endfacet
 facet normal -0.991444 0.130535 0.000000
  outer loop
   vertex 134.604416 -380.725922 0.002092
   vertex 134.655533 -380.337677 1.502092
   vertex 134.655533 -380.337677 0.002092
  endloop
 endfacet
 facet normal -0.923868 0.382711 0.000000
  outer loop
   vertex 134.604416 -380.725922 1.502092
   vertex 134.454559 -381.087677 0.002092
   vertex 134.454559 -381.087677 1.502092
  endloop
 endfacet
 facet normal -0.923868 0.382711 0.000000
  outer loop
   vertex 134.454559 -381.087677 0.002092
   vertex 134.604416 -380.725922 1.502092
   vertex 134.604416 -380.725922 0.002092
  endloop
 endfacet
 facet normal 0.382730 -0.923860 0.000000
  outer loop
   vertex 132.767303 -378.888794 1.502092
   vertex 132.405533 -379.038666 0.002092
   vertex 132.767303 -378.888794 0.002092
  endloop
 endfacet
 facet normal 0.382730 -0.923860 0.000000
  outer loop
   vertex 132.405533 -379.038666 0.002092
   vertex 132.767303 -378.888794 1.502092
   vertex 132.405533 -379.038666 1.502092
  endloop
 endfacet
 facet normal 0.608742 -0.793368 0.000000
  outer loop
   vertex 132.405533 -379.038666 1.502092
   vertex 132.094864 -379.277039 0.002092
   vertex 132.405533 -379.038666 0.002092
  endloop
 endfacet
 facet normal 0.608742 -0.793368 0.000000
  outer loop
   vertex 132.094864 -379.277039 0.002092
   vertex 132.405533 -379.038666 1.502092
   vertex 132.094864 -379.277039 1.502092
  endloop
 endfacet
 facet normal 0.707107 0.000000 -0.707107
  outer loop
   vertex 84.176262 -312.837708 7.624156
   vertex 85.176262 -384.337708 8.624156
   vertex 84.176262 -384.337708 7.624156
  endloop
 endfacet
 facet normal 0.707107 0.000000 -0.707107
  outer loop
   vertex 85.176262 -384.337708 8.624156
   vertex 84.176262 -312.837708 7.624156
   vertex 85.176262 -312.837708 8.624156
  endloop
 endfacet
 facet normal 0.000000 0.000000 1.000000
  outer loop
   vertex 131.924637 -382.627869 1.502092
   vertex 131.655533 -380.337677 1.502092
   vertex 131.373840 -382.231262 1.502092
  endloop
 endfacet
 facet normal 0.000000 0.000000 1.000000
  outer loop
   vertex 131.655533 -380.337677 1.502092
   vertex 131.924637 -382.627869 1.502092
   vertex 131.706635 -380.725922 1.502092
  endloop
 endfacet
 facet normal 0.000000 0.000000 1.000000
  outer loop
   vertex 131.706635 -380.725922 1.502092
   vertex 131.924637 -382.627869 1.502092
   vertex 131.856491 -381.087677 1.502092
  endloop
 endfacet
 facet normal 0.000000 0.000000 1.000000
  outer loop
   vertex 131.856491 -381.087677 1.502092
   vertex 131.924637 -382.627869 1.502092
   vertex 132.094864 -381.398346 1.502092
  endloop
 endfacet
 facet normal 0.000000 0.000000 1.000000
  outer loop
   vertex 132.094864 -381.398346 1.502092
   vertex 131.924637 -382.627869 1.502092
   vertex 132.559326 -382.868408 1.502092
  endloop
 endfacet
 facet normal 0.000000 0.000000 1.000000
  outer loop
   vertex 132.094864 -381.398346 1.502092
   vertex 132.559326 -382.868408 1.502092
   vertex 132.405533 -381.636719 1.502092
  endloop
 endfacet
 facet normal 0.000000 0.000000 1.000000
  outer loop
   vertex 132.405533 -381.636719 1.502092
   vertex 132.559326 -382.868408 1.502092
   vertex 132.767303 -381.786591 1.502092
  endloop
 endfacet
 facet normal 0.000000 0.000000 1.000000
  outer loop
   vertex 132.767303 -381.786591 1.502092
   vertex 132.559326 -382.868408 1.502092
   vertex 133.234634 -382.936493 1.502092
  endloop
 endfacet
 facet normal 0.000000 0.000000 1.000000
  outer loop
   vertex 132.767303 -381.786591 1.502092
   vertex 133.234634 -382.936493 1.502092
   vertex 133.155533 -381.837677 1.502092
  endloop
 endfacet
 facet normal 0.000000 0.000000 1.000000
  outer loop
   vertex 133.155533 -381.837677 1.502092
   vertex 133.234634 -382.936493 1.502092
   vertex 133.543762 -381.786591 1.502092
  endloop
 endfacet
 facet normal 0.000000 0.000000 1.000000
  outer loop
   vertex 133.543762 -381.786591 1.502092
   vertex 133.234634 -382.936493 1.502092
   vertex 133.904556 -382.827454 1.502092
  endloop
 endfacet
 facet normal 0.000000 0.000000 1.000000
  outer loop
   vertex 133.543762 -381.786591 1.502092
   vertex 133.904556 -382.827454 1.502092
   vertex 133.905533 -381.636719 1.502092
  endloop
 endfacet
 facet normal 0.000000 0.000000 1.000000
  outer loop
   vertex 133.905533 -381.636719 1.502092
   vertex 133.904556 -382.827454 1.502092
   vertex 134.523438 -382.548767 1.502092
  endloop
 endfacet
 facet normal 0.000000 0.000000 1.000000
  outer loop
   vertex 133.905533 -381.636719 1.502092
   vertex 134.523438 -382.548767 1.502092
   vertex 134.216187 -381.398346 1.502092
  endloop
 endfacet
 facet normal 0.000000 0.000000 1.000000
  outer loop
   vertex 134.216187 -381.398346 1.502092
   vertex 134.523438 -382.548767 1.502092
   vertex 134.454559 -381.087677 1.502092
  endloop
 endfacet
 facet normal 0.000000 0.000000 1.000000
  outer loop
   vertex 134.454559 -381.087677 1.502092
   vertex 134.523438 -382.548767 1.502092
   vertex 134.604416 -380.725922 1.502092
  endloop
 endfacet
 facet normal 0.000000 0.000000 1.000000
  outer loop
   vertex 134.604416 -380.725922 1.502092
   vertex 134.523438 -382.548767 1.502092
   vertex 135.049088 -382.119385 1.502092
  endloop
 endfacet
 facet normal 0.000000 0.000000 1.000000
  outer loop
   vertex 134.604416 -380.725922 1.502092
   vertex 135.049088 -382.119385 1.502092
   vertex 134.655533 -380.337677 1.502092
  endloop
 endfacet
 facet normal 0.000000 0.000000 1.000000
  outer loop
   vertex 134.655533 -380.337677 1.502092
   vertex 135.049088 -382.119385 1.502092
   vertex 134.937210 -378.444122 1.502092
  endloop
 endfacet
 facet normal 0.000000 0.000000 1.000000
  outer loop
   vertex 134.937210 -378.444122 1.502092
   vertex 135.049088 -382.119385 1.502092
   vertex 135.366592 -378.969788 1.502092
  endloop
 endfacet
 facet normal 0.000000 0.000000 1.000000
  outer loop
   vertex 135.366592 -378.969788 1.502092
   vertex 135.049088 -382.119385 1.502092
   vertex 135.445709 -381.568573 1.502092
  endloop
 endfacet
 facet normal 0.000000 0.000000 1.000000
  outer loop
   vertex 135.366592 -378.969788 1.502092
   vertex 135.445709 -381.568573 1.502092
   vertex 135.645294 -379.588654 1.502092
  endloop
 endfacet
 facet normal 0.000000 0.000000 1.000000
  outer loop
   vertex 135.645294 -379.588654 1.502092
   vertex 135.445709 -381.568573 1.502092
   vertex 135.686249 -380.933899 1.502092
  endloop
 endfacet
 facet normal 0.000000 0.000000 1.000000
  outer loop
   vertex 135.645294 -379.588654 1.502092
   vertex 135.686249 -380.933899 1.502092
   vertex 135.754318 -380.258575 1.502092
  endloop
 endfacet
 facet normal 0.000000 0.000000 1.000000
  outer loop
   vertex 130.665756 -381.086731 1.502092
   vertex 130.624817 -379.741486 1.502092
   vertex 130.556732 -380.416809 1.502092
  endloop
 endfacet
 facet normal 0.000000 0.000000 1.000000
  outer loop
   vertex 130.624817 -379.741486 1.502092
   vertex 130.665756 -381.086731 1.502092
   vertex 130.865356 -379.106812 1.502092
  endloop
 endfacet
 facet normal 0.000000 0.000000 1.000000
  outer loop
   vertex 130.865356 -379.106812 1.502092
   vertex 130.665756 -381.086731 1.502092
   vertex 130.944458 -381.705597 1.502092
  endloop
 endfacet
 facet normal 0.000000 0.000000 1.000000
  outer loop
   vertex 130.865356 -379.106812 1.502092
   vertex 130.944458 -381.705597 1.502092
   vertex 131.261963 -378.556000 1.502092
  endloop
 endfacet
 facet normal 0.000000 0.000000 1.000000
  outer loop
   vertex 131.261963 -378.556000 1.502092
   vertex 130.944458 -381.705597 1.502092
   vertex 131.373840 -382.231262 1.502092
  endloop
 endfacet
 facet normal 0.000000 0.000000 1.000000
  outer loop
   vertex 131.261963 -378.556000 1.502092
   vertex 131.373840 -382.231262 1.502092
   vertex 131.787613 -378.126617 1.502092
  endloop
 endfacet
 facet normal 0.000000 0.000000 1.000000
  outer loop
   vertex 131.787613 -378.126617 1.502092
   vertex 131.373840 -382.231262 1.502092
   vertex 131.655533 -380.337677 1.502092
  endloop
 endfacet
 facet normal 0.000000 0.000000 1.000000
  outer loop
   vertex 131.787613 -378.126617 1.502092
   vertex 131.655533 -380.337677 1.502092
   vertex 131.706635 -379.949463 1.502092
  endloop
 endfacet
 facet normal 0.000000 0.000000 1.000000
  outer loop
   vertex 131.787613 -378.126617 1.502092
   vertex 131.706635 -379.949463 1.502092
   vertex 131.856491 -379.587677 1.502092
  endloop
 endfacet
 facet normal 0.000000 0.000000 1.000000
  outer loop
   vertex 131.787613 -378.126617 1.502092
   vertex 131.856491 -379.587677 1.502092
   vertex 132.406494 -377.847931 1.502092
  endloop
 endfacet
 facet normal 0.000000 0.000000 1.000000
  outer loop
   vertex 132.406494 -377.847931 1.502092
   vertex 131.856491 -379.587677 1.502092
   vertex 132.094864 -379.277039 1.502092
  endloop
 endfacet
 facet normal 0.000000 0.000000 1.000000
  outer loop
   vertex 132.406494 -377.847931 1.502092
   vertex 132.094864 -379.277039 1.502092
   vertex 132.405533 -379.038666 1.502092
  endloop
 endfacet
 facet normal 0.000000 0.000000 1.000000
  outer loop
   vertex 132.406494 -377.847931 1.502092
   vertex 132.405533 -379.038666 1.502092
   vertex 132.767303 -378.888794 1.502092
  endloop
 endfacet
 facet normal 0.000000 0.000000 1.000000
  outer loop
   vertex 132.406494 -377.847931 1.502092
   vertex 132.767303 -378.888794 1.502092
   vertex 133.076416 -377.738892 1.502092
  endloop
 endfacet
 facet normal 0.000000 0.000000 1.000000
  outer loop
   vertex 133.076416 -377.738892 1.502092
   vertex 132.767303 -378.888794 1.502092
   vertex 133.155533 -378.837677 1.502092
  endloop
 endfacet
 facet normal 0.000000 0.000000 1.000000
  outer loop
   vertex 133.076416 -377.738892 1.502092
   vertex 133.155533 -378.837677 1.502092
   vertex 133.751740 -377.806976 1.502092
  endloop
 endfacet
 facet normal 0.000000 0.000000 1.000000
  outer loop
   vertex 133.751740 -377.806976 1.502092
   vertex 133.155533 -378.837677 1.502092
   vertex 133.543762 -378.888794 1.502092
  endloop
 endfacet
 facet normal 0.000000 0.000000 1.000000
  outer loop
   vertex 133.751740 -377.806976 1.502092
   vertex 133.543762 -378.888794 1.502092
   vertex 133.905533 -379.038666 1.502092
  endloop
 endfacet
 facet normal 0.000000 0.000000 1.000000
  outer loop
   vertex 133.751740 -377.806976 1.502092
   vertex 133.905533 -379.038666 1.502092
   vertex 134.386414 -378.047516 1.502092
  endloop
 endfacet
 facet normal 0.000000 0.000000 1.000000
  outer loop
   vertex 134.386414 -378.047516 1.502092
   vertex 133.905533 -379.038666 1.502092
   vertex 134.216187 -379.277039 1.502092
  endloop
 endfacet
 facet normal 0.000000 0.000000 1.000000
  outer loop
   vertex 134.386414 -378.047516 1.502092
   vertex 134.216187 -379.277039 1.502092
   vertex 134.454559 -379.587677 1.502092
  endloop
 endfacet
 facet normal 0.000000 0.000000 1.000000
  outer loop
   vertex 134.386414 -378.047516 1.502092
   vertex 134.454559 -379.587677 1.502092
   vertex 134.937210 -378.444122 1.502092
  endloop
 endfacet
 facet normal 0.000000 0.000000 1.000000
  outer loop
   vertex 134.937210 -378.444122 1.502092
   vertex 134.454559 -379.587677 1.502092
   vertex 134.604416 -379.949463 1.502092
  endloop
 endfacet
 facet normal 0.000000 0.000000 1.000000
  outer loop
   vertex 134.937210 -378.444122 1.502092
   vertex 134.604416 -379.949463 1.502092
   vertex 134.655533 -380.337677 1.502092
  endloop
 endfacet
 facet normal -0.382730 -0.923860 0.000000
  outer loop
   vertex 133.905533 -379.038666 1.502092
   vertex 133.543762 -378.888794 0.002092
   vertex 133.905533 -379.038666 0.002092
  endloop
 endfacet
 facet normal -0.382730 -0.923860 0.000000
  outer loop
   vertex 133.543762 -378.888794 0.002092
   vertex 133.905533 -379.038666 1.502092
   vertex 133.543762 -378.888794 1.502092
  endloop
 endfacet
 facet normal -0.608761 -0.793354 0.000000
  outer loop
   vertex 134.216187 -379.277039 1.502092
   vertex 133.905533 -379.038666 0.002092
   vertex 134.216187 -379.277039 0.002092
  endloop
 endfacet
 facet normal -0.608761 -0.793354 0.000000
  outer loop
   vertex 133.905533 -379.038666 0.002092
   vertex 134.216187 -379.277039 1.502092
   vertex 133.905533 -379.038666 1.502092
  endloop
 endfacet
 facet normal 0.793339 -0.608780 0.000000
  outer loop
   vertex 132.094864 -379.277039 0.002092
   vertex 131.856491 -379.587677 1.502092
   vertex 131.856491 -379.587677 0.002092
  endloop
 endfacet
 facet normal 0.793339 -0.608780 0.000000
  outer loop
   vertex 131.856491 -379.587677 1.502092
   vertex 132.094864 -379.277039 0.002092
   vertex 132.094864 -379.277039 1.502092
  endloop
 endfacet
 facet normal -0.130540 -0.991443 0.000000
  outer loop
   vertex 133.543762 -378.888794 1.502092
   vertex 133.155533 -378.837677 0.002092
   vertex 133.543762 -378.888794 0.002092
  endloop
 endfacet
 facet normal -0.130540 -0.991443 0.000000
  outer loop
   vertex 133.155533 -378.837677 0.002092
   vertex 133.543762 -378.888794 1.502092
   vertex 133.155533 -378.837677 1.502092
  endloop
 endfacet
 facet normal -0.793339 -0.608780 0.000000
  outer loop
   vertex 134.216187 -379.277039 1.502092
   vertex 134.454559 -379.587677 0.002092
   vertex 134.454559 -379.587677 1.502092
  endloop
 endfacet
 facet normal -0.793339 -0.608780 0.000000
  outer loop
   vertex 134.454559 -379.587677 0.002092
   vertex 134.216187 -379.277039 1.502092
   vertex 134.216187 -379.277039 0.002092
  endloop
 endfacet
 facet normal -1.000000 -0.000019 0.000013
  outer loop
   vertex 81.683762 -384.337799 0.012684
   vertex 81.683907 -384.337738 11.004244
   vertex 81.682304 -309.348236 0.008521
  endloop
 endfacet
 facet normal -1.000000 0.000000 0.000146
  outer loop
   vertex 81.683907 -309.348206 11.006381
   vertex 81.682304 -309.348236 0.008521
   vertex 81.683907 -384.337738 11.004244
  endloop
 endfacet
 facet normal 1.000000 0.000000 0.000000
  outer loop
   vertex 84.176262 -382.337708 6.504156
   vertex 84.176262 -384.337708 7.624156
   vertex 84.176262 -384.337708 6.004156
  endloop
 endfacet
 facet normal 1.000000 0.000000 0.000000
  outer loop
   vertex 84.176262 -384.337708 7.624156
   vertex 84.176262 -382.337708 6.504156
   vertex 84.176262 -312.837708 7.624156
  endloop
 endfacet
 facet normal 1.000000 0.000000 0.000000
  outer loop
   vertex 84.176262 -312.837708 7.624156
   vertex 84.176262 -382.337708 6.504156
   vertex 84.176262 -382.087708 6.504156
  endloop
 endfacet
 facet normal 1.000000 0.000000 0.000000
  outer loop
   vertex 84.176262 -312.837708 7.624156
   vertex 84.176262 -382.087708 6.504156
   vertex 84.176262 -381.087708 6.004156
  endloop
 endfacet
 facet normal 1.000000 0.000000 0.000000
  outer loop
   vertex 84.176262 -312.837708 7.624156
   vertex 84.176262 -381.087708 6.004156
   vertex 84.176262 -312.837708 6.004156
  endloop
 endfacet
 facet normal 0.000001 -1.000000 0.000018
  outer loop
   vertex 140.676117 -384.337769 0.004156
   vertex 137.176270 -384.337708 3.504156
   vertex 81.683762 -384.337799 0.012684
  endloop
 endfacet
 facet normal -0.000012 -1.000000 0.000006
  outer loop
   vertex 137.176270 -384.337708 3.504156
   vertex 140.676117 -384.337769 0.004156
   vertex 140.676270 -384.337708 11.004156
  endloop
 endfacet
 facet normal 0.000000 -1.000000 0.000000
  outer loop
   vertex 137.176270 -384.337708 3.504156
   vertex 140.676270 -384.337708 11.004156
   vertex 138.176270 -384.337708 5.994326
  endloop
 endfacet
 facet normal 0.000000 -1.000000 0.000000
  outer loop
   vertex 138.176270 -384.337708 5.994326
   vertex 140.676270 -384.337708 11.004156
   vertex 138.176270 -384.337708 7.624156
  endloop
 endfacet
 facet normal 0.000000 -1.000000 0.000000
  outer loop
   vertex 138.176270 -384.337708 7.624156
   vertex 140.676270 -384.337708 11.004156
   vertex 137.176270 -384.337708 8.624156
  endloop
 endfacet
 facet normal 0.000000 -1.000000 0.000000
  outer loop
   vertex 137.176270 -384.337708 8.624156
   vertex 140.676270 -384.337708 11.004156
   vertex 137.176270 -384.337708 11.004156
  endloop
 endfacet
 facet normal 0.000000 -1.000000 0.000000
  outer loop
   vertex 137.176270 -384.337708 5.994326
   vertex 137.176270 -384.337708 3.504156
   vertex 138.176270 -384.337708 5.994326
  endloop
 endfacet
 facet normal 0.000021 -1.000000 0.000006
  outer loop
   vertex 81.683762 -384.337799 0.012684
   vertex 85.176262 -384.337708 3.504156
   vertex 81.683907 -384.337738 11.004244
  endloop
 endfacet
 facet normal 0.000000 -1.000000 0.000026
  outer loop
   vertex 85.176262 -384.337708 3.504156
   vertex 81.683762 -384.337799 0.012684
   vertex 137.176270 -384.337708 3.504156
  endloop
 endfacet
 facet normal 0.000000 0.000000 0.000000
  outer loop
   vertex 85.176262 -384.337708 3.504156
   vertex 137.176270 -384.337708 3.504156
   vertex 136.926270 -384.337708 3.504156
  endloop
 endfacet
 facet normal 0.000062 -1.000000 0.000025
  outer loop
   vertex 81.683907 -384.337738 11.004244
   vertex 85.176262 -384.337708 3.504156
   vertex 84.176262 -384.337708 6.004156
  endloop
 endfacet
 facet normal 0.000000 -1.000000 0.000000
  outer loop
   vertex 84.176262 -384.337708 6.004156
   vertex 85.176262 -384.337708 3.504156
   vertex 85.176262 -384.337708 6.004156
  endloop
 endfacet
 facet normal 0.000012 -1.000000 0.000000
  outer loop
   vertex 81.683907 -384.337738 11.004244
   vertex 84.176262 -384.337708 6.004156
   vertex 84.176262 -384.337708 7.624156
  endloop
 endfacet
 facet normal 0.000005 -1.000000 -0.000005
  outer loop
   vertex 81.683907 -384.337738 11.004244
   vertex 84.176262 -384.337708 7.624156
   vertex 85.176262 -384.337708 8.624156
  endloop
 endfacet
 facet normal 0.000009 -1.000000 0.000000
  outer loop
   vertex 81.683907 -384.337738 11.004244
   vertex 85.176262 -384.337708 8.624156
   vertex 85.176262 -384.337708 11.004156
  endloop
 endfacet
 facet normal -0.707107 0.000000 -0.707107
  outer loop
   vertex 137.176270 -312.837708 8.624156
   vertex 138.176270 -384.337708 7.624156
   vertex 137.176270 -384.337708 8.624156
  endloop
 endfacet
 facet normal -0.707107 0.000000 -0.707107
  outer loop
   vertex 138.176270 -384.337708 7.624156
   vertex 137.176270 -312.837708 8.624156
   vertex 138.176270 -312.837708 7.624156
  endloop
 endfacet
 facet normal -1.000000 0.000000 0.000000
  outer loop
   vertex 138.176270 -384.337708 7.624156
   vertex 138.176270 -382.337708 6.504156
   vertex 138.176270 -384.337708 5.994326
  endloop
 endfacet
 facet normal -1.000000 0.000000 0.000000
  outer loop
   vertex 138.176270 -382.337708 6.504156
   vertex 138.176270 -384.337708 7.624156
   vertex 138.176270 -312.837708 7.624156
  endloop
 endfacet
 facet normal -1.000000 0.000000 0.000000
  outer loop
   vertex 138.176270 -382.337708 6.504156
   vertex 138.176270 -312.837708 7.624156
   vertex 138.176270 -382.087708 6.504156
  endloop
 endfacet
 facet normal -1.000000 0.000000 0.000000
  outer loop
   vertex 138.176270 -382.087708 6.504156
   vertex 138.176270 -312.837708 7.624156
   vertex 138.176270 -381.087708 6.004156
  endloop
 endfacet
 facet normal -1.000000 0.000000 0.000000
  outer loop
   vertex 138.176270 -381.087708 6.004156
   vertex 138.176270 -312.837708 7.624156
   vertex 138.176270 -312.837708 6.004156
  endloop
 endfacet
 facet normal 0.000000 -1.000000 0.000017
  outer loop
   vertex 134.176270 -321.837708 3.504156
   vertex 88.176117 -321.837769 0.004156
   vertex 134.176117 -321.837769 0.004156
  endloop
 endfacet
 facet normal 0.000000 -1.000000 0.000017
  outer loop
   vertex 88.176117 -321.837769 0.004156
   vertex 134.176270 -321.837708 3.504156
   vertex 88.176262 -321.837708 3.504156
  endloop
 endfacet
 facet normal 0.000000 -0.247016 0.969012
  outer loop
   vertex 138.176270 -384.337708 5.994326
   vertex 137.176270 -382.337708 6.504156
   vertex 137.176270 -384.337708 5.994326
  endloop
 endfacet
 facet normal 0.000000 -0.247016 0.969012
  outer loop
   vertex 137.176270 -382.337708 6.504156
   vertex 138.176270 -384.337708 5.994326
   vertex 138.176270 -382.337708 6.504156
  endloop
 endfacet
 facet normal 1.000000 0.000000 0.000000
  outer loop
   vertex 85.176262 -312.837708 8.624156
   vertex 85.176262 -384.337708 11.004156
   vertex 85.176262 -384.337708 8.624156
  endloop
 endfacet
 facet normal 1.000000 0.000000 0.000000
  outer loop
   vertex 85.176262 -384.337708 11.004156
   vertex 85.176262 -312.837708 8.624156
   vertex 85.176262 -312.837708 11.004156
  endloop
 endfacet
 facet normal 0.000000 0.000000 1.000000
  outer loop
   vertex 85.176262 -382.337708 6.504156
   vertex 84.176262 -382.087708 6.504156
   vertex 84.176262 -382.337708 6.504156
  endloop
 endfacet
 facet normal 0.000000 0.000000 1.000000
  outer loop
   vertex 84.176262 -382.087708 6.504156
   vertex 85.176262 -382.337708 6.504156
   vertex 85.176262 -382.087708 6.504156
  endloop
 endfacet
 facet normal 0.000000 -1.000000 0.000000
  outer loop
   vertex 137.176270 -313.837708 6.004156
   vertex 85.176262 -313.837708 3.504156
   vertex 137.176270 -313.837708 3.504156
  endloop
 endfacet
 facet normal 0.000000 -1.000000 0.000000
  outer loop
   vertex 85.176262 -313.837708 3.504156
   vertex 137.176270 -313.837708 6.004156
   vertex 85.176262 -313.837708 6.004156
  endloop
 endfacet
 facet normal -1.000000 0.000000 0.000000
  outer loop
   vertex 137.176270 -312.837708 11.004156
   vertex 137.176270 -384.337708 8.624156
   vertex 137.176270 -384.337708 11.004156
  endloop
 endfacet
 facet normal -1.000000 0.000000 0.000000
  outer loop
   vertex 137.176270 -384.337708 8.624156
   vertex 137.176270 -312.837708 11.004156
   vertex 137.176270 -312.837708 8.624156
  endloop
 endfacet
 facet normal 0.995553 0.094201 0.000000
  outer loop
   vertex 86.677933 -317.746338 1.504156
   vertex 86.739410 -318.396057 3.504156
   vertex 86.739410 -318.396057 1.504156
  endloop
 endfacet
 facet normal 0.995553 0.094201 0.000000
  outer loop
   vertex 86.739410 -318.396057 3.504156
   vertex 86.677933 -317.746338 1.504156
   vertex 86.677933 -317.746338 3.504156
  endloop
 endfacet
 facet normal 0.937250 0.348657 0.000000
  outer loop
   vertex 86.739410 -318.396057 1.504156
   vertex 86.966949 -319.007721 3.504156
   vertex 86.966949 -319.007721 1.504156
  endloop
 endfacet
 facet normal 0.937250 0.348657 0.000000
  outer loop
   vertex 86.966949 -319.007721 3.504156
   vertex 86.739410 -318.396057 1.504156
   vertex 86.739410 -318.396057 3.504156
  endloop
 endfacet
 facet normal 0.815080 0.579349 0.000000
  outer loop
   vertex 86.966949 -319.007721 1.504156
   vertex 87.345055 -319.539673 3.504156
   vertex 87.345055 -319.539673 1.504156
  endloop
 endfacet
 facet normal 0.815080 0.579349 0.000000
  outer loop
   vertex 87.345055 -319.539673 3.504156
   vertex 86.966949 -319.007721 1.504156
   vertex 86.966949 -319.007721 3.504156
  endloop
 endfacet
 facet normal 0.637357 0.770569 0.000000
  outer loop
   vertex 87.345055 -319.539673 3.504156
   vertex 87.847946 -319.955627 1.504156
   vertex 87.345055 -319.539673 1.504156
  endloop
 endfacet
 facet normal 0.637357 0.770569 0.000000
  outer loop
   vertex 87.847946 -319.955627 1.504156
   vertex 87.345055 -319.539673 3.504156
   vertex 87.847946 -319.955627 3.504156
  endloop
 endfacet
 facet normal 0.416214 0.909267 0.000000
  outer loop
   vertex 87.847946 -319.955627 3.504156
   vertex 88.441368 -320.227264 1.504156
   vertex 87.847946 -319.955627 1.504156
  endloop
 endfacet
 facet normal 0.416214 0.909267 0.000000
  outer loop
   vertex 88.441368 -320.227264 1.504156
   vertex 87.847946 -319.955627 3.504156
   vertex 88.441368 -320.227264 3.504156
  endloop
 endfacet
 facet normal 0.166702 0.986007 0.000000
  outer loop
   vertex 88.441368 -320.227264 3.504156
   vertex 89.084869 -320.336060 1.504156
   vertex 88.441368 -320.227264 1.504156
  endloop
 endfacet
 facet normal 0.166702 0.986007 0.000000
  outer loop
   vertex 89.084869 -320.336060 1.504156
   vertex 88.441368 -320.227264 3.504156
   vertex 89.084869 -320.336060 3.504156
  endloop
 endfacet
 facet normal -0.094223 0.995551 0.000000
  outer loop
   vertex 89.084869 -320.336060 3.504156
   vertex 89.734596 -320.274567 1.504156
   vertex 89.084869 -320.336060 1.504156
  endloop
 endfacet
 facet normal -0.094223 0.995551 0.000000
  outer loop
   vertex 89.734596 -320.274567 1.504156
   vertex 89.084869 -320.336060 3.504156
   vertex 89.734596 -320.274567 3.504156
  endloop
 endfacet
 facet normal -0.348650 0.937253 0.000000
  outer loop
   vertex 89.734596 -320.274567 3.504156
   vertex 90.346275 -320.047028 1.504156
   vertex 89.734596 -320.274567 1.504156
  endloop
 endfacet
 facet normal -0.348650 0.937253 0.000000
  outer loop
   vertex 90.346275 -320.047028 1.504156
   vertex 89.734596 -320.274567 3.504156
   vertex 90.346275 -320.047028 3.504156
  endloop
 endfacet
 facet normal -0.579331 0.815092 0.000000
  outer loop
   vertex 90.346275 -320.047028 3.504156
   vertex 90.878220 -319.668945 1.504156
   vertex 90.346275 -320.047028 1.504156
  endloop
 endfacet
 facet normal -0.579331 0.815092 0.000000
  outer loop
   vertex 90.878220 -319.668945 1.504156
   vertex 90.346275 -320.047028 3.504156
   vertex 90.878220 -319.668945 3.504156
  endloop
 endfacet
 facet normal -0.770568 0.637358 0.000000
  outer loop
   vertex 91.294182 -319.166046 3.504156
   vertex 90.878220 -319.668945 1.504156
   vertex 90.878220 -319.668945 3.504156
  endloop
 endfacet
 facet normal -0.770568 0.637358 0.000000
  outer loop
   vertex 90.878220 -319.668945 1.504156
   vertex 91.294182 -319.166046 3.504156
   vertex 91.294182 -319.166046 1.504156
  endloop
 endfacet
 facet normal -0.909277 0.416191 0.000000
  outer loop
   vertex 91.565811 -318.572601 3.504156
   vertex 91.294182 -319.166046 1.504156
   vertex 91.294182 -319.166046 3.504156
  endloop
 endfacet
 facet normal -0.909277 0.416191 0.000000
  outer loop
   vertex 91.294182 -319.166046 1.504156
   vertex 91.565811 -318.572601 3.504156
   vertex 91.565811 -318.572601 1.504156
  endloop
 endfacet
 facet normal -0.986011 0.166681 0.000000
  outer loop
   vertex 91.674591 -317.929108 3.504156
   vertex 91.565811 -318.572601 1.504156
   vertex 91.565811 -318.572601 3.504156
  endloop
 endfacet
 facet normal -0.986011 0.166681 0.000000
  outer loop
   vertex 91.565811 -318.572601 1.504156
   vertex 91.674591 -317.929108 3.504156
   vertex 91.674591 -317.929108 1.504156
  endloop
 endfacet
 facet normal -1.000000 0.000000 0.000000
  outer loop
   vertex 137.176270 -382.337708 6.504156
   vertex 137.176270 -384.337708 3.504156
   vertex 137.176270 -384.337708 5.994326
  endloop
 endfacet
 facet normal -1.000000 0.000000 0.000000
  outer loop
   vertex 137.176270 -384.337708 3.504156
   vertex 137.176270 -382.337708 6.504156
   vertex 137.176270 -381.087708 6.004156
  endloop
 endfacet
 facet normal -1.000000 0.000000 0.000000
  outer loop
   vertex 137.176270 -384.337708 3.504156
   vertex 137.176270 -381.087708 6.004156
   vertex 137.176270 -313.837708 3.504156
  endloop
 endfacet
 facet normal -1.000000 0.000000 0.000000
  outer loop
   vertex 137.176270 -381.087708 6.004156
   vertex 137.176270 -382.337708 6.504156
   vertex 137.176270 -382.087708 6.504156
  endloop
 endfacet
 facet normal -1.000000 0.000000 0.000000
  outer loop
   vertex 137.176270 -313.837708 3.504156
   vertex 137.176270 -381.087708 6.004156
   vertex 137.176270 -313.837708 6.004156
  endloop
 endfacet
 facet normal -1.000000 0.000000 0.000000
  outer loop
   vertex 134.176270 -321.837708 3.504156
   vertex 134.176270 -376.337708 0.004156
   vertex 134.176270 -376.337708 3.504156
  endloop
 endfacet
 facet normal -1.000000 -0.000003 0.000044
  outer loop
   vertex 134.176270 -376.337708 0.004156
   vertex 134.176270 -321.837708 3.504156
   vertex 134.176117 -321.837769 0.004156
  endloop
 endfacet
 facet normal -0.935095 0.354398 0.000000
  outer loop
   vertex 135.686249 -380.933899 3.502092
   vertex 135.445709 -381.568573 1.502092
   vertex 135.445709 -381.568573 3.502092
  endloop
 endfacet
 facet normal -0.935095 0.354398 0.000000
  outer loop
   vertex 135.445709 -381.568573 1.502092
   vertex 135.686249 -380.933899 3.502092
   vertex 135.686249 -380.933899 1.502092
  endloop
 endfacet
 facet normal -0.994959 0.100287 0.000000
  outer loop
   vertex 135.754318 -380.258575 3.502092
   vertex 135.686249 -380.933899 1.502092
   vertex 135.686249 -380.933899 3.502092
  endloop
 endfacet
 facet normal -0.994959 0.100287 0.000000
  outer loop
   vertex 135.686249 -380.933899 1.502092
   vertex 135.754318 -380.258575 3.502092
   vertex 135.754318 -380.258575 1.502092
  endloop
 endfacet
 facet normal -0.632624 0.774459 0.000000
  outer loop
   vertex 134.523438 -382.548767 3.502092
   vertex 135.049088 -382.119385 1.502092
   vertex 134.523438 -382.548767 1.502092
  endloop
 endfacet
 facet normal -0.632624 0.774459 0.000000
  outer loop
   vertex 135.049088 -382.119385 1.502092
   vertex 134.523438 -382.548767 3.502092
   vertex 135.049088 -382.119385 3.502092
  endloop
 endfacet
 facet normal -0.811508 0.584341 0.000000
  outer loop
   vertex 135.445709 -381.568573 3.502092
   vertex 135.049088 -382.119385 1.502092
   vertex 135.049088 -382.119385 3.502092
  endloop
 endfacet
 facet normal -0.811508 0.584341 0.000000
  outer loop
   vertex 135.049088 -382.119385 1.502092
   vertex 135.445709 -381.568573 3.502092
   vertex 135.445709 -381.568573 1.502092
  endloop
 endfacet
 facet normal -0.160650 0.987011 0.000000
  outer loop
   vertex 133.234634 -382.936493 3.502092
   vertex 133.904556 -382.827454 1.502092
   vertex 133.234634 -382.936493 1.502092
  endloop
 endfacet
 facet normal -0.160650 0.987011 0.000000
  outer loop
   vertex 133.904556 -382.827454 1.502092
   vertex 133.234634 -382.936493 3.502092
   vertex 133.904556 -382.827454 3.502092
  endloop
 endfacet
 facet normal -0.410597 0.911817 0.000000
  outer loop
   vertex 133.904556 -382.827454 3.502092
   vertex 134.523438 -382.548767 1.502092
   vertex 133.904556 -382.827454 1.502092
  endloop
 endfacet
 facet normal -0.410597 0.911817 0.000000
  outer loop
   vertex 134.523438 -382.548767 1.502092
   vertex 133.904556 -382.827454 3.502092
   vertex 134.523438 -382.548767 3.502092
  endloop
 endfacet
 facet normal 0.354391 0.935098 0.000000
  outer loop
   vertex 131.924637 -382.627869 3.502092
   vertex 132.559326 -382.868408 1.502092
   vertex 131.924637 -382.627869 1.502092
  endloop
 endfacet
 facet normal 0.354391 0.935098 0.000000
  outer loop
   vertex 132.559326 -382.868408 1.502092
   vertex 131.924637 -382.627869 3.502092
   vertex 132.559326 -382.868408 3.502092
  endloop
 endfacet
 facet normal 0.100312 0.994956 0.000000
  outer loop
   vertex 132.559326 -382.868408 3.502092
   vertex 133.234634 -382.936493 1.502092
   vertex 132.559326 -382.868408 1.502092
  endloop
 endfacet
 facet normal 0.100312 0.994956 0.000000
  outer loop
   vertex 133.234634 -382.936493 1.502092
   vertex 132.559326 -382.868408 3.502092
   vertex 133.234634 -382.936493 3.502092
  endloop
 endfacet
 facet normal 0.774468 0.632613 0.000000
  outer loop
   vertex 130.944458 -381.705597 1.502092
   vertex 131.373840 -382.231262 3.502092
   vertex 131.373840 -382.231262 1.502092
  endloop
 endfacet
 facet normal 0.774468 0.632613 0.000000
  outer loop
   vertex 131.373840 -382.231262 3.502092
   vertex 130.944458 -381.705597 1.502092
   vertex 130.944458 -381.705597 3.502092
  endloop
 endfacet
 facet normal 0.584337 0.811511 0.000000
  outer loop
   vertex 131.373840 -382.231262 3.502092
   vertex 131.924637 -382.627869 1.502092
   vertex 131.373840 -382.231262 1.502092
  endloop
 endfacet
 facet normal 0.584337 0.811511 0.000000
  outer loop
   vertex 131.924637 -382.627869 1.502092
   vertex 131.373840 -382.231262 3.502092
   vertex 131.924637 -382.627869 3.502092
  endloop
 endfacet
 facet normal 0.987015 0.160628 0.000000
  outer loop
   vertex 130.556732 -380.416809 1.502092
   vertex 130.665756 -381.086731 3.502092
   vertex 130.665756 -381.086731 1.502092
  endloop
 endfacet
 facet normal 0.987015 0.160628 0.000000
  outer loop
   vertex 130.665756 -381.086731 3.502092
   vertex 130.556732 -380.416809 1.502092
   vertex 130.556732 -380.416809 3.502092
  endloop
 endfacet
 facet normal 0.911805 0.410625 0.000000
  outer loop
   vertex 130.665756 -381.086731 1.502092
   vertex 130.944458 -381.705597 3.502092
   vertex 130.944458 -381.705597 1.502092
  endloop
 endfacet
 facet normal 0.911805 0.410625 0.000000
  outer loop
   vertex 130.944458 -381.705597 3.502092
   vertex 130.665756 -381.086731 1.502092
   vertex 130.665756 -381.086731 3.502092
  endloop
 endfacet
 facet normal 0.935095 -0.354398 0.000000
  outer loop
   vertex 130.865356 -379.106812 1.502092
   vertex 130.624817 -379.741486 3.502092
   vertex 130.624817 -379.741486 1.502092
  endloop
 endfacet
 facet normal 0.935095 -0.354398 0.000000
  outer loop
   vertex 130.624817 -379.741486 3.502092
   vertex 130.865356 -379.106812 1.502092
   vertex 130.865356 -379.106812 3.502092
  endloop
 endfacet
 facet normal 0.994956 -0.100309 0.000000
  outer loop
   vertex 130.624817 -379.741486 1.502092
   vertex 130.556732 -380.416809 3.502092
   vertex 130.556732 -380.416809 1.502092
  endloop
 endfacet
 facet normal 0.994956 -0.100309 0.000000
  outer loop
   vertex 130.556732 -380.416809 3.502092
   vertex 130.624817 -379.741486 1.502092
   vertex 130.624817 -379.741486 3.502092
  endloop
 endfacet
 facet normal 0.632624 -0.774459 0.000000
  outer loop
   vertex 131.787613 -378.126617 3.502092
   vertex 131.261963 -378.556000 1.502092
   vertex 131.787613 -378.126617 1.502092
  endloop
 endfacet
 facet normal 0.632624 -0.774459 0.000000
  outer loop
   vertex 131.261963 -378.556000 1.502092
   vertex 131.787613 -378.126617 3.502092
   vertex 131.261963 -378.556000 3.502092
  endloop
 endfacet
 facet normal 0.811519 -0.584326 0.000000
  outer loop
   vertex 131.261963 -378.556000 1.502092
   vertex 130.865356 -379.106812 3.502092
   vertex 130.865356 -379.106812 1.502092
  endloop
 endfacet
 facet normal 0.811519 -0.584326 0.000000
  outer loop
   vertex 130.865356 -379.106812 3.502092
   vertex 131.261963 -378.556000 1.502092
   vertex 131.261963 -378.556000 3.502092
  endloop
 endfacet
 facet normal 0.160650 -0.987011 0.000000
  outer loop
   vertex 133.076416 -377.738892 3.502092
   vertex 132.406494 -377.847931 1.502092
   vertex 133.076416 -377.738892 1.502092
  endloop
 endfacet
 facet normal 0.160650 -0.987011 0.000000
  outer loop
   vertex 132.406494 -377.847931 1.502092
   vertex 133.076416 -377.738892 3.502092
   vertex 132.406494 -377.847931 3.502092
  endloop
 endfacet
 facet normal 0.410597 -0.911817 0.000000
  outer loop
   vertex 132.406494 -377.847931 3.502092
   vertex 131.787613 -378.126617 1.502092
   vertex 132.406494 -377.847931 1.502092
  endloop
 endfacet
 facet normal 0.410597 -0.911817 0.000000
  outer loop
   vertex 131.787613 -378.126617 1.502092
   vertex 132.406494 -377.847931 3.502092
   vertex 131.787613 -378.126617 3.502092
  endloop
 endfacet
 facet normal -0.354398 -0.935095 0.000000
  outer loop
   vertex 134.386414 -378.047516 3.502092
   vertex 133.751740 -377.806976 1.502092
   vertex 134.386414 -378.047516 1.502092
  endloop
 endfacet
 facet normal -0.354398 -0.935095 0.000000
  outer loop
   vertex 133.751740 -377.806976 1.502092
   vertex 134.386414 -378.047516 3.502092
   vertex 133.751740 -377.806976 3.502092
  endloop
 endfacet
 facet normal -0.100309 -0.994956 0.000000
  outer loop
   vertex 133.751740 -377.806976 3.502092
   vertex 133.076416 -377.738892 1.502092
   vertex 133.751740 -377.806976 1.502092
  endloop
 endfacet
 facet normal -0.100309 -0.994956 0.000000
  outer loop
   vertex 133.076416 -377.738892 1.502092
   vertex 133.751740 -377.806976 3.502092
   vertex 133.076416 -377.738892 3.502092
  endloop
 endfacet
 facet normal -0.774468 -0.632613 0.000000
  outer loop
   vertex 134.937210 -378.444122 3.502092
   vertex 135.366592 -378.969788 1.502092
   vertex 135.366592 -378.969788 3.502092
  endloop
 endfacet
 facet normal -0.774468 -0.632613 0.000000
  outer loop
   vertex 135.366592 -378.969788 1.502092
   vertex 134.937210 -378.444122 3.502092
   vertex 134.937210 -378.444122 1.502092
  endloop
 endfacet
 facet normal -0.584337 -0.811511 0.000000
  outer loop
   vertex 134.937210 -378.444122 3.502092
   vertex 134.386414 -378.047516 1.502092
   vertex 134.937210 -378.444122 1.502092
  endloop
 endfacet
 facet normal -0.584337 -0.811511 0.000000
  outer loop
   vertex 134.386414 -378.047516 1.502092
   vertex 134.937210 -378.444122 3.502092
   vertex 134.386414 -378.047516 3.502092
  endloop
 endfacet
 facet normal 1.000000 0.000000 -0.000041
  outer loop
   vertex 88.176117 -321.837769 0.004156
   vertex 88.176262 -376.337585 3.504115
   vertex 88.176117 -376.337646 0.004115
  endloop
 endfacet
 facet normal 1.000000 0.000000 -0.000041
  outer loop
   vertex 88.176262 -376.337585 3.504115
   vertex 88.176117 -321.837769 0.004156
   vertex 88.176262 -321.837708 3.504156
  endloop
 endfacet
 facet normal -0.911805 -0.410625 0.000000
  outer loop
   vertex 135.366592 -378.969788 3.502092
   vertex 135.645294 -379.588654 1.502092
   vertex 135.645294 -379.588654 3.502092
  endloop
 endfacet
 facet normal -0.911805 -0.410625 0.000000
  outer loop
   vertex 135.645294 -379.588654 1.502092
   vertex 135.366592 -378.969788 3.502092
   vertex 135.366592 -378.969788 1.502092
  endloop
 endfacet
 facet normal 0.000000 0.000000 1.000000
  outer loop
   vertex 138.176270 -381.087708 6.004156
   vertex 137.176270 -313.837708 6.004156
   vertex 137.176270 -381.087708 6.004156
  endloop
 endfacet
 facet normal 0.000000 0.000000 1.000000
  outer loop
   vertex 137.176270 -313.837708 6.004156
   vertex 138.176270 -381.087708 6.004156
   vertex 138.176270 -312.837708 6.004156
  endloop
 endfacet
 facet normal 1.000000 0.000000 0.000000
  outer loop
   vertex 85.176262 -313.837708 3.504156
   vertex 85.176262 -384.337708 6.004156
   vertex 85.176262 -384.337708 3.504156
  endloop
 endfacet
 facet normal 1.000000 0.000000 0.000000
  outer loop
   vertex 85.176262 -384.337708 6.004156
   vertex 85.176262 -313.837708 3.504156
   vertex 85.176262 -381.087708 6.004156
  endloop
 endfacet
 facet normal 1.000000 0.000000 0.000000
  outer loop
   vertex 85.176262 -384.337708 6.004156
   vertex 85.176262 -381.087708 6.004156
   vertex 85.176262 -382.337708 6.504156
  endloop
 endfacet
 facet normal 1.000000 0.000000 0.000000
  outer loop
   vertex 85.176262 -382.337708 6.504156
   vertex 85.176262 -381.087708 6.004156
   vertex 85.176262 -382.087708 6.504156
  endloop
 endfacet
 facet normal 1.000000 0.000000 0.000000
  outer loop
   vertex 85.176262 -381.087708 6.004156
   vertex 85.176262 -313.837708 3.504156
   vertex 85.176262 -313.837708 6.004156
  endloop
 endfacet
 facet normal 0.000000 0.000000 1.000000
  outer loop
   vertex 138.176270 -382.337708 6.504156
   vertex 137.176270 -382.087708 6.504156
   vertex 137.176270 -382.337708 6.504156
  endloop
 endfacet
 facet normal 0.000000 0.000000 1.000000
  outer loop
   vertex 137.176270 -382.087708 6.504156
   vertex 138.176270 -382.337708 6.504156
   vertex 138.176270 -382.087708 6.504156
  endloop
 endfacet
 facet normal 0.000000 0.447214 0.894427
  outer loop
   vertex 138.176270 -382.087708 6.504156
   vertex 137.176270 -381.087708 6.004156
   vertex 137.176270 -382.087708 6.504156
  endloop
 endfacet
 facet normal 0.000000 0.447214 0.894427
  outer loop
   vertex 137.176270 -381.087708 6.004156
   vertex 138.176270 -382.087708 6.504156
   vertex 138.176270 -381.087708 6.004156
  endloop
 endfacet
 facet normal 0.000000 -1.000000 0.000000
  outer loop
   vertex 138.176270 -312.837708 7.624156
   vertex 84.176262 -312.837708 6.004156
   vertex 138.176270 -312.837708 6.004156
  endloop
 endfacet
 facet normal 0.000000 -1.000000 0.000000
  outer loop
   vertex 84.176262 -312.837708 6.004156
   vertex 138.176270 -312.837708 7.624156
   vertex 84.176262 -312.837708 7.624156
  endloop
 endfacet
 facet normal 0.000000 -1.000000 0.000000
  outer loop
   vertex 84.176262 -312.837708 7.624156
   vertex 138.176270 -312.837708 7.624156
   vertex 137.176270 -312.837708 8.624156
  endloop
 endfacet
 facet normal 0.000000 -1.000000 0.000000
  outer loop
   vertex 84.176262 -312.837708 7.624156
   vertex 137.176270 -312.837708 8.624156
   vertex 85.176262 -312.837708 8.624156
  endloop
 endfacet
 facet normal 0.000000 -1.000000 0.000000
  outer loop
   vertex 85.176262 -312.837708 8.624156
   vertex 137.176270 -312.837708 8.624156
   vertex 137.176270 -312.837708 11.004156
  endloop
 endfacet
 facet normal 0.000000 -1.000000 0.000000
  outer loop
   vertex 85.176262 -312.837708 8.624156
   vertex 137.176270 -312.837708 11.004156
   vertex 85.176262 -312.837708 11.004156
  endloop
 endfacet
 facet normal 0.000000 0.447214 0.894427
  outer loop
   vertex 85.176262 -382.087708 6.504156
   vertex 84.176262 -381.087708 6.004156
   vertex 84.176262 -382.087708 6.504156
  endloop
 endfacet
 facet normal 0.000000 0.447214 0.894427
  outer loop
   vertex 84.176262 -381.087708 6.004156
   vertex 85.176262 -382.087708 6.504156
   vertex 85.176262 -381.087708 6.004156
  endloop
 endfacet
 facet normal 0.000000 -0.242536 0.970143
  outer loop
   vertex 85.176262 -384.337708 6.004156
   vertex 84.176262 -382.337708 6.504156
   vertex 84.176262 -384.337708 6.004156
  endloop
 endfacet
 facet normal 0.000000 -0.242536 0.970143
  outer loop
   vertex 84.176262 -382.337708 6.504156
   vertex 85.176262 -384.337708 6.004156
   vertex 85.176262 -382.337708 6.504156
  endloop
 endfacet
 facet normal 0.608925 -0.793228 0.000000
  outer loop
   vertex 88.425934 -316.538879 1.504156
   vertex 88.115334 -316.777313 0.007831
   vertex 88.425934 -316.538879 0.007831
  endloop
 endfacet
 facet normal 0.608925 -0.793228 0.000000
  outer loop
   vertex 88.115334 -316.777313 0.007831
   vertex 88.425934 -316.538879 1.504156
   vertex 88.115334 -316.777313 1.504156
  endloop
 endfacet
 facet normal 0.793520 -0.608544 0.000000
  outer loop
   vertex 88.115334 -316.777313 0.007831
   vertex 87.877037 -317.088043 1.504156
   vertex 87.877037 -317.088043 0.007831
  endloop
 endfacet
 facet normal 0.793520 -0.608544 0.000000
  outer loop
   vertex 87.877037 -317.088043 1.504156
   vertex 88.115334 -316.777313 0.007831
   vertex 88.115334 -316.777313 1.504156
  endloop
 endfacet
 facet normal 0.923981 -0.382440 0.000000
  outer loop
   vertex 87.877037 -317.088043 0.007831
   vertex 87.727280 -317.449860 1.504156
   vertex 87.727280 -317.449860 0.007831
  endloop
 endfacet
 facet normal 0.923981 -0.382440 0.000000
  outer loop
   vertex 87.727280 -317.449860 1.504156
   vertex 87.877037 -317.088043 0.007831
   vertex 87.877037 -317.088043 1.504156
  endloop
 endfacet
 facet normal 0.991476 -0.130286 0.000000
  outer loop
   vertex 87.727280 -317.449860 0.007831
   vertex 87.676262 -317.838104 1.504156
   vertex 87.676262 -317.838104 0.007831
  endloop
 endfacet
 facet normal 0.991476 -0.130286 0.000000
  outer loop
   vertex 87.676262 -317.838104 1.504156
   vertex 87.727280 -317.449860 0.007831
   vertex 87.727280 -317.449860 1.504156
  endloop
 endfacet
 facet normal 0.991412 0.130775 0.000000
  outer loop
   vertex 87.676262 -317.838104 0.007831
   vertex 87.727470 -318.226318 1.504156
   vertex 87.727470 -318.226318 0.007831
  endloop
 endfacet
 facet normal 0.991412 0.130775 0.000000
  outer loop
   vertex 87.727470 -318.226318 1.504156
   vertex 87.676262 -317.838104 0.007831
   vertex 87.676262 -317.838104 1.504156
  endloop
 endfacet
 facet normal 0.923781 0.382921 0.000000
  outer loop
   vertex 87.727470 -318.226318 0.007831
   vertex 87.877411 -318.588043 1.504156
   vertex 87.877411 -318.588043 0.007831
  endloop
 endfacet
 facet normal 0.923781 0.382921 0.000000
  outer loop
   vertex 87.877411 -318.588043 1.504156
   vertex 87.727470 -318.226318 0.007831
   vertex 87.727470 -318.226318 1.504156
  endloop
 endfacet
 facet normal 0.793207 0.608952 0.000000
  outer loop
   vertex 87.877411 -318.588043 0.007831
   vertex 88.115868 -318.898651 1.504156
   vertex 88.115868 -318.898651 0.007831
  endloop
 endfacet
 facet normal 0.793207 0.608952 0.000000
  outer loop
   vertex 88.115868 -318.898651 1.504156
   vertex 87.877411 -318.588043 0.007831
   vertex 87.877411 -318.588043 1.504156
  endloop
 endfacet
 facet normal 0.608529 0.793531 0.000000
  outer loop
   vertex 88.115868 -318.898651 1.504156
   vertex 88.426590 -319.136932 0.007831
   vertex 88.115868 -318.898651 0.007831
  endloop
 endfacet
 facet normal 0.608529 0.793531 0.000000
  outer loop
   vertex 88.426590 -319.136932 0.007831
   vertex 88.115868 -318.898651 1.504156
   vertex 88.426590 -319.136932 1.504156
  endloop
 endfacet
 facet normal 0.382496 0.923957 0.000000
  outer loop
   vertex 88.426590 -319.136932 1.504156
   vertex 88.788399 -319.286713 0.007831
   vertex 88.426590 -319.136932 0.007831
  endloop
 endfacet
 facet normal 0.382496 0.923957 0.000000
  outer loop
   vertex 88.788399 -319.286713 0.007831
   vertex 88.426590 -319.136932 1.504156
   vertex 88.788399 -319.286713 1.504156
  endloop
 endfacet
 facet normal 0.130229 0.991484 0.000000
  outer loop
   vertex 88.788399 -319.286713 1.504156
   vertex 89.176643 -319.337708 0.007831
   vertex 88.788399 -319.286713 0.007831
  endloop
 endfacet
 facet normal 0.130229 0.991484 0.000000
  outer loop
   vertex 89.176643 -319.337708 0.007831
   vertex 88.788399 -319.286713 1.504156
   vertex 89.176643 -319.337708 1.504156
  endloop
 endfacet
 facet normal -0.130775 0.991412 0.000000
  outer loop
   vertex 89.176643 -319.337708 1.504156
   vertex 89.564857 -319.286499 0.007831
   vertex 89.176643 -319.337708 0.007831
  endloop
 endfacet
 facet normal -0.130775 0.991412 0.000000
  outer loop
   vertex 89.564857 -319.286499 0.007831
   vertex 89.176643 -319.337708 1.504156
   vertex 89.564857 -319.286499 1.504156
  endloop
 endfacet
 facet normal -0.382898 0.923791 0.000000
  outer loop
   vertex 89.564857 -319.286499 1.504156
   vertex 89.926590 -319.136566 0.007831
   vertex 89.564857 -319.286499 0.007831
  endloop
 endfacet
 facet normal -0.382898 0.923791 0.000000
  outer loop
   vertex 89.926590 -319.136566 0.007831
   vertex 89.564857 -319.286499 1.504156
   vertex 89.926590 -319.136566 1.504156
  endloop
 endfacet
 facet normal -0.608974 0.793190 0.000000
  outer loop
   vertex 89.926590 -319.136566 1.504156
   vertex 90.237190 -318.898102 0.007831
   vertex 89.926590 -319.136566 0.007831
  endloop
 endfacet
 facet normal -0.608974 0.793190 0.000000
  outer loop
   vertex 90.237190 -318.898102 0.007831
   vertex 89.926590 -319.136566 1.504156
   vertex 90.237190 -318.898102 1.504156
  endloop
 endfacet
 facet normal -0.793491 0.608582 0.000000
  outer loop
   vertex 90.475487 -318.587402 1.504156
   vertex 90.237190 -318.898102 0.007831
   vertex 90.237190 -318.898102 1.504156
  endloop
 endfacet
 facet normal -0.793491 0.608582 0.000000
  outer loop
   vertex 90.237190 -318.898102 0.007831
   vertex 90.475487 -318.587402 1.504156
   vertex 90.475487 -318.587402 0.007831
  endloop
 endfacet
 facet normal -0.923974 0.382456 0.000000
  outer loop
   vertex 90.625252 -318.225586 1.504156
   vertex 90.475487 -318.587402 0.007831
   vertex 90.475487 -318.587402 1.504156
  endloop
 endfacet
 facet normal -0.923974 0.382456 0.000000
  outer loop
   vertex 90.475487 -318.587402 0.007831
   vertex 90.625252 -318.225586 1.504156
   vertex 90.625252 -318.225586 0.007831
  endloop
 endfacet
 facet normal -0.991479 0.130267 0.000000
  outer loop
   vertex 90.676262 -317.837341 1.504156
   vertex 90.625252 -318.225586 0.007831
   vertex 90.625252 -318.225586 1.504156
  endloop
 endfacet
 facet normal -0.991479 0.130267 0.000000
  outer loop
   vertex 90.625252 -318.225586 0.007831
   vertex 90.676262 -317.837341 1.504156
   vertex 90.676262 -317.837341 0.007831
  endloop
 endfacet
 facet normal -0.991412 -0.130775 0.000000
  outer loop
   vertex 90.625053 -317.449127 1.504156
   vertex 90.676262 -317.837341 0.007831
   vertex 90.676262 -317.837341 1.504156
  endloop
 endfacet
 facet normal -0.991412 -0.130775 0.000000
  outer loop
   vertex 90.676262 -317.837341 0.007831
   vertex 90.625053 -317.449127 1.504156
   vertex 90.625053 -317.449127 0.007831
  endloop
 endfacet
 facet normal -0.923781 -0.382921 0.000000
  outer loop
   vertex 90.475113 -317.087402 1.504156
   vertex 90.625053 -317.449127 0.007831
   vertex 90.625053 -317.449127 1.504156
  endloop
 endfacet
 facet normal -0.923781 -0.382921 0.000000
  outer loop
   vertex 90.625053 -317.449127 0.007831
   vertex 90.475113 -317.087402 1.504156
   vertex 90.475113 -317.087402 0.007831
  endloop
 endfacet
 facet normal -0.793207 -0.608952 0.000000
  outer loop
   vertex 90.236656 -316.776794 1.504156
   vertex 90.475113 -317.087402 0.007831
   vertex 90.475113 -317.087402 1.504156
  endloop
 endfacet
 facet normal -0.793207 -0.608952 0.000000
  outer loop
   vertex 90.475113 -317.087402 0.007831
   vertex 90.236656 -316.776794 1.504156
   vertex 90.236656 -316.776794 0.007831
  endloop
 endfacet
 facet normal -0.608578 -0.793494 0.000000
  outer loop
   vertex 90.236656 -316.776794 1.504156
   vertex 89.925934 -316.538483 0.007831
   vertex 90.236656 -316.776794 0.007831
  endloop
 endfacet
 facet normal -0.608578 -0.793494 0.000000
  outer loop
   vertex 89.925934 -316.538483 0.007831
   vertex 90.236656 -316.776794 1.504156
   vertex 89.925934 -316.538483 1.504156
  endloop
 endfacet
 facet normal -0.382430 -0.923985 0.000000
  outer loop
   vertex 89.925934 -316.538483 1.504156
   vertex 89.564125 -316.388733 0.007831
   vertex 89.925934 -316.538483 0.007831
  endloop
 endfacet
 facet normal -0.382430 -0.923985 0.000000
  outer loop
   vertex 89.564125 -316.388733 0.007831
   vertex 89.925934 -316.538483 1.504156
   vertex 89.564125 -316.388733 1.504156
  endloop
 endfacet
 facet normal -0.130308 -0.991474 0.000000
  outer loop
   vertex 89.564125 -316.388733 1.504156
   vertex 89.175888 -316.337708 0.007831
   vertex 89.564125 -316.388733 0.007831
  endloop
 endfacet
 facet normal -0.130308 -0.991474 0.000000
  outer loop
   vertex 89.175888 -316.337708 0.007831
   vertex 89.564125 -316.388733 1.504156
   vertex 89.175888 -316.337708 1.504156
  endloop
 endfacet
 facet normal 0.130773 -0.991412 0.000000
  outer loop
   vertex 89.175888 -316.337708 1.504156
   vertex 88.787666 -316.388916 0.007831
   vertex 89.175888 -316.337708 0.007831
  endloop
 endfacet
 facet normal 0.130773 -0.991412 0.000000
  outer loop
   vertex 88.787666 -316.388916 0.007831
   vertex 89.175888 -316.337708 1.504156
   vertex 88.787666 -316.388916 1.504156
  endloop
 endfacet
 facet normal 0.382964 -0.923763 0.000000
  outer loop
   vertex 88.787666 -316.388916 1.504156
   vertex 88.425934 -316.538879 0.007831
   vertex 88.787666 -316.388916 0.007831
  endloop
 endfacet
 facet normal 0.382964 -0.923763 0.000000
  outer loop
   vertex 88.425934 -316.538879 0.007831
   vertex 88.787666 -316.388916 1.504156
   vertex 88.425934 -316.538879 1.504156
  endloop
 endfacet
 facet normal 0.000000 0.000000 1.000000
  outer loop
   vertex 86.739410 -318.396057 1.504156
   vertex 86.786720 -317.102814 1.504156
   vertex 86.677933 -317.746338 1.504156
  endloop
 endfacet
 facet normal 0.000000 0.000000 1.000000
  outer loop
   vertex 86.786720 -317.102814 1.504156
   vertex 86.739410 -318.396057 1.504156
   vertex 86.966949 -319.007721 1.504156
  endloop
 endfacet
 facet normal 0.000000 0.000000 1.000000
  outer loop
   vertex 86.786720 -317.102814 1.504156
   vertex 86.966949 -319.007721 1.504156
   vertex 87.058342 -316.509399 1.504156
  endloop
 endfacet
 facet normal 0.000000 0.000000 1.000000
  outer loop
   vertex 87.058342 -316.509399 1.504156
   vertex 86.966949 -319.007721 1.504156
   vertex 87.345055 -319.539673 1.504156
  endloop
 endfacet
 facet normal 0.000000 0.000000 1.000000
  outer loop
   vertex 87.058342 -316.509399 1.504156
   vertex 87.345055 -319.539673 1.504156
   vertex 87.474304 -316.006500 1.504156
  endloop
 endfacet
 facet normal 0.000000 0.000000 1.000000
  outer loop
   vertex 87.474304 -316.006500 1.504156
   vertex 87.345055 -319.539673 1.504156
   vertex 87.847946 -319.955627 1.504156
  endloop
 endfacet
 facet normal 0.000000 0.000000 1.000000
  outer loop
   vertex 87.474304 -316.006500 1.504156
   vertex 87.847946 -319.955627 1.504156
   vertex 87.676262 -317.838104 1.504156
  endloop
 endfacet
 facet normal 0.000000 0.000000 1.000000
  outer loop
   vertex 87.676262 -317.838104 1.504156
   vertex 87.847946 -319.955627 1.504156
   vertex 87.727470 -318.226318 1.504156
  endloop
 endfacet
 facet normal 0.000000 0.000000 1.000000
  outer loop
   vertex 87.727470 -318.226318 1.504156
   vertex 87.847946 -319.955627 1.504156
   vertex 87.877411 -318.588043 1.504156
  endloop
 endfacet
 facet normal 0.000000 0.000000 1.000000
  outer loop
   vertex 87.877411 -318.588043 1.504156
   vertex 87.847946 -319.955627 1.504156
   vertex 88.441368 -320.227264 1.504156
  endloop
 endfacet
 facet normal 0.000000 0.000000 1.000000
  outer loop
   vertex 87.877411 -318.588043 1.504156
   vertex 88.441368 -320.227264 1.504156
   vertex 88.115868 -318.898651 1.504156
  endloop
 endfacet
 facet normal 0.000000 0.000000 1.000000
  outer loop
   vertex 88.115868 -318.898651 1.504156
   vertex 88.441368 -320.227264 1.504156
   vertex 88.426590 -319.136932 1.504156
  endloop
 endfacet
 facet normal 0.000000 0.000000 1.000000
  outer loop
   vertex 88.426590 -319.136932 1.504156
   vertex 88.441368 -320.227264 1.504156
   vertex 88.788399 -319.286713 1.504156
  endloop
 endfacet
 facet normal 0.000000 0.000000 1.000000
  outer loop
   vertex 88.788399 -319.286713 1.504156
   vertex 88.441368 -320.227264 1.504156
   vertex 89.084869 -320.336060 1.504156
  endloop
 endfacet
 facet normal 0.000000 0.000000 1.000000
  outer loop
   vertex 88.788399 -319.286713 1.504156
   vertex 89.084869 -320.336060 1.504156
   vertex 89.176643 -319.337708 1.504156
  endloop
 endfacet
 facet normal 0.000000 0.000000 1.000000
  outer loop
   vertex 89.176643 -319.337708 1.504156
   vertex 89.084869 -320.336060 1.504156
   vertex 89.734596 -320.274567 1.504156
  endloop
 endfacet
 facet normal 0.000000 0.000000 1.000000
  outer loop
   vertex 89.176643 -319.337708 1.504156
   vertex 89.734596 -320.274567 1.504156
   vertex 89.564857 -319.286499 1.504156
  endloop
 endfacet
 facet normal 0.000000 0.000000 1.000000
  outer loop
   vertex 89.564857 -319.286499 1.504156
   vertex 89.734596 -320.274567 1.504156
   vertex 89.926590 -319.136566 1.504156
  endloop
 endfacet
 facet normal 0.000000 0.000000 1.000000
  outer loop
   vertex 89.926590 -319.136566 1.504156
   vertex 89.734596 -320.274567 1.504156
   vertex 90.346275 -320.047028 1.504156
  endloop
 endfacet
 facet normal 0.000000 0.000000 1.000000
  outer loop
   vertex 89.926590 -319.136566 1.504156
   vertex 90.346275 -320.047028 1.504156
   vertex 90.237190 -318.898102 1.504156
  endloop
 endfacet
 facet normal 0.000000 0.000000 1.000000
  outer loop
   vertex 90.237190 -318.898102 1.504156
   vertex 90.346275 -320.047028 1.504156
   vertex 90.475487 -318.587402 1.504156
  endloop
 endfacet
 facet normal 0.000000 0.000000 1.000000
  outer loop
   vertex 90.475487 -318.587402 1.504156
   vertex 90.346275 -320.047028 1.504156
   vertex 90.878220 -319.668945 1.504156
  endloop
 endfacet
 facet normal 0.000000 0.000000 1.000000
  outer loop
   vertex 90.475487 -318.587402 1.504156
   vertex 90.878220 -319.668945 1.504156
   vertex 90.625252 -318.225586 1.504156
  endloop
 endfacet
 facet normal 0.000000 0.000000 1.000000
  outer loop
   vertex 90.625252 -318.225586 1.504156
   vertex 90.878220 -319.668945 1.504156
   vertex 90.676262 -317.837341 1.504156
  endloop
 endfacet
 facet normal 0.000000 0.000000 1.000000
  outer loop
   vertex 87.474304 -316.006500 1.504156
   vertex 87.727280 -317.449860 1.504156
   vertex 88.006248 -315.628418 1.504156
  endloop
 endfacet
 facet normal 0.000000 0.000000 1.000000
  outer loop
   vertex 87.727280 -317.449860 1.504156
   vertex 87.474304 -316.006500 1.504156
   vertex 87.676262 -317.838104 1.504156
  endloop
 endfacet
 facet normal 0.000000 0.000000 1.000000
  outer loop
   vertex 88.006248 -315.628418 1.504156
   vertex 87.727280 -317.449860 1.504156
   vertex 87.877037 -317.088043 1.504156
  endloop
 endfacet
 facet normal 0.000000 0.000000 1.000000
  outer loop
   vertex 88.006248 -315.628418 1.504156
   vertex 87.877037 -317.088043 1.504156
   vertex 88.115334 -316.777313 1.504156
  endloop
 endfacet
 facet normal 0.000000 0.000000 1.000000
  outer loop
   vertex 88.006248 -315.628418 1.504156
   vertex 88.115334 -316.777313 1.504156
   vertex 88.617928 -315.400848 1.504156
  endloop
 endfacet
 facet normal 0.000000 0.000000 1.000000
  outer loop
   vertex 88.617928 -315.400848 1.504156
   vertex 88.115334 -316.777313 1.504156
   vertex 88.425934 -316.538879 1.504156
  endloop
 endfacet
 facet normal 0.000000 0.000000 1.000000
  outer loop
   vertex 88.617928 -315.400848 1.504156
   vertex 88.425934 -316.538879 1.504156
   vertex 88.787666 -316.388916 1.504156
  endloop
 endfacet
 facet normal 0.000000 0.000000 1.000000
  outer loop
   vertex 88.617928 -315.400848 1.504156
   vertex 88.787666 -316.388916 1.504156
   vertex 89.267654 -315.339386 1.504156
  endloop
 endfacet
 facet normal 0.000000 0.000000 1.000000
  outer loop
   vertex 89.267654 -315.339386 1.504156
   vertex 88.787666 -316.388916 1.504156
   vertex 89.175888 -316.337708 1.504156
  endloop
 endfacet
 facet normal 0.000000 0.000000 1.000000
  outer loop
   vertex 89.267654 -315.339386 1.504156
   vertex 89.175888 -316.337708 1.504156
   vertex 89.564125 -316.388733 1.504156
  endloop
 endfacet
 facet normal 0.000000 0.000000 1.000000
  outer loop
   vertex 89.267654 -315.339386 1.504156
   vertex 89.564125 -316.388733 1.504156
   vertex 89.911156 -315.448181 1.504156
  endloop
 endfacet
 facet normal 0.000000 0.000000 1.000000
  outer loop
   vertex 89.911156 -315.448181 1.504156
   vertex 89.564125 -316.388733 1.504156
   vertex 89.925934 -316.538483 1.504156
  endloop
 endfacet
 facet normal 0.000000 0.000000 1.000000
  outer loop
   vertex 89.911156 -315.448181 1.504156
   vertex 89.925934 -316.538483 1.504156
   vertex 90.504578 -315.719788 1.504156
  endloop
 endfacet
 facet normal 0.000000 0.000000 1.000000
  outer loop
   vertex 90.504578 -315.719788 1.504156
   vertex 89.925934 -316.538483 1.504156
   vertex 90.236656 -316.776794 1.504156
  endloop
 endfacet
 facet normal 0.000000 0.000000 1.000000
  outer loop
   vertex 90.504578 -315.719788 1.504156
   vertex 90.236656 -316.776794 1.504156
   vertex 90.475113 -317.087402 1.504156
  endloop
 endfacet
 facet normal 0.000000 0.000000 1.000000
  outer loop
   vertex 90.504578 -315.719788 1.504156
   vertex 90.475113 -317.087402 1.504156
   vertex 90.625053 -317.449127 1.504156
  endloop
 endfacet
 facet normal 0.000000 0.000000 1.000000
  outer loop
   vertex 90.504578 -315.719788 1.504156
   vertex 90.625053 -317.449127 1.504156
   vertex 91.007477 -316.135773 1.504156
  endloop
 endfacet
 facet normal 0.000000 0.000000 1.000000
  outer loop
   vertex 91.007477 -316.135773 1.504156
   vertex 90.625053 -317.449127 1.504156
   vertex 90.676262 -317.837341 1.504156
  endloop
 endfacet
 facet normal 0.000000 0.000000 1.000000
  outer loop
   vertex 91.007477 -316.135773 1.504156
   vertex 90.676262 -317.837341 1.504156
   vertex 90.878220 -319.668945 1.504156
  endloop
 endfacet
 facet normal 0.000000 0.000000 1.000000
  outer loop
   vertex 91.007477 -316.135773 1.504156
   vertex 90.878220 -319.668945 1.504156
   vertex 91.294182 -319.166046 1.504156
  endloop
 endfacet
 facet normal 0.000000 0.000000 1.000000
  outer loop
   vertex 91.007477 -316.135773 1.504156
   vertex 91.294182 -319.166046 1.504156
   vertex 91.385574 -316.667694 1.504156
  endloop
 endfacet
 facet normal 0.000000 0.000000 1.000000
  outer loop
   vertex 91.385574 -316.667694 1.504156
   vertex 91.294182 -319.166046 1.504156
   vertex 91.565811 -318.572601 1.504156
  endloop
 endfacet
 facet normal 0.000000 0.000000 1.000000
  outer loop
   vertex 91.385574 -316.667694 1.504156
   vertex 91.565811 -318.572601 1.504156
   vertex 91.613121 -317.279388 1.504156
  endloop
 endfacet
 facet normal 0.000000 0.000000 1.000000
  outer loop
   vertex 91.613121 -317.279388 1.504156
   vertex 91.565811 -318.572601 1.504156
   vertex 91.674591 -317.929108 1.504156
  endloop
 endfacet
 facet normal -0.995554 -0.094190 0.000000
  outer loop
   vertex 91.613121 -317.279388 3.504156
   vertex 91.674591 -317.929108 1.504156
   vertex 91.674591 -317.929108 3.504156
  endloop
 endfacet
 facet normal -0.995554 -0.094190 0.000000
  outer loop
   vertex 91.674591 -317.929108 1.504156
   vertex 91.613121 -317.279388 3.504156
   vertex 91.613121 -317.279388 1.504156
  endloop
 endfacet
 facet normal -0.937252 -0.348652 0.000000
  outer loop
   vertex 91.385574 -316.667694 3.504156
   vertex 91.613121 -317.279388 1.504156
   vertex 91.613121 -317.279388 3.504156
  endloop
 endfacet
 facet normal -0.937252 -0.348652 0.000000
  outer loop
   vertex 91.613121 -317.279388 1.504156
   vertex 91.385574 -316.667694 3.504156
   vertex 91.385574 -316.667694 1.504156
  endloop
 endfacet
 facet normal -0.815069 -0.579363 0.000000
  outer loop
   vertex 91.007477 -316.135773 3.504156
   vertex 91.385574 -316.667694 1.504156
   vertex 91.385574 -316.667694 3.504156
  endloop
 endfacet
 facet normal -0.815069 -0.579363 0.000000
  outer loop
   vertex 91.385574 -316.667694 1.504156
   vertex 91.007477 -316.135773 3.504156
   vertex 91.007477 -316.135773 1.504156
  endloop
 endfacet
 facet normal -0.637379 -0.770550 0.000000
  outer loop
   vertex 91.007477 -316.135773 3.504156
   vertex 90.504578 -315.719788 1.504156
   vertex 91.007477 -316.135773 1.504156
  endloop
 endfacet
 facet normal -0.637379 -0.770550 0.000000
  outer loop
   vertex 90.504578 -315.719788 1.504156
   vertex 91.007477 -316.135773 3.504156
   vertex 90.504578 -315.719788 3.504156
  endloop
 endfacet
 facet normal -0.416175 -0.909284 0.000000
  outer loop
   vertex 90.504578 -315.719788 3.504156
   vertex 89.911156 -315.448181 1.504156
   vertex 90.504578 -315.719788 1.504156
  endloop
 endfacet
 facet normal -0.416175 -0.909284 0.000000
  outer loop
   vertex 89.911156 -315.448181 1.504156
   vertex 90.504578 -315.719788 3.504156
   vertex 89.911156 -315.448181 3.504156
  endloop
 endfacet
 facet normal -0.166702 -0.986007 0.000000
  outer loop
   vertex 89.911156 -315.448181 3.504156
   vertex 89.267654 -315.339386 1.504156
   vertex 89.911156 -315.448181 1.504156
  endloop
 endfacet
 facet normal -0.166702 -0.986007 0.000000
  outer loop
   vertex 89.267654 -315.339386 1.504156
   vertex 89.911156 -315.448181 3.504156
   vertex 89.267654 -315.339386 3.504156
  endloop
 endfacet
 facet normal 0.094177 -0.995555 0.000000
  outer loop
   vertex 89.267654 -315.339386 3.504156
   vertex 88.617928 -315.400848 1.504156
   vertex 89.267654 -315.339386 1.504156
  endloop
 endfacet
 facet normal 0.094177 -0.995555 0.000000
  outer loop
   vertex 88.617928 -315.400848 1.504156
   vertex 89.267654 -315.339386 3.504156
   vertex 88.617928 -315.400848 3.504156
  endloop
 endfacet
 facet normal 0.348691 -0.937238 0.000000
  outer loop
   vertex 88.617928 -315.400848 3.504156
   vertex 88.006248 -315.628418 1.504156
   vertex 88.617928 -315.400848 1.504156
  endloop
 endfacet
 facet normal 0.348691 -0.937238 0.000000
  outer loop
   vertex 88.006248 -315.628418 1.504156
   vertex 88.617928 -315.400848 3.504156
   vertex 88.006248 -315.628418 3.504156
  endloop
 endfacet
 facet normal 0.579331 -0.815092 0.000000
  outer loop
   vertex 88.006248 -315.628418 3.504156
   vertex 87.474304 -316.006500 1.504156
   vertex 88.006248 -315.628418 1.504156
  endloop
 endfacet
 facet normal 0.579331 -0.815092 0.000000
  outer loop
   vertex 87.474304 -316.006500 1.504156
   vertex 88.006248 -315.628418 3.504156
   vertex 87.474304 -316.006500 3.504156
  endloop
 endfacet
 facet normal 0.770568 -0.637358 0.000000
  outer loop
   vertex 87.474304 -316.006500 1.504156
   vertex 87.058342 -316.509399 3.504156
   vertex 87.058342 -316.509399 1.504156
  endloop
 endfacet
 facet normal 0.770568 -0.637358 0.000000
  outer loop
   vertex 87.058342 -316.509399 3.504156
   vertex 87.474304 -316.006500 1.504156
   vertex 87.474304 -316.006500 3.504156
  endloop
 endfacet
 facet normal 0.909274 -0.416199 0.000000
  outer loop
   vertex 87.058342 -316.509399 1.504156
   vertex 86.786720 -317.102814 3.504156
   vertex 86.786720 -317.102814 1.504156
  endloop
 endfacet
 facet normal 0.909274 -0.416199 0.000000
  outer loop
   vertex 86.786720 -317.102814 3.504156
   vertex 87.058342 -316.509399 1.504156
   vertex 87.058342 -316.509399 3.504156
  endloop
 endfacet
 facet normal 0.986010 -0.166685 0.000000
  outer loop
   vertex 86.786720 -317.102814 1.504156
   vertex 86.677933 -317.746338 3.504156
   vertex 86.677933 -317.746338 1.504156
  endloop
 endfacet
 facet normal 0.986010 -0.166685 0.000000
  outer loop
   vertex 86.677933 -317.746338 3.504156
   vertex 86.786720 -317.102814 1.504156
   vertex 86.786720 -317.102814 3.504156
  endloop
 endfacet
endsolid uno_slide_holder - uno_slide_holder (repaired)
